<svg clip-rule="evenodd" fill="#FFFFFF" fill-rule="evenodd" stroke-linejoin="round" stroke-miterlimit="2" viewBox="0 0 32 32" xmlns="http://www.w3.org/2000/svg" xmlns:serif="http://www.serif.com/"><g transform="translate(-136 -262)"><path d="m158.969 274.978v13.022c0 1.105-.895 2-2 2h-15.969c-1.105 0-2-.895-2-2v-15.969c0-1.105.895-2 2-2h13.018l5.445-5.445c.375-.375.884-.586 1.414-.586.531 0 1.039.211 1.414.586l2.121 2.12c.375.375.586.884.586 1.415 0 .53-.211 1.039-.586 1.414zm-6.951-2.947h-11.018v15.969h15.969v-11.022l-5.261 5.261c-.016.016-.031.031-.046.046l-.685.685c-.165.165-.384.267-.617.289l-3.888.354c-.296.026-.588-.079-.798-.289s-.316-.502-.289-.798l.354-3.889c.021-.233.123-.451.289-.616zm-.26 7.329 8.401-8.4-2.121-2.121-8.401 8.401c.394.191.809.476 1.227.894.418.417.703.832.894 1.226zm9.815-9.815 1.425-1.424-2.121-2.121-1.425 1.425zm-13.615 9.374-.26.26-.212 2.333 2.333-.212.244-.245c.017-.27-.019-.913-.613-1.507-.625-.625-1.212-.664-1.492-.629z"/></g></svg>