<svg fill="#FFFFFF" enable-background="new 0 0 32 32" viewBox="0 0 32 32" xmlns="http://www.w3.org/2000/svg">
  <g id="AI_Translator">
    <!-- Central AI spark/star (smaller) -->
    <path d="m16 8.5.4 1.1c.45 1.25 1.44 2.24 2.69 2.69l1.1.4c.1.04.1.18 0 .22l-1.1.4c-1.25.45-2.24 1.44-2.69 2.69l-.4 1.1c-.04.1-.18.1-.22 0l-.4-1.1c-.45-1.25-1.44-2.24-2.69-2.69l-1.1-.4c-.1-.04-.1-.18 0-.22l1.1-.4c1.25-.45 2.24-1.44 2.69-2.69l.4-1.1c.04-.1.18-.1.22 0z"/>
    
    <!-- Globe outline -->
    <circle cx="16" cy="16" r="13" fill="none" stroke="#FFFFFF" stroke-width="1.5"/>
    
    <!-- Language text lines -->
    <path d="M7 11h6M8 13h4M6 15h5" stroke="#FFFFFF" stroke-width="1.2" stroke-linecap="round"/>
    <path d="M19 21h6M20 19h4M21 17h5" stroke="#FFFFFF" stroke-width="1.2" stroke-linecap="round"/>
    
    <!-- Translation arrows -->
    <path d="M12 18l2-2-2-2M20 14l-2 2 2 2" stroke="#FFFFFF" stroke-width="1.5" stroke-linecap="round" stroke-linejoin="round"/>
    
    <!-- Meridian lines -->
    <path d="M16 3v26" stroke="#FFFFFF" stroke-width="0.8" opacity="0.6"/>
    <ellipse cx="16" cy="16" rx="6" ry="13" fill="none" stroke="#FFFFFF" stroke-width="0.8" opacity="0.6"/>
    <ellipse cx="16" cy="16" rx="13" ry="6" fill="none" stroke="#FFFFFF" stroke-width="0.8" opacity="0.6"/>
  </g>
</svg> 