<svg height="512" viewBox="0 0 24 24" width="512" xmlns="http://www.w3.org/2000/svg">
    <defs>
        <linearGradient id="grad1" x1="0%" y1="0%" x2="100%" y2="0%">
            <stop offset="0%" style="stop-color:#9B62FF;stop-opacity:1"/>
            <stop offset="100%" style="stop-color:#5B03FF;stop-opacity:1"/>
        </linearGradient>
    </defs>
    <g transform="translate(-308.326 -29.917)" fill="url(#grad1)">
        <path d="m326.911 45.917-1.293-1.293c-.39-.39-.39-1.023 0-1.414.391-.39 1.024-.39 1.415 0l3 3c.39.391.39 1.024 0 1.414l-3 3c-.391.391-1.024.391-1.415 0-.39-.39-.39-1.023 0-1.414l1.293-1.293h-15.585c-.552 0-1-.448-1-1s.448-1 1-1zm-10.602-5-1.07 2.407c-.224.504-.815.731-1.32.507-.504-.224-.731-.815-.507-1.32l4-9c.224-.504.815-.732 1.32-.507.232.103.405.284.503.498.001.003.003.006.004.009l4 9c.225.505-.003 1.096-.507 1.32-.505.224-1.096-.003-1.32-.507l-1.07-2.407h-4.016c-.006 0-.012 0-.017 0zm2.017-4.537-1.128 2.537h2.255z"/>
    </g>
</svg>