<svg enable-background="new 0 0 512 512" height="512" viewBox="0 0 512 512" width="512"
     xmlns="http://www.w3.org/2000/svg">
    <defs>
        <linearGradient id="grad1" x1="0%" y1="0%" x2="100%" y2="0%">
            <stop offset="0%" style="stop-color:#9B62FF;stop-opacity:1"/>
            <stop offset="100%" style="stop-color:#5B03FF;stop-opacity:1"/>
        </linearGradient>
    </defs>
    <g fill="url(#grad1)">
        <path d="m492.015 301.227h-41.965v-15.323c0-12.924-10.515-23.438-23.439-23.438h-14.443v-169.797c0-12.615-10.263-22.879-22.878-22.879h-51.923v-11.286c0-9.647-7.849-17.496-17.496-17.496h-22.898c-9.647 0-17.496 7.849-17.496 17.496v11.286h-32.257c-4.142 0-7.5 3.357-7.5 7.5s3.358 7.5 7.5 7.5h32.256v7.486c0 9.647 7.849 17.496 17.496 17.496h22.898c9.647 0 17.496-7.849 17.496-17.496v-7.486h51.923c4.344 0 7.878 3.534 7.878 7.879v48.626h-382.167v-48.626c0-4.345 3.534-7.879 7.878-7.879h51.922v7.486c0 9.647 7.849 17.496 17.496 17.496h22.898c9.647 0 17.496-7.849 17.496-17.496v-7.486h84.542c4.142 0 7.5-3.357 7.5-7.5s-3.358-7.5-7.5-7.5h-84.542v-11.286c0-9.647-7.849-17.496-17.496-17.496h-22.898c-9.647 0-17.496 7.849-17.496 17.496v11.286h-51.922c-12.615 0-22.878 10.264-22.878 22.879v260.259c0 4.143 3.358 7.5 7.5 7.5s7.5-3.357 7.5-7.5v-196.633h382.167v106.17h-28.856c-12.924 0-23.438 10.515-23.438 23.438v15.323h-41.965c-11.02 0-19.985 8.965-19.985 19.984v97.933h-260.045c-4.344 0-7.878-3.534-7.878-7.878v-28.351c0-4.143-3.358-7.5-7.5-7.5s-7.5 3.357-7.5 7.5v28.351c0 12.615 10.263 22.878 22.878 22.878h260.044v16.862c0 11.02 8.966 19.985 19.985 19.985h189.107c11.02 0 19.984-8.966 19.984-19.985v-129.794c.002-11.019-8.963-19.984-19.983-19.984zm-169.648-208.95c0 1.376-1.12 2.496-2.496 2.496h-22.898c-1.376 0-2.496-1.12-2.496-2.496v-33.773c0-1.376 1.12-2.496 2.496-2.496h22.898c1.376 0 2.496 1.12 2.496 2.496zm-232.567-33.773c0-1.376 1.12-2.496 2.496-2.496h22.898c1.376 0 2.496 1.12 2.496 2.496v33.772c0 1.376-1.12 2.496-2.496 2.496h-22.898c-1.376 0-2.496-1.12-2.496-2.496zm336.811 218.961c4.653 0 8.439 3.785 8.439 8.438v15.323h-22.883v-23.762h14.444zm-66.738 8.439c0-4.653 3.785-8.438 8.438-8.438h28.856v23.762h-37.295v-15.324zm132.142 170.087h-189.107c-2.749 0-4.985-2.236-4.985-4.985v-73.032l92.925 32.611c2.663.936 5.457 1.402 8.252 1.402 2.878 0 5.757-.496 8.492-1.487l29.742-10.781c3.895-1.411 5.907-5.713 4.495-9.606-1.411-3.894-5.709-5.907-9.606-4.495l-29.742 10.781c-2.145.778-4.511.791-6.665.033l-97.893-34.354v-40.866c0-2.748 2.236-4.984 4.985-4.984h189.107c2.748 0 4.984 2.236 4.984 4.984v40.924l-36.316 13.164c-3.895 1.411-5.907 5.713-4.495 9.606 1.41 3.892 5.709 5.907 9.606 4.495l31.206-11.311v72.917c0 2.748-2.237 4.984-4.985 4.984z"/>
        <path d="m411.515 338.589h-28.107c-4.143 0-7.5 3.357-7.5 7.5s3.357 7.5 7.5 7.5h28.107c4.143 0 7.5-3.357 7.5-7.5s-3.357-7.5-7.5-7.5z"/>
        <path d="m149.946 113.043c0 4.143 3.358 7.5 7.5 7.5h97.275c4.143 0 7.5-3.357 7.5-7.5s-3.357-7.5-7.5-7.5h-97.275c-4.142 0-7.5 3.358-7.5 7.5z"/>
        <path d="m80.794 212.06h23.431c4.142 0 7.5-3.357 7.5-7.5s-3.358-7.5-7.5-7.5h-23.431c-4.142 0-7.5 3.357-7.5 7.5s3.358 7.5 7.5 7.5z"/>
        <path d="m156.51 212.06h23.431c4.142 0 7.5-3.357 7.5-7.5s-3.358-7.5-7.5-7.5h-23.431c-4.142 0-7.5 3.357-7.5 7.5s3.358 7.5 7.5 7.5z"/>
        <path d="m232.227 212.06h23.43c4.143 0 7.5-3.357 7.5-7.5s-3.357-7.5-7.5-7.5h-23.43c-4.142 0-7.5 3.357-7.5 7.5s3.357 7.5 7.5 7.5z"/>
        <path d="m307.942 212.06h23.431c4.143 0 7.5-3.357 7.5-7.5s-3.357-7.5-7.5-7.5h-23.431c-4.143 0-7.5 3.357-7.5 7.5s3.357 7.5 7.5 7.5z"/>
        <path d="m80.794 280.465h23.431c4.142 0 7.5-3.357 7.5-7.5s-3.358-7.5-7.5-7.5h-23.431c-4.142 0-7.5 3.357-7.5 7.5s3.358 7.5 7.5 7.5z"/>
        <path d="m156.51 280.465h23.431c4.142 0 7.5-3.357 7.5-7.5s-3.358-7.5-7.5-7.5h-23.431c-4.142 0-7.5 3.357-7.5 7.5s3.358 7.5 7.5 7.5z"/>
        <path d="m232.227 280.465h23.43c4.143 0 7.5-3.357 7.5-7.5s-3.357-7.5-7.5-7.5h-23.43c-4.142 0-7.5 3.357-7.5 7.5s3.357 7.5 7.5 7.5z"/>
        <path d="m307.942 280.465h23.431c4.143 0 7.5-3.357 7.5-7.5s-3.357-7.5-7.5-7.5h-23.431c-4.143 0-7.5 3.357-7.5 7.5s3.357 7.5 7.5 7.5z"/>
        <path d="m80.794 348.87h23.431c4.142 0 7.5-3.357 7.5-7.5s-3.358-7.5-7.5-7.5h-23.431c-4.142 0-7.5 3.357-7.5 7.5s3.358 7.5 7.5 7.5z"/>
        <path d="m156.51 348.87h23.431c4.142 0 7.5-3.357 7.5-7.5s-3.358-7.5-7.5-7.5h-23.431c-4.142 0-7.5 3.357-7.5 7.5s3.358 7.5 7.5 7.5z"/>
        <path d="m232.227 348.87h23.43c4.143 0 7.5-3.357 7.5-7.5s-3.357-7.5-7.5-7.5h-23.43c-4.142 0-7.5 3.357-7.5 7.5s3.357 7.5 7.5 7.5z"/>
    </g>
</svg>