<svg xmlns="http://www.w3.org/2000/svg" version="1.1" x="0px"
     y="0px" viewBox="0 0 512 512" style="enable-background:new 0 0 512 512;" xml:space="preserve" width="512"
     height="512">
    <defs>
        <linearGradient id="grad1" x1="0%" y1="0%" x2="100%" y2="0%">
            <stop offset="0%" style="stop-color:#9B62FF;stop-opacity:1"/>
            <stop offset="100%" style="stop-color:#5B03FF;stop-opacity:1"/>
        </linearGradient>
    </defs>
    <g fill="url(#grad1)">
        <rect x="443" y="274.5" transform="matrix(-1.836970e-16 1 -1 -1.836970e-16 779 -200)"
              style="fill:none;stroke:url(#grad1);stroke-width:15;stroke-linecap:round;stroke-linejoin:round;stroke-miterlimit:10;"
              width="93" height="30"/>
        <path style="fill:none;stroke:url(#grad1);stroke-width:15;stroke-linecap:round;stroke-linejoin:round;stroke-miterlimit:10;"
              d="&#10;&#9;&#9;&#9;M502.5,366H434c-3.314,0-6-2.686-6-6V213h76.5v151C504.5,365.105,503.605,366,502.5,366z"/>
        <path style="fill:none;stroke:url(#grad1);stroke-width:15;stroke-linecap:round;stroke-linejoin:round;stroke-miterlimit:10;"
              d="&#10;&#9;&#9;&#9;M504.5,213H428v-61c0-3.314,2.686-6,6-6h68.5c1.105,0,2,0.895,2,2V213z"/>
        <path style="fill:none;stroke:url(#grad1);stroke-width:15;stroke-linecap:round;stroke-linejoin:round;stroke-miterlimit:10;"
              d="&#10;&#9;&#9;&#9;M9.5,366H78c3.314,0,6-2.686,6-6V213H7.5v151C7.5,365.105,8.395,366,9.5,366z"/>
        <path style="fill:none;stroke:url(#grad1);stroke-width:15;stroke-linecap:round;stroke-linejoin:round;stroke-miterlimit:10;"
              d="&#10;&#9;&#9;&#9;M7.5,213H84v-61c0-3.314-2.686-6-6-6H9.5c-1.105,0-2,0.895-2,2V213z"/>
        <path style="fill:none;stroke:url(#grad1);stroke-width:15;stroke-linecap:round;stroke-linejoin:round;stroke-miterlimit:10;"
              d="&#10;&#9;&#9;&#9;M392,401H120c-3.314,0-6-2.686-6-6V201h284v194C398,398.314,395.314,401,392,401z"/>
        <path style="fill:none;stroke:url(#grad1);stroke-width:15;stroke-linecap:round;stroke-linejoin:round;stroke-miterlimit:10;"
              d="&#10;&#9;&#9;&#9;M367.292,353.07l-44.488-37.449c-4.366-3.675-10.698-3.831-15.239-0.373l-46.028,35.042"/>

        <line style="fill:none;stroke:url(#grad1);stroke-width:15;stroke-linecap:round;stroke-linejoin:round;stroke-miterlimit:10;"
              x1="368" y1="353.667" x2="367.292" y2="353.07"/>
        <path style="fill:none;stroke:url(#grad1);stroke-width:15;stroke-linecap:round;stroke-linejoin:round;stroke-miterlimit:10;"
              d="&#10;&#9;&#9;&#9;M145.24,345.585l54.732-47.751c5.141-4.486,12.963-3.88,17.352,1.345l59.248,70.52"/>
        <path style="fill:none;stroke:url(#grad1);stroke-width:15;stroke-linecap:round;stroke-linejoin:round;stroke-miterlimit:10;"
              d="&#10;&#9;&#9;&#9;M144,365V237c0-3.314,2.686-6,6-6h212c3.314,0,6,2.686,6,6v128c0,3.314-2.686,6-6,6H150C146.686,371,144,368.314,144,365z"/>

        <circle style="fill:none;stroke:url(#grad1);stroke-width:15;stroke-linecap:round;stroke-linejoin:round;stroke-miterlimit:10;"
                cx="277.667" cy="280.333" r="17"/>
        <path style="fill:none;stroke:url(#grad1);stroke-width:15;stroke-linecap:round;stroke-linejoin:round;stroke-miterlimit:10;"
              d="&#10;&#9;&#9;&#9;M376.239,111H392c3.314,0,6,2.686,6,6v84H114v-84c0-3.314,2.686-6,6-6h221.634"/>
        <g>
            <line style="fill:none;stroke:url(#grad1);stroke-width:15;stroke-linecap:round;stroke-linejoin:round;stroke-miterlimit:10;"
                  x1="234" y1="141" x2="297.778" y2="141"/>
            <line style="fill:none;stroke:url(#grad1);stroke-width:15;stroke-linecap:round;stroke-linejoin:round;stroke-miterlimit:10;"
                  x1="234" y1="171" x2="346" y2="171"/>
		</g>
        <path style="fill:none;stroke:url(#grad1);stroke-width:15;stroke-linecap:round;stroke-linejoin:round;stroke-miterlimit:10;"
              d="&#10;&#9;&#9;&#9;M170,167L170,167c-14.359,0-26-11.641-26-26v-30h52v30C196,155.359,184.359,167,170,167z"/>
        <path style="fill:none;stroke:url(#grad1);stroke-width:15;stroke-linecap:round;stroke-linejoin:round;stroke-miterlimit:10;"
              d="&#10;&#9;&#9;&#9;M37.5,313.523V330c0,3.314-2.686,6-6,6h-24v-93h24c3.314,0,6,2.686,6,6v31.035"/>
	</g>
</svg>
