<svg enable-background="new 0 0 520 520" height="512" viewBox="0 0 520 520" width="512"
    xmlns="http://www.w3.org/2000/svg" id="fi_2678249">
    <defs>
        <linearGradient id="grad1" x1="0%" y1="0%" x2="100%" y2="0%">
            <stop offset="0%" style="stop-color:#9B62FF;stop-opacity:1"/>
            <stop offset="100%" style="stop-color:#5B03FF;stop-opacity:1"/>
        </linearGradient>
    </defs>
    <g fill="url(#grad1)">
        <g>
            <path d="m460 290h-280c-5.523 0-10 4.478-10 10s4.477 10 10 10h280c5.522 0 10-4.478 10-10s-4.478-10-10-10z"></path>
            <path d="m460 330h-280c-5.523 0-10 4.478-10 10s4.477 10 10 10h280c5.522 0 10-4.478 10-10s-4.478-10-10-10z"></path>
            <path d="m460 370h-280c-5.523 0-10 4.478-10 10s4.477 10 10 10h280c5.522 0 10-4.478 10-10s-4.478-10-10-10z"></path>
            <path d="m460 410h-280c-5.523 0-10 4.478-10 10s4.477 10 10 10h280c5.522 0 10-4.478 10-10s-4.478-10-10-10z"></path>
            <path d="m360 450h-180c-5.523 0-10 4.478-10 10s4.477 10 10 10h180c5.522 0 10-4.478 10-10s-4.478-10-10-10z"></path>
            <path d="m132.929 412.929-22.929 22.928v-135.857c0-5.522-4.477-10-10-10s-10 4.478-10 10v135.857l-22.929-22.929c-3.905-3.904-10.237-3.904-14.143 0-3.905 3.905-3.905 10.237 0 14.143l40 40c3.26 3.212 8.024 3.763 11.786 1.747 1.809-.97-.901 1.502 42.357-41.747 3.905-3.905 3.905-10.237 0-14.143-3.905-3.904-10.237-3.904-14.142.001z"></path>
            <path d="m180 70h280c5.522 0 10-4.477 10-10s-4.478-10-10-10h-280c-5.523 0-10 4.477-10 10s4.477 10 10 10z"></path>
            <path d="m460 90h-280c-5.523 0-10 4.477-10 10s4.477 10 10 10h280c5.522 0 10-4.477 10-10s-4.478-10-10-10z"></path>
            <path d="m460 130h-280c-5.523 0-10 4.477-10 10s4.477 10 10 10h280c5.522 0 10-4.477 10-10s-4.478-10-10-10z"></path>
            <path d="m460 170h-280c-5.523 0-10 4.477-10 10s4.477 10 10 10h280c5.522 0 10-4.477 10-10s-4.478-10-10-10z"></path>
            <path d="m180 230h180c5.522 0 10-4.477 10-10s-4.478-10-10-10h-180c-5.523 0-10 4.477-10 10s4.477 10 10 10z"></path>
            <path d="m103.362 50.592c-2.422-.868-5.151-.79-7.606.364-2.221 1.042-.353-.494-42.827 41.973-3.905 3.905-3.905 10.237 0 14.143s10.237 3.905 14.143 0l22.928-22.93v135.858c0 5.523 4.477 10 10 10s10-4.477 10-10v-135.858l22.929 22.929c3.904 3.904 10.237 3.905 14.143 0s3.905-10.237 0-14.143c-42.645-42.636-40.8-41.303-43.71-42.336z"></path>
        </g>
    </g>
</svg>