<svg enable-background="new 0 0 66 66" height="512" viewBox="0 0 66 66" width="512"
     xmlns="http://www.w3.org/2000/svg">
    <defs>
        <linearGradient id="grad1" x1="0%" y1="0%" x2="100%" y2="0%">
            <stop offset="0%" style="stop-color:#9B62FF;stop-opacity:1"/>
            <stop offset="100%" style="stop-color:#5B03FF;stop-opacity:1"/>
        </linearGradient>
    </defs>
    <g fill="url(#grad1)">
        <g>
            <g>
                <path d="m32.9 27.7c-1 0-1.9-.1-2.8-.3-.5-.1-.8-.6-.8-1.1.2-1.2-.2-1.9-.4-2-.5-.2-1.2.2-1.9 1.1-.3.4-.9.5-1.3.2-1.6-1-3.1-2.4-4-4-.3-.4-.2-1 .3-1.3.9-.7 1.3-1.5 1.2-1.9-.2-.3-1-.6-2-.4-.5.1-1-.3-1.1-.8-.4-2-.4-3.9 0-5.7.1-.5.6-.8 1.1-.8 1.2.2 1.9-.2 2-.4.2-.4-.1-1.1-1.2-1.9-.5-.4-.6-1-.4-1.4.9-1.5 2.2-2.8 4-4 .4-.3 1-.2 1.4.2.7.9 1.5 1.3 1.9 1.2.4-.2.5-1 .3-2-.1-.5.2-1.1.8-1.2 2-.4 3.9-.4 5.7 0 .5.1.8.6.8 1.1-.2 1.2.2 1.9.4 2 .5.2 1.2-.3 1.9-1.2.3-.4.9-.5 1.3-.2 1.6 1 3.1 2.4 4 4 .3.4.2 1-.3 1.3-.9.6-1.3 1.4-1.2 1.8.4.8 1.5.7 2.1.6.5-.1 1.1.2 1.2.8.4 2 .4 3.9 0 5.7-.1.5-.6.8-1.1.8-1-.1-1.9.1-2.1.5s.3 1.1 1.1 1.8c.4.3.5.9.2 1.3-1 1.6-2.4 3.1-4 4-.4.3-1 .2-1.3-.3-.7-.9-1.5-1.3-1.7-1.2-.4.2-.6 1-.5 2 .1.5-.3 1-.8 1.1-.9.5-1.8.6-2.8.6zm-1.5-2.1c1 .2 2.1.2 3.2 0 0-1.5.7-2.7 1.7-3.2 1.1-.4 2.4 0 3.5 1.1.8-.6 1.6-1.4 2.2-2.2-1.1-1.2-1.5-2.5-1-3.6s1.7-1.7 3.2-1.7c.2-1 .2-2.1 0-3.2-1.6 0-2.7-.6-3.3-1.9v-.1c-.4-1.1.1-2.4 1.1-3.5-.6-.8-1.4-1.6-2.2-2.2-1.2 1.2-2.5 1.6-3.6 1.1-1.1-.4-1.7-1.6-1.7-3.2-1-.2-2.1-.2-3.2 0 0 1.5-.6 2.7-1.7 3.2-1.2.4-2.5 0-3.6-1.1-.9.7-1.6 1.4-2.2 2.2 1.1 1.1 1.6 2.5 1.1 3.6-.4 1.1-1.6 1.7-3.2 1.7-.2 1-.2 2.1 0 3.2 1.5 0 2.7.7 3.2 1.7.4 1.2 0 2.5-1.1 3.6.6.8 1.4 1.6 2.2 2.2 1.2-1.1 2.5-1.5 3.6-1 1.1.4 1.7 1.7 1.8 3.3z"/>
            </g>
            <g>
                <path d="m33 21.5c-.8 0-1.7-.1-2.5-.4-1.8-.7-3.2-2-4-3.7-1.6-3.6-.1-7.9 3.5-9.5 1.7-.8 3.7-.9 5.5-.2s3.2 2 4 3.7c.8 1.7.9 3.7.2 5.5s-2 3.2-3.7 4c-1 .3-2 .6-3 .6zm0-12.4c-.7 0-1.5.2-2.2.5-2.6 1.2-3.7 4.2-2.5 6.9.6 1.2 1.6 2.2 2.9 2.7s2.7.4 4-.2c1.2-.6 2.2-1.6 2.7-2.9s.4-2.7-.2-4c-.6-1.2-1.6-2.2-2.9-2.7-.6-.2-1.2-.3-1.8-.3z"/>
            </g>
        </g>
        <g>
            <path d="m33 33.5c-.6 0-1-.4-1-1v-5.8c0-.6.4-1 1-1s1 .4 1 1v5.8c0 .6-.4 1-1 1z"/>
        </g>
        <g>
            <path d="m55.6 33.5c-.6 0-1-.4-1-1v-13.8c0-1.8-1.6-3.4-3.4-3.4h-5.9c-.6 0-1-.4-1-1s.4-1 1-1h5.9c2.9 0 5.4 2.5 5.4 5.4v13.8c0 .6-.4 1-1 1z"/>
        </g>
        <g>
            <path d="m33 47.5c-4.4 0-8-3.6-8-8s3.6-8 8-8 8 3.6 8 8-3.6 8-8 8zm0-14c-3.3 0-6 2.7-6 6s2.7 6 6 6 6-2.7 6-6-2.7-6-6-6z"/>
        </g>
        <g>
            <path d="m48 40.5h-8c-.6 0-1-.4-1-1s.4-1 1-1h8c.6 0 1 .4 1 1s-.4 1-1 1z"/>
        </g>
        <g>
            <path d="m26 40.5h-8.7c-.6 0-1-.4-1-1s.4-1 1-1h8.7c.6 0 1 .4 1 1s-.4 1-1 1z"/>
        </g>
        <g>
            <path d="m55.6 48c-.3 0-.5-.1-.7-.3l-7.6-7.6c-.4-.4-.4-1 0-1.4l7.6-7.6c.4-.4 1-.4 1.4 0l7.6 7.6c.2.2.3.4.3.7s-.1.5-.3.7l-7.6 7.6c-.2.2-.4.3-.7.3zm-6.1-8.6 6.2 6.2 6.2-6.2-6.2-6.2z"/>
        </g>
        <g>
            <path d="m12.7 45.6h-6.1c-2.6 0-4.8-2.2-4.8-4.8v-2.5c0-2.6 2.2-4.8 4.8-4.8h6.1c2.6 0 4.8 2.2 4.8 4.8v2.5c0 2.6-2.2 4.8-4.8 4.8zm-6.1-10.1c-1.5 0-2.8 1.3-2.8 2.8v2.5c0 1.5 1.3 2.8 2.8 2.8h6.1c1.5 0 2.8-1.3 2.8-2.8v-2.5c0-1.5-1.3-2.8-2.8-2.8z"/>
        </g>
        <g>
            <path d="m36 65h-6.1c-2.6 0-4.8-2.2-4.8-4.8v-2.5c0-2.6 2.2-4.8 4.8-4.8h6.1c2.6 0 4.8 2.2 4.8 4.8v2.5c0 2.6-2.2 4.8-4.8 4.8zm-6.1-10.1c-1.5 0-2.8 1.3-2.8 2.8v2.5c0 1.5 1.3 2.8 2.8 2.8h6.1c1.5 0 2.8-1.3 2.8-2.8v-2.5c0-1.5-1.3-2.8-2.8-2.8z"/>
        </g>
        <g>
            <path d="m33 54.7c-.6 0-1-.4-1-1v-7.2c0-.6.4-1 1-1s1 .4 1 1v7.2c0 .6-.4 1-1 1z"/>
        </g>
        <g>
            <path d="m51.2 60h-11.2c-.6 0-1-.4-1-1s.4-1 1-1h11.2c1.8 0 3.4-1.6 3.4-3.4v-7.5c0-.6.4-1 1-1s1 .4 1 1v7.5c0 2.9-2.5 5.4-5.4 5.4z"/>
        </g>
        <g>
            <path d="m26.1 60h-12c-3 0-5.4-2.4-5.4-5.4v-10c0-.6.4-1 1-1s1 .4 1 1v10c0 1.8 1.6 3.4 3.4 3.4h12c.6 0 1 .4 1 1s-.4 1-1 1z"/>
        </g>
        <g>
            <g>
                <path d="m12.2 38.9h-4.9c-.6 0-1-.4-1-1s.4-1 1-1h4.9c.6 0 1 .4 1 1s-.4 1-1 1z"/>
            </g>
            <g>
                <path d="m12.2 42.2h-4.9c-.6 0-1-.4-1-1s.4-1 1-1h4.9c.6 0 1 .4 1 1s-.4 1-1 1z"/>
            </g>
        </g>
        <g>
            <g>
                <path d="m35.4 38.9h-4.8c-.6 0-1-.4-1-1s.4-1 1-1h4.8c.6 0 1 .4 1 1s-.4 1-1 1z"/>
            </g>
            <g>
                <path d="m35.4 42.2h-4.8c-.6 0-1-.4-1-1s.4-1 1-1h4.8c.6 0 1 .4 1 1s-.4 1-1 1z"/>
            </g>
        </g>
        <g>
            <g>
                <path d="m35.4 58.3h-4.8c-.6 0-1-.4-1-1s.4-1 1-1h4.8c.6 0 1 .4 1 1s-.4 1-1 1z"/>
            </g>
            <g>
                <path d="m35.4 61.6h-4.8c-.6 0-1-.4-1-1s.4-1 1-1h4.8c.6 0 1 .4 1 1s-.4 1-1 1z"/>
            </g>
        </g>
        <g>
            <g>
                <path d="m57.3 38.9h-3.4c-.6 0-1-.4-1-1s.4-1 1-1h3.4c.6 0 1 .4 1 1s-.4 1-1 1z"/>
            </g>
            <g>
                <path d="m57.3 42.2h-3.4c-.6 0-1-.4-1-1s.4-1 1-1h3.4c.6 0 1 .4 1 1s-.4 1-1 1z"/>
            </g>
        </g>
    </g>
</svg>