<svg height="512" viewBox="0 0 48 48" width="512" xmlns="http://www.w3.org/2000/svg" data-name="Layer 1">
    <defs>
        <linearGradient id="grad1" x1="0%" y1="0%" x2="100%" y2="0%">
            <stop offset="0%" style="stop-color:#9B62FF;stop-opacity:1"/>
            <stop offset="100%" style="stop-color:#5B03FF;stop-opacity:1"/>
        </linearGradient>
    </defs>
    <g fill="url(#grad1)">
        <path d="m25 48h-12a5.006 5.006 0 0 1 -5-5v-30a5.006 5.006 0 0 1 5-5h12a5.006 5.006 0 0 1 5 5v30a5.006 5.006 0 0 1 -5 5zm-12-38a3 3 0 0 0 -3 3v30a3 3 0 0 0 3 3h12a3 3 0 0 0 3-3v-30a3 3 0 0 0 -3-3z"/>
        <path d="m35 40h-6a1 1 0 0 1 0-2h6a3 3 0 0 0 3-3v-30a3 3 0 0 0 -3-3h-12a3 3 0 0 0 -3 3v4a1 1 0 0 1 -2 0v-4a5.006 5.006 0 0 1 5-5h12a5.006 5.006 0 0 1 5 5v30a5.006 5.006 0 0 1 -5 5z"/>
        <path d="m11.214 37c-.8 0-1.564-.03-2.3-.092-4.766-.4-7.758-2-8.654-4.645-1.216-3.563 1.766-8.043 8.187-12.298a1 1 0 1 1 1.106 1.667c-5.438 3.6-8.272 7.43-7.4 9.985.613 1.806 3.073 2.976 6.927 3.3 4.836.4 11.276-.638 17.669-2.859.643-.22 1.271-.457 1.889-.7a51.808 51.808 0 0 0 9.805-4.967c4.492-2.976 7.527-6.755 7.554-9.4a1 1 0 1 1 2 .02c-.035 3.386-3.271 7.619-8.447 11.05a53.853 53.853 0 0 1 -10.192 5.166c-.644.248-1.3.494-1.958.719a51.3 51.3 0 0 1 -16.186 3.054z"/>
        <path d="m47 25a1 1 0 0 1 -1-1v-5.234l-3.485 2.091a1 1 0 1 1 -1.03-1.714l5-3a1 1 0 0 1 1.515.857v7a1 1 0 0 1 -1 1z"/>
    </g>
</svg>