<svg enable-background="new 0 0 512 512" height="512" viewBox="0 0 512 512" width="512"
     xmlns="http://www.w3.org/2000/svg">
    <defs>
        <linearGradient id="grad1" x1="0%" y1="0%" x2="100%" y2="0%">
            <stop offset="0%" style="stop-color:#9B62FF;stop-opacity:1"/>
            <stop offset="100%" style="stop-color:#5B03FF;stop-opacity:1"/>
        </linearGradient>
    </defs>
    <g fill="url(#grad1)">
        <path d="m484.3 40.41h-377.3c-4.142 0-7.5 3.358-7.5 7.5s3.358 7.5 7.5 7.5h377.3c7.003 0 12.7 5.697 12.7 12.7v36.95h-482v-36.95c0-7.002 5.697-12.7 12.7-12.7h44.3c4.142 0 7.5-3.358 7.5-7.5s-3.358-7.5-7.5-7.5h-44.3c-15.274 0-27.7 12.426-27.7 27.7v375.78c0 15.273 12.426 27.7 27.7 27.7h115.63c4.142 0 7.5-3.358 7.5-7.5s-3.358-7.5-7.5-7.5h-115.63c-7.003 0-12.7-5.697-12.7-12.7v-323.83h482v323.83c0 7.002-5.697 12.7-12.7 12.7h-305.97c-4.142 0-7.5 3.358-7.5 7.5s3.358 7.5 7.5 7.5h305.97c15.274 0 27.7-12.426 27.7-27.7v-375.78c0-15.274-12.426-27.7-27.7-27.7z"/>
        <path d="m326.61 298.43c0-4.142-3.357-7.5-7.5-7.5h-192.97c-7.003 0-12.7-5.702-12.7-12.71v-105.05c0-7.008 5.697-12.71 12.7-12.71h259.72c7.002 0 12.699 5.702 12.699 12.71v105.05c0 7.008-5.697 12.71-12.699 12.71h-31.75c-4.143 0-7.5 3.358-7.5 7.5s3.357 7.5 7.5 7.5h31.75c15.273 0 27.699-12.431 27.699-27.71v-105.05c0-15.279-12.426-27.71-27.699-27.71h-259.72c-15.274 0-27.7 12.431-27.7 27.71v105.05c0 15.279 12.426 27.71 27.7 27.71h192.97c4.143 0 7.5-3.358 7.5-7.5z"/>
        <path d="m178.671 192.789c6.596 0 12.956 1.942 18.393 5.615 3.432 2.32 8.095 1.417 10.413-2.016 2.319-3.432 1.417-8.094-2.016-10.413-7.927-5.356-17.191-8.187-26.791-8.187-26.416 0-47.906 21.491-47.906 47.907s21.491 47.906 47.906 47.906c10.483 0 19.876-3.431 27.164-9.921 1.429-1.272 2.788-2.673 4.039-4.166 2.662-3.174 2.247-7.904-.927-10.566-3.173-2.661-7.904-2.248-10.566.927-.786.937-1.634 1.812-2.521 2.603-4.562 4.063-10.345 6.124-17.188 6.124-18.145 0-32.906-14.762-32.906-32.906 0-18.146 14.762-32.907 32.906-32.907z"/>
        <path d="m264.614 258.602c-8.755 0-17.205-3.557-22.604-9.515-2.781-3.069-7.524-3.303-10.594-.521-3.069 2.782-3.303 7.524-.521 10.594 8.195 9.044 20.801 14.443 33.719 14.443 15.514 0 29.032-10.187 31.444-23.696 1.826-10.231-2.949-23.645-21.832-30.61-2.879-1.062-5.391-1.963-7.621-2.763-7.047-2.527-10.928-3.92-14.591-6.144-2.64-1.604-3.972-4.486-3.562-7.709.532-4.179 3.661-7.521 8.37-8.94 12.801-3.853 24.391 5.419 24.641 5.622 3.17 2.639 7.881 2.223 10.539-.938 2.665-3.171 2.256-7.902-.915-10.567-.721-.604-17.842-14.729-38.591-8.478-10.39 3.13-17.641 11.333-18.923 21.408-1.163 9.134 2.92 17.727 10.655 22.424 4.958 3.011 9.609 4.679 17.313 7.442 2.193.787 4.664 1.673 7.494 2.717 8.788 3.241 13.255 8.308 12.257 13.9-.995 5.568-7.505 11.331-16.678 11.331z"/>
        <path d="m349.418 258.602c-8.755 0-17.205-3.557-22.604-9.516-2.783-3.07-7.525-3.301-10.594-.521-3.069 2.781-3.303 7.524-.521 10.594 8.196 9.043 20.802 14.442 33.72 14.442 15.515 0 29.032-10.187 31.444-23.696 1.827-10.231-2.949-23.645-21.831-30.61-2.88-1.062-5.393-1.963-7.623-2.764-7.046-2.527-10.928-3.919-14.59-6.143-2.641-1.604-3.972-4.486-3.562-7.71.532-4.179 3.66-7.521 8.369-8.939 12.804-3.853 24.391 5.419 24.641 5.622 3.169 2.639 7.882 2.223 10.539-.938 2.665-3.171 2.256-7.902-.915-10.567-.72-.604-17.842-14.729-38.591-8.478-10.39 3.13-17.641 11.333-18.923 21.408-1.163 9.134 2.92 17.727 10.655 22.425 4.958 3.011 9.608 4.679 17.312 7.442 2.194.787 4.665 1.673 7.496 2.717 8.788 3.241 13.255 8.308 12.256 13.9-.994 5.569-7.505 11.332-16.678 11.332z"/>
        <path d="m131.446 327.469c-2.929-2.929-7.678-2.929-10.606 0l-20.203 20.203c-2.929 2.929-2.929 7.678 0 10.606l20.203 20.203c1.464 1.464 3.384 2.197 5.303 2.197s3.839-.732 5.303-2.197c2.929-2.929 2.929-7.678 0-10.606l-14.9-14.9 14.9-14.9c2.929-2.928 2.929-7.677 0-10.606z"/>
        <path d="m380.553 428.99c1.465 1.465 3.384 2.197 5.304 2.197 1.919 0 3.839-.732 5.303-2.197l20.204-20.203c1.407-1.406 2.197-3.314 2.197-5.303s-.79-3.897-2.196-5.303l-20.204-20.204c-2.93-2.929-7.678-2.929-10.607 0s-2.929 7.678 0 10.606l14.901 14.9-14.9 14.9c-2.931 2.929-2.931 7.678-.002 10.607z"/>
        <path d="m346.915 325.272h-114.149c-4.142 0-7.5 3.358-7.5 7.5s3.358 7.5 7.5 7.5h114.149c4.143 0 7.5-3.358 7.5-7.5s-3.357-7.5-7.5-7.5z"/>
        <path d="m165.085 340.272h35.355c4.142 0 7.5-3.358 7.5-7.5s-3.358-7.5-7.5-7.5h-35.355c-4.142 0-7.5 3.358-7.5 7.5s3.358 7.5 7.5 7.5z"/>
        <path d="m279.233 370.729h-114.148c-4.142 0-7.5 3.358-7.5 7.5s3.358 7.5 7.5 7.5h114.148c4.143 0 7.5-3.358 7.5-7.5s-3.357-7.5-7.5-7.5z"/>
        <path d="m346.915 370.729h-35.356c-4.143 0-7.5 3.358-7.5 7.5s3.357 7.5 7.5 7.5h35.356c4.143 0 7.5-3.358 7.5-7.5s-3.357-7.5-7.5-7.5z"/>
        <path d="m207.941 423.687c0-4.142-3.358-7.5-7.5-7.5h-35.355c-4.142 0-7.5 3.358-7.5 7.5s3.358 7.5 7.5 7.5h35.355c4.142 0 7.5-3.358 7.5-7.5z"/>
        <path d="m346.915 416.187h-35.356c-4.143 0-7.5 3.358-7.5 7.5s3.357 7.5 7.5 7.5h35.356c4.143 0 7.5-3.358 7.5-7.5s-3.357-7.5-7.5-7.5z"/>
        <path d="m279.233 416.187h-46.467c-4.142 0-7.5 3.358-7.5 7.5s3.358 7.5 7.5 7.5h46.467c4.143 0 7.5-3.358 7.5-7.5s-3.357-7.5-7.5-7.5z"/>
        <circle cx="403.484" cy="80.235" r="7.5"/>
        <circle cx="433.789" cy="80.235" r="7.5"/>
        <circle cx="464.094" cy="80.235" r="7.5"/>
    </g>
</svg>