<svg height="512" viewBox="0 0 24 24" width="512" xmlns="http://www.w3.org/2000/svg">
    <defs>
        <linearGradient id="grad1" x1="0%" y1="0%" x2="100%" y2="0%">
            <stop offset="0%" style="stop-color:#9B62FF;stop-opacity:1"/>
            <stop offset="100%" style="stop-color:#5B03FF;stop-opacity:1"/>
        </linearGradient>
    </defs>
    <path fill="url(#grad1)" d="m6.5 18h.5v.5a2.5 2.5 0 0 0 2.5 2.5h9a2.5 2.5 0 0 0 2.5-2.5v-9a2.5 2.5 0 0 0 -2.5-2.5h-.5v-.5a2.5 2.5 0 0 0 -2.5-2.5h-9a2.5 2.5 0 0 0 -2.5 2.5v9a2.5 2.5 0 0 0 2.5 2.5zm12-10a1.5 1.5 0 0 1 1.5 1.5v9a1.5 1.5 0 0 1 -1.5 1.5h-9a1.5 1.5 0 0 1 -1.5-1.5v-.5h7.5a2.5 2.5 0 0 0 2.5-2.5v-7.5zm-13.5-1.5a1.5 1.5 0 0 1 1.5-1.5h9a1.5 1.5 0 0 1 1.5 1.5v9a1.5 1.5 0 0 1 -1.5 1.5h-9a1.5 1.5 0 0 1 -1.5-1.5z"/>
</svg>