<svg id="Capa_1" enable-background="new 0 0 512 512" viewBox="0 0 512 512"
    xmlns="http://www.w3.org/2000/svg">
    <defs>
        <linearGradient id="grad1" x1="0%" y1="0%" x2="100%" y2="0%">
            <stop offset="0%" style="stop-color:#9B62FF;stop-opacity:1"/>
            <stop offset="100%" style="stop-color:#5B03FF;stop-opacity:1"/>
        </linearGradient>
    </defs>
    <g fill="url(#grad1)">
        <path d="m443.691 33.958h-3.159c-4.142 0-7.5 3.358-7.5 7.5s3.358 7.5 7.5 7.5h3.159c4.142 0 7.5-3.358 7.5-7.5s-3.358-7.5-7.5-7.5z"/>
        <path d="m443.691 63.441h-3.159c-4.142 0-7.5 3.358-7.5 7.5s3.358 7.5 7.5 7.5h3.159c4.142 0 7.5-3.358 7.5-7.5s-3.358-7.5-7.5-7.5z"/>
        <path d="m135.699 48.958h73.708c4.142 0 7.5-3.358 7.5-7.5s-3.358-7.5-7.5-7.5h-73.708c-4.142 0-7.5 3.358-7.5 7.5s3.358 7.5 7.5 7.5z"/>
        <path d="m262.055 63.441h-126.356c-4.142 0-7.5 3.358-7.5 7.5s3.358 7.5 7.5 7.5h126.356c4.142 0 7.5-3.358 7.5-7.5s-3.358-7.5-7.5-7.5z"/>
        <path d="m85.156 31.852c-13.425 0-24.348 10.922-24.348 24.348s10.922 24.348 24.348 24.348 24.348-10.922 24.348-24.348-10.922-24.348-24.348-24.348zm0 33.695c-5.154 0-9.348-4.193-9.348-9.348s4.193-9.348 9.348-9.348 9.348 4.193 9.348 9.348-4.193 9.348-9.348 9.348z"/>
        <path d="m462.123 0h-412.246c-12.407 0-22.5 10.093-22.5 22.5v67.399c0 12.407 10.093 22.5 22.5 22.5h412.246c12.407 0 22.5-10.093 22.5-22.5v-67.399c0-12.407-10.093-22.5-22.5-22.5zm7.5 89.899c0 4.136-3.364 7.5-7.5 7.5h-412.246c-4.136 0-7.5-3.364-7.5-7.5v-67.399c0-4.136 3.364-7.5 7.5-7.5h412.246c4.136 0 7.5 3.364 7.5 7.5z"/>
        <path d="m207.541 270.248c.056.005.113.008.169.013.616.051 1.238.084 1.867.084h92.846c.629 0 1.25-.033 1.866-.083.057-.005.114-.008.171-.013 11.455-1.033 20.463-10.684 20.463-22.404v-92.846c0-12.407-10.093-22.5-22.5-22.5h-92.846c-12.407 0-22.5 10.093-22.5 22.5v92.846c0 11.719 9.009 21.37 20.464 22.403zm8.959-14.904c8.928-12.678 23.521-20.448 39.5-20.448s30.572 7.77 39.5 20.448zm39.5-35.448c-11.964 0-21.698-9.733-21.698-21.698s9.734-21.698 21.698-21.698 21.698 9.734 21.698 21.698-9.734 21.698-21.698 21.698zm-53.923-64.898c0-4.136 3.364-7.5 7.5-7.5h92.846c4.136 0 7.5 3.364 7.5 7.5v92.846c0 .618-.083 1.216-.225 1.791-6.898-11.055-16.938-19.59-28.681-24.622 7.18-6.703 11.682-16.241 11.682-26.815 0-20.235-16.463-36.698-36.698-36.698s-36.698 16.463-36.698 36.698c0 10.574 4.501 20.112 11.682 26.815-11.743 5.032-21.783 13.567-28.681 24.622-.142-.575-.225-1.173-.225-1.792v-92.845z"/>
        <path d="m49.877 270.344h92.846c12.407 0 22.5-10.093 22.5-22.5v-92.846c0-12.407-10.093-22.5-22.5-22.5h-92.846c-12.407 0-22.5 10.093-22.5 22.5v92.846c0 12.407 10.093 22.5 22.5 22.5zm100.346-115.346v92.846c0 4.136-3.364 7.5-7.5 7.5h-92.846c-4.136 0-7.5-3.364-7.5-7.5v-31.104c3.109.501 6.257.76 9.427.76 32.7 0 59.304-26.604 59.304-59.304 0-3.611-.326-7.185-.969-10.698h32.584c4.136 0 7.5 3.364 7.5 7.5zm-100.346-7.5h44.915c.867 3.486 1.315 7.065 1.315 10.698 0 24.429-19.875 44.304-44.304 44.304-3.182 0-6.336-.345-9.427-1.019v-46.483c.001-4.136 3.365-7.5 7.501-7.5z"/>
        <path d="m187.077 407.544c0 12.407 10.093 22.5 22.5 22.5h92.846c12.407 0 22.5-10.093 22.5-22.5v-92.846c0-12.407-10.093-22.5-22.5-22.5h-92.846c-12.407 0-22.5 10.093-22.5 22.5zm115.346 7.5h-92.846c-4.136 0-7.5-3.364-7.5-7.5v-13.792l28.648-29.999c.643-.672 1.409-.773 1.808-.773.4 0 1.166.101 1.809.773l31.25 32.724c1.415 1.482 3.375 2.32 5.424 2.32s4.009-.838 5.424-2.32l9.286-9.724c.643-.672 1.409-.773 1.808-.773.4 0 1.166.101 1.809.773l20.544 21.514c-.366 3.797-3.572 6.777-7.464 6.777zm0-107.846c4.136 0 7.5 3.364 7.5 7.5v16.361c-1.274.293-2.585.44-3.923.44-9.649 0-17.5-7.851-17.5-17.5 0-2.363.469-4.666 1.374-6.802h12.549zm-92.846 0h64.654c-.473 2.219-.731 4.493-.731 6.802 0 17.92 14.58 32.5 32.5 32.5 1.312 0 2.622-.083 3.923-.242v40.327l-9.734-10.193c-3.286-3.44-7.899-5.414-12.656-5.413-4.757 0-9.37 1.973-12.655 5.414l-3.862 4.044-25.827-27.044c-3.286-3.44-7.899-5.414-12.656-5.413-4.757 0-9.37 1.973-12.655 5.414l-17.801 18.64v-57.335c0-4.136 3.364-7.501 7.5-7.501z"/>
        <path d="m462.123 292.198h-92.846c-12.407 0-22.5 10.093-22.5 22.5v92.846c0 12.407 10.093 22.5 22.5 22.5h92.846c12.407 0 22.5-10.093 22.5-22.5v-92.846c0-12.406-10.093-22.5-22.5-22.5zm-100.346 115.346v-68.044h35.723v34.5c0 6.893 5.607 12.5 12.5 12.5h23.5v28.544h-64.223c-4.136 0-7.5-3.364-7.5-7.5zm107.846 0c0 4.136-3.364 7.5-7.5 7.5h-13.623v-31.044c0-6.893-5.607-12.5-12.5-12.5h-23.5v-34.5c0-6.893-5.607-12.5-12.5-12.5h-38.223v-9.802c0-4.136 3.364-7.5 7.5-7.5h92.846c4.136 0 7.5 3.364 7.5 7.5z"/>
        <path d="m462.123 132.498h-42.123c-4.142 0-7.5 3.358-7.5 7.5s3.358 7.5 7.5 7.5h42.123c4.136 0 7.5 3.364 7.5 7.5v8.249c-19.134 1.82-35.153 15.695-39.883 34.089-11.592-.418-22.891 3.635-31.55 11.161-5.961-2.754-12.461-4.191-19.094-4.191-5.985 0-11.864 1.188-17.32 3.431v-52.741c0-4.136 3.364-7.5 7.5-7.5h15.724c4.142 0 7.5-3.358 7.5-7.5s-3.358-7.5-7.5-7.5h-15.723c-12.407 0-22.5 10.093-22.5 22.5v92.846c0 12.407 10.093 22.5 22.5 22.5h92.846c12.407 0 22.5-10.093 22.5-22.5v-92.846c0-12.405-10.093-22.498-22.5-22.498zm0 122.846h-92.846c-4.136 0-7.5-3.364-7.5-7.5v-23.144c5.077-3.492 11.114-5.393 17.32-5.393 5.818 0 11.483 1.647 16.383 4.763 3.117 1.982 7.212 1.4 9.653-1.372 5.816-6.604 14.186-10.391 22.964-10.391 2.114 0 4.236.219 6.305.652 2.11.441 4.308-.047 6.033-1.34s2.811-3.266 2.979-5.415c1.125-14.35 12.284-25.873 26.209-27.861v69.5c0 4.137-3.364 7.501-7.5 7.501z"/>
        <path d="m49.877 430.044h92.846c12.407 0 22.5-10.093 22.5-22.5v-92.846c0-12.407-10.093-22.5-22.5-22.5h-44.723c-4.142 0-7.5 3.358-7.5 7.5s3.358 7.5 7.5 7.5h44.723c4.136 0 7.5 3.364 7.5 7.5v46.129c-1.315-.126-2.638-.195-3.969-.195-9.05 0-17.833 2.996-24.977 8.385-7.144-5.39-15.926-8.385-24.977-8.385s-17.833 2.996-24.977 8.385c-7.144-5.39-15.926-8.385-24.977-8.385-1.331 0-2.654.07-3.969.195v-46.129c0-4.136 3.364-7.5 7.5-7.5h13.123c4.142 0 7.5-3.358 7.5-7.5s-3.358-7.5-7.5-7.5h-13.123c-12.407 0-22.5 10.093-22.5 22.5v92.846c0 12.407 10.093 22.5 22.5 22.5zm-3.531-54.412c7.369 0 14.461 3.115 19.458 8.546 1.42 1.544 3.422 2.422 5.52 2.422s4.1-.878 5.52-2.422c4.997-5.431 12.088-8.546 19.458-8.546 7.369 0 14.46 3.115 19.457 8.546 1.42 1.544 3.422 2.422 5.52 2.422s4.1-.878 5.52-2.422c4.997-5.431 12.089-8.546 19.458-8.546 1.337 0 2.661.118 3.969.315v31.597c0 4.136-3.364 7.5-7.5 7.5h-92.849c-4.136 0-7.5-3.364-7.5-7.5v-31.597c1.309-.197 2.632-.315 3.969-.315z"/>
        <path d="m462.123 452.249h-76.123c-4.142 0-7.5 3.358-7.5 7.5s3.358 7.5 7.5 7.5h76.123c4.136 0 7.5 3.364 7.5 7.5v14.751c0 4.136-3.364 7.5-7.5 7.5h-412.246c-4.136 0-7.5-3.364-7.5-7.5v-14.751c0-4.136 3.364-7.5 7.5-7.5h301.123c4.142 0 7.5-3.358 7.5-7.5s-3.358-7.5-7.5-7.5h-301.123c-12.407 0-22.5 10.093-22.5 22.5v14.751c0 12.407 10.093 22.5 22.5 22.5h412.246c12.407 0 22.5-10.093 22.5-22.5v-14.751c0-12.407-10.093-22.5-22.5-22.5z"/>
    </g>
</svg>