<svg xmlns="http://www.w3.org/2000/svg" viewBox="0 0 60 60">
    <defs>
        <linearGradient id="grad1" x1="0%" y1="0%" x2="100%" y2="0%">
            <stop offset="0%" style="stop-color:#9B62FF;stop-opacity:1"/>
            <stop offset="100%" style="stop-color:#5B03FF;stop-opacity:1"/>
        </linearGradient>
    </defs>
    <g fill="url(#grad1)">
        <path d="M57,11H3a3,3,0,0,0-3,3V46a3,3,0,0,0,2,2.816V51a2,2,0,0,0,2,2H56a2,2,0,0,0,2-2V48.816A3,3,0,0,0,60,46V14A3,3,0,0,0,57,11ZM4,51V49H56v2Zm54-5a1,1,0,0,1-1,1H3a1,1,0,0,1-1-1V14a1,1,0,0,1,1-1H57a1,1,0,0,1,1,1Z"/>
        <path d="M23,15H7a3,3,0,0,0-3,3V42a3,3,0,0,0,3,3H23a3,3,0,0,0,3-3V18A3,3,0,0,0,23,15Zm1,27a1,1,0,0,1-1,1H7a1,1,0,0,1-1-1V18a1,1,0,0,1,1-1H23a1,1,0,0,1,1,1Z"/>
        <path d="M53,15H37a3,3,0,0,0-3,3V42a3,3,0,0,0,3,3H53a3,3,0,0,0,3-3V18A3,3,0,0,0,53,15Zm1,27a1,1,0,0,1-1,1H37a1,1,0,0,1-1-1V18a1,1,0,0,1,1-1H53a1,1,0,0,1,1,1Z"/>
        <path d="M30,31a1,1,0,0,0-1,1v1a1,1,0,0,0,2,0V32A1,1,0,0,0,30,31Z"/>
        <path d="M30,26a1,1,0,0,0-1,1v1a1,1,0,0,0,2,0V27A1,1,0,0,0,30,26Z"/>
        <path d="M12,25H10a2,2,0,0,0-2,2v6a2,2,0,0,0,2,2h2a2,2,0,0,0,2-2V27A2,2,0,0,0,12,25Zm-2,8V27h2l0,6Z"/>
        <path d="M20,25H17a1,1,0,0,0,0,2h3v2H18a2,2,0,0,0-2,2v2a2,2,0,0,0,2,2h3a1,1,0,0,0,0-2H18V31h2a2,2,0,0,0,2-2V27A2,2,0,0,0,20,25Z"/>
        <path d="M42,25H40a2,2,0,0,0-2,2v6a2,2,0,0,0,2,2h2a2,2,0,0,0,2-2V27A2,2,0,0,0,42,25Zm-2,8V27h2l0,6Z"/>
        <path d="M50,25H47a1,1,0,0,0,0,2h3v2H48a2,2,0,0,0-2,2v2a2,2,0,0,0,2,2h3a1,1,0,0,0,0-2H48V31h2a2,2,0,0,0,2-2V27A2,2,0,0,0,50,25Z"/>
    </g>
</svg>
