<svg enable-background="new 0 0 512 512" height="512" viewBox="0 0 512 512" width="512"
     xmlns="http://www.w3.org/2000/svg">
    <defs>
        <linearGradient id="grad1" x1="0%" y1="0%" x2="100%" y2="0%">
            <stop offset="0%" style="stop-color:#9B62FF;stop-opacity:1"/>
            <stop offset="100%" style="stop-color:#5B03FF;stop-opacity:1"/>
        </linearGradient>
    </defs>
    <g>
        <path fill="url(#grad1)"
              d="m504.5 440.549c-4.143 0-7.5 3.357-7.5 7.5v26.447c0 12.408-10.094 22.504-22.5 22.504h-378.632c-4.142 0-7.5 3.357-7.5 7.5s3.358 7.5 7.5 7.5h378.632c20.678 0 37.5-16.824 37.5-37.504v-26.447c0-4.143-3.357-7.5-7.5-7.5z"/>
        <path fill="url(#grad1)"
              d="m504.5 239.225c-13.082 0-19.982 5.778-25.527 10.422-4.799 4.019-8.266 6.922-15.896 6.922-7.631 0-11.098-2.903-15.896-6.922-5.545-4.644-12.445-10.422-25.526-10.422-13.08 0-19.98 5.779-25.524 10.422-3.28 2.747-5.939 4.971-9.73 6.105 1.378-7.648 2.1-15.522 2.1-23.562 0-73.061-59.439-132.5-132.5-132.5-21.706 0-43.239 5.365-62.271 15.517-3.655 1.949-5.038 6.492-3.088 10.146 1.951 3.655 6.495 5.038 10.147 3.088 16.868-8.996 35.96-13.751 55.213-13.751 64.79 0 117.5 52.71 117.5 117.5 0 7.685-.75 15.197-2.166 22.475-2.465-1.231-4.558-2.979-6.991-5.018-5.544-4.644-12.444-10.422-25.525-10.422-13.08 0-19.979 5.778-25.523 10.422-4.798 4.019-8.265 6.922-15.893 6.922s-11.095-2.903-15.893-6.922c-5.544-4.644-12.443-10.422-25.523-10.422-13.079 0-19.978 5.779-25.521 10.422-4.797 4.019-8.263 6.922-15.89 6.922-7.628 0-11.094-2.903-15.892-6.922-5.544-4.643-12.444-10.422-25.524-10.422s-19.98 5.778-25.524 10.422c-2.427 2.033-4.515 3.778-6.972 5.009-1.414-7.274-2.164-14.784-2.164-22.466 0-32.706 13.794-64.189 37.845-86.379 3.044-2.81 3.235-7.554.426-10.599-2.809-3.044-7.554-3.235-10.598-.427-27.119 25.021-42.673 60.523-42.673 97.404 0 8.042.722 15.918 2.101 23.569-3.802-1.132-6.464-3.36-9.75-6.112-5.544-4.644-12.444-10.422-25.524-10.422s-19.979 5.779-25.523 10.422c-4.797 4.019-8.264 6.922-15.891 6.922s-11.093-2.903-15.891-6.922c-5.544-4.643-12.443-10.422-25.522-10.422-4.142 0-7.5 3.357-7.5 7.5v227.771c-.001 20.681 16.821 37.505 37.499 37.505h26.182c4.142 0 7.5-3.357 7.5-7.5s-3.358-7.5-7.5-7.5h-26.182c-12.407 0-22.5-10.095-22.5-22.504v-218.995c3.11 1.222 5.51 3.232 8.391 5.646 5.544 4.643 12.443 10.422 25.522 10.422 13.08 0 19.979-5.779 25.523-10.422 4.797-4.019 8.264-6.922 15.891-6.922 7.628 0 11.095 2.903 15.893 6.922 5.211 4.365 11.622 9.729 23.235 10.358 16.788 53.924 67.168 93.185 126.546 93.185 59.377 0 109.758-39.26 126.546-93.185 11.601-.634 18.007-5.996 23.215-10.358 4.798-4.019 8.265-6.922 15.894-6.922 7.63 0 11.097 2.903 15.896 6.922 5.545 4.644 12.445 10.422 25.527 10.422 13.081 0 19.981-5.778 25.526-10.422 2.882-2.413 5.284-4.425 8.396-5.646v160.316c0 4.143 3.357 7.5 7.5 7.5s7.5-3.357 7.5-7.5v-169.092c-.001-4.143-3.358-7.5-7.501-7.5zm-248.5 110.464c-51.816 0-95.901-33.716-111.481-80.36 5.478-2.108 9.369-5.353 12.747-8.183 4.798-4.019 8.265-6.922 15.893-6.922s11.095 2.903 15.892 6.922c5.544 4.644 12.444 10.422 25.523 10.422s19.978-5.779 25.521-10.423c4.797-4.018 8.263-6.921 15.89-6.921 7.628 0 11.095 2.903 15.893 6.922 5.544 4.644 12.443 10.422 25.523 10.422s19.979-5.778 25.523-10.422c4.798-4.019 8.265-6.922 15.893-6.922 7.629 0 11.097 2.903 15.895 6.922 3.382 2.833 7.278 6.082 12.766 8.19-15.581 46.641-59.664 80.353-111.478 80.353z"/>
        <path fill="url(#grad1)"
              d="m256 461.712c4.143 0 7.5-3.357 7.5-7.5v-41.769l13.927 10.713c1.363 1.049 2.972 1.557 4.567 1.556 2.249 0 4.474-1.007 5.95-2.927 2.525-3.283 1.912-7.992-1.371-10.518l-26-20c-2.697-2.074-6.451-2.074-9.146 0l-26 20c-3.283 2.525-3.897 7.234-1.372 10.518 2.526 3.282 7.235 3.897 10.518 1.371l13.927-10.713v41.769c0 4.142 3.358 7.5 7.5 7.5z"/>
        <path fill="url(#grad1)"
              d="m155 461.712c4.142 0 7.5-3.357 7.5-7.5v-41.769l13.927 10.713c1.363 1.049 2.971 1.557 4.567 1.556 2.249 0 4.473-1.007 5.95-2.927 2.525-3.283 1.911-7.992-1.372-10.518l-26-20c-2.695-2.074-6.45-2.074-9.146 0l-26 20c-3.283 2.525-3.897 7.234-1.372 10.518 2.526 3.282 7.235 3.897 10.518 1.371l13.927-10.713v41.769c.001 4.142 3.359 7.5 7.501 7.5z"/>
        <path fill="url(#grad1)"
              d="m357 461.712c4.143 0 7.5-3.357 7.5-7.5v-41.769l13.927 10.713c1.363 1.049 2.972 1.557 4.567 1.556 2.249 0 4.474-1.007 5.95-2.927 2.525-3.283 1.912-7.992-1.371-10.518l-26-20c-2.697-2.074-6.449-2.074-9.146 0l-26 20c-3.283 2.525-3.896 7.234-1.371 10.518 2.524 3.283 7.233 3.898 10.518 1.371l13.927-10.713v41.769c-.001 4.142 3.356 7.5 7.499 7.5z"/>
        <path fill="url(#grad1)"
              d="m225.428 50.444 26 20c1.347 1.037 2.96 1.556 4.572 1.556 1.613 0 3.225-.519 4.573-1.556l26-20c3.283-2.525 3.896-7.234 1.371-10.518-2.523-3.282-7.231-3.897-10.518-1.371l-13.926 10.714v-41.769c0-4.143-3.357-7.5-7.5-7.5s-7.5 3.357-7.5 7.5v41.769l-13.927-10.713c-3.281-2.525-7.992-1.911-10.518 1.371-2.525 3.283-1.91 7.992 1.373 10.517z"/>
        <path fill="url(#grad1)"
              d="m326.427 50.444 26 20c1.348 1.037 2.961 1.556 4.573 1.556s3.225-.519 4.573-1.556l26-20c3.283-2.525 3.896-7.234 1.371-10.518-2.523-3.282-7.232-3.897-10.518-1.371l-13.926 10.714v-41.769c0-4.143-3.357-7.5-7.5-7.5s-7.5 3.357-7.5 7.5v41.769l-13.927-10.713c-3.285-2.528-7.994-1.912-10.518 1.371-2.525 3.283-1.911 7.992 1.372 10.517z"/>
        <path fill="url(#grad1)"
              d="m124.427 50.444 26 20c1.348 1.037 2.961 1.556 4.573 1.556s3.225-.519 4.573-1.556l26-20c3.283-2.525 3.897-7.234 1.372-10.518-2.526-3.283-7.235-3.897-10.518-1.371l-13.927 10.714v-41.769c0-4.143-3.358-7.5-7.5-7.5s-7.5 3.357-7.5 7.5v41.769l-13.927-10.713c-3.282-2.525-7.991-1.911-10.518 1.371-2.525 3.283-1.911 7.992 1.372 10.517z"/>
    </g>
</svg>