<svg enable-background="new 0 0 512 512" height="512" viewBox="0 0 512 512" width="512"
     xmlns="http://www.w3.org/2000/svg">
    <defs>
        <linearGradient id="grad1" x1="0%" y1="0%" x2="100%" y2="0%">
            <stop offset="0%" style="stop-color:#9B62FF;stop-opacity:1"/>
            <stop offset="100%" style="stop-color:#5B03FF;stop-opacity:1"/>
        </linearGradient>
    </defs>
    <g fill="url(#grad1)">
        <path d="m504.5 356.521c4.142 0 7.5-3.358 7.5-7.5v-294.021c0-17.92-14.58-32.5-32.5-32.5h-337.606c-4.142 0-7.5 3.358-7.5 7.5s3.358 7.5 7.5 7.5h337.606c9.649 0 17.5 7.851 17.5 17.5v61h-482v-61c0-9.649 7.851-17.5 17.5-17.5h74.458c4.142 0 7.5-3.358 7.5-7.5s-3.358-7.5-7.5-7.5h-74.458c-17.92 0-32.5 14.58-32.5 32.5v402c0 17.92 14.58 32.5 32.5 32.5h447c17.92 0 32.5-14.58 32.5-32.5v-72.873c0-4.142-3.358-7.5-7.5-7.5s-7.5 3.358-7.5 7.5v72.873c0 9.649-7.851 17.5-17.5 17.5h-447c-9.649 0-17.5-7.851-17.5-17.5v-326h482v218.021c0 4.143 3.358 7.5 7.5 7.5z"/>
        <path d="m42.245 78c0 12.407 10.093 22.5 22.5 22.5s22.5-10.093 22.5-22.5-10.093-22.5-22.5-22.5-22.5 10.093-22.5 22.5zm30 0c0 4.136-3.364 7.5-7.5 7.5s-7.5-3.364-7.5-7.5 3.364-7.5 7.5-7.5 7.5 3.364 7.5 7.5z"/>
        <path d="m102.245 78c0 12.407 10.093 22.5 22.5 22.5s22.5-10.093 22.5-22.5-10.093-22.5-22.5-22.5-22.5 10.093-22.5 22.5zm22.5-7.5c4.136 0 7.5 3.364 7.5 7.5s-3.364 7.5-7.5 7.5-7.5-3.364-7.5-7.5 3.364-7.5 7.5-7.5z"/>
        <path d="m207.245 78c0-12.407-10.093-22.5-22.5-22.5s-22.5 10.093-22.5 22.5 10.093 22.5 22.5 22.5 22.5-10.093 22.5-22.5zm-30 0c0-4.136 3.364-7.5 7.5-7.5s7.5 3.364 7.5 7.5-3.364 7.5-7.5 7.5-7.5-3.364-7.5-7.5z"/>
        <path d="m448.5 85.5h-41.415c-4.142 0-7.5 3.358-7.5 7.5s3.358 7.5 7.5 7.5h41.415c12.407 0 22.5-10.093 22.5-22.5s-10.093-22.5-22.5-22.5h-185c-12.407 0-22.5 10.093-22.5 22.5s10.093 22.5 22.5 22.5h108.564c4.142 0 7.5-3.358 7.5-7.5s-3.358-7.5-7.5-7.5h-108.564c-4.136 0-7.5-3.364-7.5-7.5s3.364-7.5 7.5-7.5h185c4.136 0 7.5 3.364 7.5 7.5s-3.364 7.5-7.5 7.5z"/>
        <path d="m122 326.521c-4.142 0-7.5 3.358-7.5 7.5v102.479c0 12.407 10.093 22.5 22.5 22.5h238c12.407 0 22.5-10.093 22.5-22.5v-268c0-12.407-10.093-22.5-22.5-22.5h-238c-12.407 0-22.5 10.093-22.5 22.5v130.67c0 4.142 3.358 7.5 7.5 7.5s7.5-3.358 7.5-7.5v-130.67c0-4.136 3.364-7.5 7.5-7.5h238c4.136 0 7.5 3.364 7.5 7.5v268c0 4.136-3.364 7.5-7.5 7.5h-238c-4.136 0-7.5-3.364-7.5-7.5v-102.479c0-4.142-3.358-7.5-7.5-7.5z"/>
        <path d="m325.5 191c4.142 0 7.5-3.358 7.5-7.5s-3.358-7.5-7.5-7.5h-27c-4.142 0-7.5 3.358-7.5 7.5s3.358 7.5 7.5 7.5z"/>
        <path d="m268.5 191c4.142 0 7.5-3.358 7.5-7.5s-3.358-7.5-7.5-7.5h-81c-4.142 0-7.5 3.358-7.5 7.5s3.358 7.5 7.5 7.5z"/>
        <path d="m144 213.5c0 4.142 3.358 7.5 7.5 7.5h60c4.142 0 7.5-3.358 7.5-7.5s-3.358-7.5-7.5-7.5h-60c-4.142 0-7.5 3.358-7.5 7.5z"/>
        <path d="m151.5 307h90c4.142 0 7.5-3.358 7.5-7.5s-3.358-7.5-7.5-7.5h-90c-4.142 0-7.5 3.358-7.5 7.5s3.358 7.5 7.5 7.5z"/>
        <path d="m144 264.5c0 6.893 5.607 12.5 12.5 12.5h199c6.893 0 12.5-5.607 12.5-12.5v-20c0-6.893-5.607-12.5-12.5-12.5h-199c-6.893 0-12.5 5.607-12.5 12.5zm15-17.5h194v15h-194z"/>
        <path d="m144 354.5c0 6.893 5.607 12.5 12.5 12.5h199c6.893 0 12.5-5.607 12.5-12.5v-20c0-6.893-5.607-12.5-12.5-12.5h-199c-6.893 0-12.5 5.607-12.5 12.5zm15-17.5h194v15h-194z"/>
        <path d="m218.5 382c-6.893 0-12.5 5.607-12.5 12.5v20c0 6.893 5.607 12.5 12.5 12.5h75c6.893 0 12.5-5.607 12.5-12.5v-20c0-6.893-5.607-12.5-12.5-12.5zm72.5 30h-70v-15h70z"/>
    </g>
</svg>