<svg height="512" viewBox="0 0 512 512" width="512" xmlns="http://www.w3.org/2000/svg">
    <defs>
        <linearGradient id="grad1" x1="0%" y1="0%" x2="100%" y2="0%">
            <stop offset="0%" style="stop-color:#9B62FF;stop-opacity:1"/>
            <stop offset="100%" style="stop-color:#5B03FF;stop-opacity:1"/>
        </linearGradient>
    </defs>
    <g fill="url(#grad1)">
        <circle cx="105" cy="113.5" r="10"/>
        <path d="m366 225h136c5.522 0 10-4.478 10-10v-205c0-5.522-4.478-10-10-10h-136c-5.522 0-10 4.478-10 10v33h-33c-27.57 0-50 21.93-50 49.5v68.5c0 16.542-13.458 30-30 30h-33v-77.5c0-2.63-1.07-4.96-2.931-6.82-1.859-1.86-4.439-2.68-7.069-2.68h-50c-5.521 0-10 4.49-10 10s4.479 10 10 10h40v265h-170v-265h40c5.51 0 10-4.49 10-10s-4.49-10-10-10h-50c-2.63 0-5.21.819-7.07 2.68s-2.93 4.179-2.93 6.82v285c0 2.63 1.069 5.46 2.93 7.319 1.86 1.861 4.44 3.181 7.07 3.181h190c2.63 0 5.21-1.32 7.069-3.181 1.86-1.859 2.931-4.689 2.931-7.319v-77.5h33c16.542 0 30 13.458 30 30v68.5c0 27.57 22.43 50.5 50 50.5h33v32c0 5.522 4.478 10 10 10h136c5.522 0 10-4.478 10-10v-205c0-5.522-4.478-10-10-10h-136c-5.522 0-10 4.478-10 10v153h-33c-16.542 0-30-13.958-30-30.5v-68.5c0-27.57-22.43-50-50-50h-33v-90h33c27.57 0 50-22.43 50-50v-68.5c0-16.542 13.458-29.5 30-29.5h33v152c0 5.522 4.478 10 10 10zm10-205h116v65h-116zm0 85h116v100h-116zm0 202h116v20h-116zm0 40h116v63h-116zm0 83h116v62h-116z"/>
        <path d="m160 341h-110c-5.522 0-10 4.478-10 10s4.478 10 10 10h110c5.522 0 10-4.478 10-10s-4.478-10-10-10z"/>
        <path d="m160 301h-110c-5.522 0-10 4.478-10 10s4.478 10 10 10h110c5.522 0 10-4.478 10-10s-4.478-10-10-10z"/>
    </g>
</svg>