<svg xmlns="http://www.w3.org/2000/svg" version="1.1" width="13" height="13"
     x="0" y="0" viewBox="0 0 512 512" style="enable-background:new 0 0 512 512" xml:space="preserve" class="">
   <g>
       <path fill="#0c0d0e"
             d="M512 256c0 141.387-114.613 256-256 256S0 397.387 0 256 114.613 0 256 0s256 114.613 256 256zm0 0"
             opacity="1"/>
       <path fill="#ffffff"
             d="M381.426 393.422H130.574a15 15 0 0 1-14.351-10.637L56.648 186.813a15.003 15.003 0 0 1 20.918-17.852l86.262 41.996 80.84-93.21c2.848-3.282 6.984-5.173 11.332-5.173s8.48 1.89 11.332 5.172l80.84 93.211 86.262-41.996a15.01 15.01 0 0 1 16.304 2.078 14.999 14.999 0 0 1 4.614 15.774l-59.575 195.972a15 15 0 0 1-14.351 10.637zm-239.73-30h228.609l46.343-152.434-65.695 31.98a14.999 14.999 0 0 1-17.898-3.66L256 150.469l-77.055 88.845a14.997 14.997 0 0 1-17.894 3.656l-65.696-31.98zm0 0"
             opacity="1"/>
    </g>
</svg>