<svg width="512" height="512" viewBox="0 0 512 512" fill="none" xmlns="http://www.w3.org/2000/svg">
<circle cx="256" cy="256" r="256" fill="url(#paint0_linear_1018_1458)"/>
<path d="M406.75 192.281C403.088 189.155 397.921 188.496 393.59 190.605L327.325 222.864L265.148 151.175C262.849 148.523 259.511 147 256 147C252.49 147 249.152 148.523 246.852 151.175L184.675 222.863L118.41 190.604C114.079 188.496 108.912 189.155 105.249 192.281C101.586 195.407 100.123 200.407 101.524 205.014L147.539 356.381C149.09 361.482 153.794 364.969 159.125 364.969H352.875C358.206 364.969 362.91 361.482 364.46 356.382L410.476 205.015C411.877 200.407 410.414 195.407 406.75 192.281ZM343.899 340.75H168.1L132.77 224.531L182.432 248.708C187.363 251.109 193.288 249.896 196.88 245.755L256 177.591L315.121 245.755C318.712 249.897 324.639 251.108 329.568 248.708L379.23 224.531L343.899 340.75Z" fill="white"/>
<defs>
<linearGradient id="paint0_linear_1018_1458" x1="-0.444417" y1="306" x2="628.222" y2="306" gradientUnits="userSpaceOnUse">
<stop stop-color="#4235E4"/>
<stop offset="1" stop-color="#750CCB"/>
</linearGradient>
</defs>
</svg>
