<svg height="512" width="512" viewBox="0 0 36 36" xmlns="http://www.w3.org/2000/svg">
    <defs>
        <linearGradient id="grad1" x1="0%" y1="0%" x2="100%" y2="0%">
            <stop offset="0%" style="stop-color:#9B62FF;stop-opacity:1"/>
            <stop offset="100%" style="stop-color:#5B03FF;stop-opacity:1"/>
        </linearGradient>
    </defs>
    <g fill="url(#grad1)">
        <path d="m28 8h-20c-1.65 0-3 1.35-3 3v14c0 1.65 1.35 3 3 3h20c1.65 0 3-1.35 3-3v-14c0-1.65-1.35-3-3-3zm-20 2h20c.55 0 1 .45 1 1v7.81l-3.46-4.45c-.37-.48-.93-.76-1.54-.77-.65-.02-1.17.24-1.56.7l-3.74 4.36-4.18-5.32c-.37-.46-.92-.74-1.52-.76-.59-.02-1.15.23-1.54.67l-4.46 5.02v-7.25c0-.55.45-1 1-1zm-1 15v-3.74l5.95-6.7 8.99 11.44h-13.94c-.55 0-1-.45-1-1zm21 1h-3.51l-4.52-5.75 4-4.66 5.04 6.48v2.94c0 .55-.45 1-1 1zm-25-17v18c0 .55-.45 1-1 1s-1-.45-1-1v-18c0-.55.45-1 1-1s1 .45 1 1zm32 0v18c0 .55-.45 1-1 1s-1-.45-1-1v-18c0-.55.45-1 1-1s1 .45 1 1z"/>
    </g>
</svg>