<svg height="512" width="512" viewBox="0 0 24 24" xmlns="http://www.w3.org/2000/svg">
    <defs>
        <linearGradient id="grad1" x1="0%" y1="0%" x2="100%" y2="0%">
            <stop offset="0%" style="stop-color:#9B62FF;stop-opacity:1"/>
            <stop offset="100%" style="stop-color:#5B03FF;stop-opacity:1"/>
        </linearGradient>
    </defs>
    <g fill="url(#grad1)">
        <path d="m9.5 24h-8c-.827 0-1.5-.673-1.5-1.5v-21c0-.827.673-1.5 1.5-1.5h8c.827 0 1.5.673 1.5 1.5v21c0 .827-.673 1.5-1.5 1.5zm-8-23c-.276 0-.5.225-.5.5v21c0 .275.224.5.5.5h8c.276 0 .5-.225.5-.5v-21c0-.275-.224-.5-.5-.5z"/>
        <path d="m10.5 20.62c-.047 0-.095-.007-.142-.021-1.461-.433-2.811-.967-4.116-1.484l-.835-.329c-1.657-.651-3.4-1.286-4.907-1.286-.276 0-.5-.224-.5-.5s.224-.5.5-.5c1.682 0 3.527.669 5.272 1.354l.839.331c1.284.51 2.612 1.036 4.03 1.455.265.078.416.356.338.621-.064.218-.263.359-.479.359z"/>
        <path d="m5.59 18.82c-.181 0-.355-.099-.444-.27-.127-.245-.032-.547.213-.674 1.21-.627 3.084-1.376 5.141-1.376.276 0 .5.224.5.5s-.224.5-.5.5c-1.855 0-3.569.688-4.68 1.264-.073.039-.152.056-.23.056z"/>
        <path d="m22.5 24h-8c-.827 0-1.5-.673-1.5-1.5v-8c0-.827.673-1.5 1.5-1.5h8c.827 0 1.5.673 1.5 1.5v8c0 .827-.673 1.5-1.5 1.5zm-8-10c-.276 0-.5.225-.5.5v8c0 .275.224.5.5.5h8c.276 0 .5-.225.5-.5v-8c0-.275-.224-.5-.5-.5z"/>
        <path d="m23.5 23.12h-.01c-.048 0-.096-.007-.142-.021-1.446-.428-2.777-.956-4.065-1.468l-.876-.346c-1.657-.65-3.4-1.285-4.907-1.285-.276 0-.5-.224-.5-.5s.224-.5.5-.5c1.682 0 3.527.669 5.272 1.354l.88.348c1.263.502 2.568 1.021 3.966 1.435.215.057.376.252.376.483.001.276-.218.5-.494.5z"/>
        <path d="m18.59 21.32c-.181 0-.355-.099-.444-.27-.127-.245-.032-.547.213-.674 1.21-.627 3.084-1.376 5.141-1.376.276 0 .5.224.5.5s-.224.5-.5.5c-1.855 0-3.569.688-4.68 1.264-.073.039-.152.056-.23.056z"/>
        <path d="m22.5 11h-8c-.827 0-1.5-.673-1.5-1.5v-8c0-.827.673-1.5 1.5-1.5h8c.827 0 1.5.673 1.5 1.5v8c0 .827-.673 1.5-1.5 1.5zm-8-10c-.276 0-.5.225-.5.5v8c0 .275.224.5.5.5h8c.276 0 .5-.225.5-.5v-8c0-.275-.224-.5-.5-.5z"/>
        <path d="m23.5 10.12h-.01c-.048 0-.096-.007-.142-.021-1.446-.428-2.777-.956-4.065-1.468l-.876-.346c-1.657-.65-3.4-1.285-4.907-1.285-.276 0-.5-.224-.5-.5s.224-.5.5-.5c1.682 0 3.527.669 5.272 1.354l.88.348c1.263.502 2.568 1.021 3.966 1.435.215.057.376.252.376.483.001.276-.218.5-.494.5z"/>
        <path d="m18.59 8.32c-.181 0-.355-.099-.444-.27-.127-.245-.032-.547.213-.674 1.21-.627 3.084-1.376 5.141-1.376.276 0 .5.224.5.5s-.224.5-.5.5c-1.855 0-3.569.688-4.68 1.264-.073.039-.152.056-.23.056z"/>
        <path d="m6.5 9h-3c-.827 0-1.5-.673-1.5-1.5 0-.745.546-1.365 1.259-1.48.34-.623 1.001-1.02 1.741-1.02s1.401.397 1.741 1.02c.713.115 1.259.735 1.259 1.48 0 .827-.673 1.5-1.5 1.5zm-3.066-2.015c-.21.015-.434.24-.434.515s.224.5.5.5h3c.276 0 .5-.225.5-.5s-.224-.5-.5-.5c-.127.041-.231.022-.35-.037-.119-.061-.175-.173-.216-.3-.128-.396-.503-.663-.934-.663s-.806.267-.935.663c-.04.127-.13.233-.248.292-.118.062-.256.072-.383.03z"/>
    </g>
</svg>