<svg height="512" viewBox="0 0 125 125" width="512" xmlns="http://www.w3.org/2000/svg">
    <defs>
        <linearGradient id="grad1" x1="0%" y1="0%" x2="100%" y2="0%">
            <stop offset="0%" style="stop-color:#9B62FF;stop-opacity:1"/>
            <stop offset="100%" style="stop-color:#5B03FF;stop-opacity:1"/>
        </linearGradient>
    </defs>
    <g>
    <path fill="url(#grad1)" d="m70.121 97.815h-57.348a11.7 11.7 0 0 1 -11.685-11.685v-60.972a11.7 11.7 0 0 1 11.685-11.684h85.8a11.7 11.7 0 0 1 11.687 11.684v33.776h-4v-33.776a7.693 7.693 0 0 0 -7.685-7.684h-85.8a7.694 7.694 0 0 0 -7.685 7.684v60.972a7.694 7.694 0 0 0 7.685 7.685h57.346z"/>
    <path fill="url(#grad1)" d="m64.195 78.541a8.872 8.872 0 0 1 -5.478-1.888 1.944 1.944 0 0 1 -.268-.253l-26.477-30.034a4.886 4.886 0 0 0 -5.389-.244l-22.025 23.852-2.939-2.714 22.205-24.045a2.021 2.021 0 0 1 .366-.312 8.881 8.881 0 0 1 10.382.415 2 2 0 0 1 .268.252l26.477 30.03a4.892 4.892 0 0 0 6.113-.284l13.964-12.302a8.911 8.911 0 0 1 11.283-.391l-2.431 3.177a4.9 4.9 0 0 0 -6.207.215l-13.964 12.306a8.884 8.884 0 0 1 -5.88 2.22z"/>
    <path fill="url(#grad1)" d="m63.789 50.689a11.719 11.719 0 1 1 11.718-11.718 11.731 11.731 0 0 1 -11.718 11.718zm0-19.437a7.719 7.719 0 1 0 7.718 7.719 7.727 7.727 0 0 0 -7.718-7.719z"/>
    <path fill="url(#grad1)" d="m100.439 111.526a23.473 23.473 0 1 1 23.473-23.472 23.5 23.5 0 0 1 -23.473 23.472zm0-42.945a19.473 19.473 0 1 0 19.473 19.473 19.495 19.495 0 0 0 -19.473-19.473z"/>
    <path fill="url(#grad1)" d="m88.034 86.054h24.81v4h-24.81z"/>
    <path fill="url(#grad1)" d="m98.439 75.648h4v24.81h-4z"/>
    </g>
</svg>