<svg enable-background="new 0 0 512.124 512.124" height="512" viewBox="0 0 512.124 512.124" width="512"
     xmlns="http://www.w3.org/2000/svg">
    <defs>
        <linearGradient id="grad1" x1="0%" y1="0%" x2="100%" y2="0%">
            <stop offset="0%" style="stop-color:#9B62FF;stop-opacity:1"/>
            <stop offset="100%" style="stop-color:#5B03FF;stop-opacity:1"/>
        </linearGradient>
    </defs>
    <g fill="url(#grad1)">
        <path d="m175.791 58.178h24.1c19.881-.738 19.866-29.269 0-30h-24.1c-19.88.738-19.865 29.27 0 30z"/>
        <path d="m199.891 453.946h-24.1c-19.881.738-19.866 29.269 0 30h24.1c19.881-.738 19.866-29.269 0-30z"/>
        <path d="m15.124 162.612c8.284 0 15-6.716 15-15v-24.1c-.738-19.881-29.269-19.866-30 0v24.1c0 8.284 6.716 15 15 15z"/>
        <path d="m15.124 323.279c8.284 0 15-6.716 15-15v-24.101c-.738-19.881-29.269-19.866-30 0v24.101c0 8.284 6.716 15 15 15z"/>
        <path d="m95.457 58.178h24.101c19.881-.738 19.866-29.269 0-30h-24.101c-19.88.738-19.865 29.27 0 30z"/>
        <path d="m119.558 453.946h-24.101c-19.881.738-19.866 29.269 0 30h24.101c19.881-.738 19.866-29.269 0-30z"/>
        <path d="m15.124 242.946c8.284 0 15-6.716 15-15v-24.101c-.738-19.881-29.269-19.866-30 0v24.101c0 8.284 6.716 15 15 15z"/>
        <path d="m15.124 403.612c8.284 0 15-6.716 15-15v-24.1c-.738-19.881-29.269-19.866-30 0v24.1c0 8.284 6.716 15 15 15z"/>
        <path d="m39.208 28.178c-35.486-1.269-54.363 51.51-24.084 54.094 8.284-.001 15-6.725 15-15.009 0-4.384 3.472-9.084 9.084-9.084h.016c19.882-.742 19.849-29.273-.016-30.001z"/>
        <path d="m39.208 453.946c-4.403 0-9.084-3.486-9.084-9.101 0-8.284-6.716-14.992-15-14.992-30.282 2.602-11.391 55.364 24.084 54.093h.016c19.882-.742 19.849-29.273-.016-30z"/>
        <path d="m473.025 28.178h-201.9v-13.116c-.738-19.881-29.269-19.866-30 0v196.328c-13.94 4.693-24.979 15.733-29.672 29.672h-47.648l22.594-22.594c5.858-5.857 5.858-15.355 0-21.213-5.857-5.857-15.355-5.857-21.213 0l-48.2 48.2c-5.858 5.857-5.858 15.355 0 21.213l48.2 48.2c5.857 5.857 15.355 5.857 21.213 0s5.858-15.355 0-21.213l-22.594-22.594h47.648c4.693 13.94 15.733 24.979 29.672 29.672v196.328c.738 19.881 29.269 19.866 30 0v-13.116h201.9c21.638 0 39.1-17.516 39.1-39.101v-377.565c-.001-21.594-17.473-39.101-39.1-39.101zm-216.901 245.018c-9.447 0-17.134-7.687-17.134-17.134.862-22.699 33.409-22.693 34.268 0 0 9.447-7.686 17.134-17.134 17.134zm226 171.649c0 5.004-4.049 9.101-9.1 9.101h-201.9v-153.212c13.94-4.693 24.979-15.733 29.672-29.672h47.648l-22.594 22.594c-5.858 5.857-5.858 15.355 0 21.213 5.857 5.857 15.355 5.857 21.213 0l48.2-48.2c5.858-5.857 5.858-15.355 0-21.213l-48.2-48.2c-5.857-5.857-15.355-5.857-21.213 0s-5.858 15.355 0 21.213l22.594 22.594h-47.648c-4.693-13.94-15.733-24.979-29.672-29.672v-153.213h201.9c5.022 0 9.1 4.07 9.1 9.101z"/>
    </g>
</svg>