<svg height="512" viewBox="0 0 400 400" width="512" xmlns="http://www.w3.org/2000/svg">
    <defs>
        <linearGradient id="grad1" x1="0%" y1="0%" x2="100%" y2="0%">
            <stop offset="0%" style="stop-color:#9B62FF;stop-opacity:1"/>
            <stop offset="100%" style="stop-color:#5B03FF;stop-opacity:1"/>
        </linearGradient>
    </defs>
    <g fill="url(#grad1)">
        <clipPath id="a">
            <path d="m0 0h400v400h-400z"/>
        </clipPath>
        <g clip-path="url(#a)">
            <path clip-rule="evenodd"
                  d="m101.217 0h197.566c55.9 0 101.217 45.3166 101.217 101.217v197.566c0 55.9-45.317 101.217-101.217 101.217h-197.566c-55.9007 0-101.217-45.317-101.217-101.217v-197.566c0-55.9004 45.3163-101.217 101.217-101.217zm88.028 178.078c20.507-39.474 45.966-88.4803 114.811-88.4803 2.597-.0027 5.17.5069 7.57 1.4997 2.4.9927 4.581 2.4491 6.417 4.2857 1.837 1.8366 3.293 4.0175 4.286 6.4179.993 2.4 1.502 4.972 1.5 7.57.002 2.597-.507 5.169-1.5 7.569s-2.449 4.581-4.286 6.418c-1.836 1.837-4.017 3.293-6.417 4.286-2.4.992-4.973 1.502-7.57 1.499-41.817 0-58.041 25.451-79.781 67.35l-13.405 25.248-.055.106c-20.494 39.487-45.961 88.557-114.8506 88.557-5.2441 0-10.2735-2.083-13.9816-5.791-3.7082-3.708-5.7913-8.737-5.7913-13.981 0-5.245 2.0831-10.274 5.7913-13.982 3.7081-3.708 8.7375-5.791 13.9816-5.791 41.8166 0 58.0406-25.451 79.8016-67.35l13.384-25.248z"
                  fill-rule="evenodd"/>
        </g>
    </g>
</svg>