<svg enable-background="new 0 0 512 512" viewBox="0 0 512 512" xmlns="http://www.w3.org/2000/svg" height="512"
     width="512">
    <defs>
        <linearGradient id="grad1" x1="0%" y1="0%" x2="100%" y2="0%">
            <stop offset="0%" style="stop-color:#9B62FF;stop-opacity:1"/>
            <stop offset="100%" style="stop-color:#5B03FF;stop-opacity:1"/>
        </linearGradient>
    </defs>
    <g fill="url(#grad1)">
        <path d="m486.5 38h-389.833c-4.142 0-7.5 3.358-7.5 7.5s3.358 7.5 7.5 7.5h389.833c5.79 0 10.5 4.71 10.5 10.5v64.5h-482v-64.5c0-5.79 4.71-10.5 10.5-10.5h34.833c4.142 0 7.5-3.358 7.5-7.5s-3.358-7.5-7.5-7.5h-34.833c-14.061 0-25.5 11.439-25.5 25.5v352c0 14.061 11.439 25.5 25.5 25.5h4.5v14.538c0 10.18 8.282 18.462 18.462 18.462h148.076c10.18 0 18.462-8.282 18.462-18.462v-14.538h22v15.5c0 9.649 7.851 17.5 17.5 17.5h156.5c4.143 0 7.5-3.358 7.5-7.5s-3.357-7.5-7.5-7.5h-156.5c-1.378 0-2.5-1.122-2.5-2.5v-100c0-1.378 1.122-2.5 2.5-2.5h210c1.379 0 2.5 1.122 2.5 2.5v100c0 1.378-1.121 2.5-2.5 2.5h-18.5c-4.143 0-7.5 3.358-7.5 7.5s3.357 7.5 7.5 7.5h18.5c9.649 0 17.5-7.851 17.5-17.5v-15.5h4.5c14.061 0 25.5-11.439 25.5-25.5v-352c0-14.061-11.439-25.5-25.5-25.5zm-286.5 417.538c0 1.909-1.553 3.462-3.462 3.462h-148.076c-1.909 0-3.462-1.553-3.462-3.462v-278.076c0-1.909 1.553-3.462 3.462-3.462h148.076c1.909 0 3.462 1.553 3.462 3.462zm286.5-29.538h-4.5v-69.5c0-9.649-7.851-17.5-17.5-17.5h-210c-9.649 0-17.5 7.851-17.5 17.5v69.5h-22v-248.538c0-10.18-8.282-18.462-18.462-18.462h-148.076c-10.18 0-18.462 8.282-18.462 18.462v248.538h-4.5c-5.79 0-10.5-4.71-10.5-10.5v-272.5h482v272.5c0 5.79-4.71 10.5-10.5 10.5z"/>
        <path d="m463.538 159h-208.076c-10.18 0-18.462 8.282-18.462 18.462v125.076c0 10.18 8.282 18.462 18.462 18.462h208.076c10.18 0 18.462-8.282 18.462-18.462v-125.076c0-10.18-8.282-18.462-18.462-18.462zm3.462 143.538c0 1.909-1.553 3.462-3.462 3.462h-208.076c-1.909 0-3.462-1.553-3.462-3.462v-125.076c0-1.909 1.553-3.462 3.462-3.462h208.076c1.909 0 3.462 1.553 3.462 3.462z"/>
        <path d="m440.5 202h-52c-6.341 0-11.5 5.159-11.5 11.5v52c0 6.341 5.159 11.5 11.5 11.5h52c6.341 0 11.5-5.159 11.5-11.5v-52c0-6.341-5.159-11.5-11.5-11.5zm-3.5 60h-45v-45h45z"/>
        <path d="m452 432.5v-52c0-6.341-5.159-11.5-11.5-11.5h-52c-6.341 0-11.5 5.159-11.5 11.5v52c0 6.341 5.159 11.5 11.5 11.5h52c6.341 0 11.5-5.159 11.5-11.5zm-15-3.5h-45v-45h45z"/>
        <path d="m173.094 369h-101.188c-6.565 0-11.906 5.341-11.906 11.906v51.188c0 6.565 5.341 11.906 11.906 11.906h101.188c6.565 0 11.906-5.341 11.906-11.906v-51.188c0-6.565-5.341-11.906-11.906-11.906zm-3.094 60h-95v-45h95z"/>
        <path d="m322.644 90.5c0-12.407-10.094-22.5-22.5-22.5s-22.5 10.093-22.5 22.5 10.094 22.5 22.5 22.5 22.5-10.093 22.5-22.5zm-30 0c0-4.136 3.364-7.5 7.5-7.5s7.5 3.364 7.5 7.5-3.364 7.5-7.5 7.5-7.5-3.364-7.5-7.5z"/>
        <path d="m385.144 90.5c0-12.407-10.094-22.5-22.5-22.5s-22.5 10.093-22.5 22.5 10.094 22.5 22.5 22.5 22.5-10.093 22.5-22.5zm-30 0c0-4.136 3.364-7.5 7.5-7.5s7.5 3.364 7.5 7.5-3.364 7.5-7.5 7.5-7.5-3.364-7.5-7.5z"/>
        <path d="m447.644 90.5c0-12.407-10.094-22.5-22.5-22.5s-22.5 10.093-22.5 22.5 10.094 22.5 22.5 22.5 22.5-10.093 22.5-22.5zm-30 0c0-4.136 3.364-7.5 7.5-7.5s7.5 3.364 7.5 7.5-3.364 7.5-7.5 7.5-7.5-3.364-7.5-7.5z"/>
        <path d="m282.667 217h42.064c4.143 0 7.5-3.358 7.5-7.5s-3.357-7.5-7.5-7.5h-42.064c-4.143 0-7.5 3.358-7.5 7.5s3.357 7.5 7.5 7.5z"/>
        <path d="m342.667 232h-60c-4.143 0-7.5 3.358-7.5 7.5s3.357 7.5 7.5 7.5h60c4.143 0 7.5-3.358 7.5-7.5s-3.357-7.5-7.5-7.5z"/>
        <path d="m342.667 262h-60c-4.143 0-7.5 3.358-7.5 7.5s3.357 7.5 7.5 7.5h60c4.143 0 7.5-3.358 7.5-7.5s-3.357-7.5-7.5-7.5z"/>
        <path d="m285.144 384h42.065c4.143 0 7.5-3.358 7.5-7.5s-3.357-7.5-7.5-7.5h-42.065c-4.143 0-7.5 3.358-7.5 7.5s3.357 7.5 7.5 7.5z"/>
        <path d="m345.144 399h-60c-4.143 0-7.5 3.358-7.5 7.5s3.357 7.5 7.5 7.5h60c4.143 0 7.5-3.358 7.5-7.5s-3.358-7.5-7.5-7.5z"/>
        <path d="m345.144 429h-60c-4.143 0-7.5 3.358-7.5 7.5s3.357 7.5 7.5 7.5h60c4.143 0 7.5-3.358 7.5-7.5s-3.358-7.5-7.5-7.5z"/>
        <path d="m73.587 217.5h68.584c4.142 0 7.5-3.358 7.5-7.5s-3.358-7.5-7.5-7.5h-68.584c-4.142 0-7.5 3.358-7.5 7.5s3.358 7.5 7.5 7.5z"/>
        <path d="m140.099 301.646c-4.142 0-7.5 3.358-7.5 7.5s3.358 7.5 7.5 7.5h28.727c4.142 0 7.5-3.358 7.5-7.5s-3.358-7.5-7.5-7.5z"/>
        <path d="m73.587 247.5h97.826c4.142 0 7.5-3.358 7.5-7.5s-3.358-7.5-7.5-7.5h-97.826c-4.142 0-7.5 3.358-7.5 7.5s3.358 7.5 7.5 7.5z"/>
        <path d="m73.587 277.5h97.826c4.142 0 7.5-3.358 7.5-7.5s-3.358-7.5-7.5-7.5h-97.826c-4.142 0-7.5 3.358-7.5 7.5s3.358 7.5 7.5 7.5z"/>
    </g>
</svg>