<svg enable-background="new 0 0 511.991 511.991" height="512" viewBox="0 0 511.991 511.991" width="512"
     xmlns="http://www.w3.org/2000/svg">
    <defs>
        <linearGradient id="grad1" x1="0%" y1="0%" x2="100%" y2="0%">
            <stop offset="0%" style="stop-color:#9B62FF;stop-opacity:1"/>
            <stop offset="100%" style="stop-color:#5B03FF;stop-opacity:1"/>
        </linearGradient>
    </defs>
    <g fill="url(#grad1)">
        <path d="m146.847 347.243h-119.509c-4.995 0-9.06 4.064-9.06 9.061v119.632c0 4.996 4.064 9.061 9.06 9.061h119.509c4.995 0 9.06-4.064 9.06-9.061v-32.036-5.051-82.545c0-4.997-4.065-9.061-9.06-9.061zm-5.94 15v58.234l-13.222-13.494c-.031-.031-.063-.063-.094-.094-4.229-4.167-8.396-4.937-11.151-4.854-2.645.081-6.554 1.028-10.229 5.052l-25.575 26.091-21.07-21.487c-.031-.031-.063-.063-.094-.094-4.064-4.001-8.083-4.736-10.743-4.661-2.555.079-6.328.99-9.867 4.858l-5.583 5.691v-55.243h107.628zm-107.628 76.661 15.985-16.294 25.919 26.433c.066.07.126.144.196.213.03.03.064.054.094.083l.594.606c.056.056.111.111.167.165l20.76 19.886h-63.715zm107.628 31.092h-22.227l-27.401-26.247 25.719-26.239c.01.009.019.018.027.026l23.882 24.373v1.989z"/>
        <path d="m314.319 347.243h-119.538c-4.995 0-9.059 4.064-9.059 9.061v119.632c0 4.996 4.063 9.061 9.059 9.061h119.538c4.995 0 9.059-4.064 9.059-9.061v-32.036-5.051-82.545c-.001-4.997-4.064-9.061-9.059-9.061zm-5.942 15v58.234l-13.221-13.493c-.031-.031-.063-.063-.094-.094-4.218-4.155-8.386-4.949-11.128-4.854-2.648.076-6.569 1.017-10.273 5.043l-25.556 26.098-21.068-21.485c-.031-.031-.063-.063-.094-.094-4.067-4.003-8.091-4.75-10.745-4.661-2.554.08-6.326.991-9.864 4.856l-5.612 5.713v-55.262h107.655zm-107.655 76.665 16.014-16.298 25.935 26.449c.062.065.118.135.183.198.028.028.059.051.087.078l.598.61c.056.056.11.111.167.165l20.759 19.886h-63.743zm107.655 31.088h-22.227l-27.402-26.25 25.707-26.25c.014.014.027.026.042.041l23.881 24.373v1.989 26.097z"/>
        <path d="m484.653 347.243h-119.537c-4.995 0-9.06 4.064-9.06 9.061v119.632c0 4.996 4.064 9.061 9.06 9.061h119.537c4.995 0 9.06-4.064 9.06-9.061v-32.036-5.051-82.545c-.001-4.997-4.065-9.061-9.06-9.061zm-5.941 15v58.234l-13.222-13.494c-.038-.038-.076-.076-.114-.113-4.241-4.147-8.397-4.913-11.142-4.834-2.638.081-6.543 1.024-10.238 5.043l-25.558 26.098-21.067-21.485c-.031-.031-.063-.063-.094-.094-4.054-3.991-8.059-4.747-10.719-4.661-2.558.072-6.342.977-9.909 4.848l-5.594 5.702v-55.243h107.657zm-107.656 76.661 15.999-16.309 25.934 26.448c.067.071.127.145.198.214.03.03.064.055.094.084l.592.604c.056.056.111.111.167.165l20.76 19.886h-63.744zm107.656 31.092h-22.227l-27.403-26.249 25.707-26.25c.018.017.035.034.054.052l23.87 24.361v1.989 26.097z"/>
        <path d="m179.571 68.262v12.344c0 4.143 3.357 7.5 7.5 7.5s7.5-3.357 7.5-7.5v-12.344c0-4.143-3.357-7.5-7.5-7.5s-7.5 3.358-7.5 7.5z"/>
        <path d="m128.697 77.125c-2.926 2.932-2.92 7.681.012 10.606l8.731 8.711c1.464 1.46 3.38 2.19 5.297 2.19 1.922 0 3.845-.734 5.31-2.203 2.926-2.932 2.92-7.681-.012-10.606l-8.731-8.711c-2.934-2.923-7.683-2.92-10.607.013z"/>
        <path d="m234.829 77.122-8.702 8.711c-2.928 2.931-2.926 7.68.005 10.606 1.465 1.463 3.383 2.194 5.301 2.194 1.921 0 3.842-.733 5.306-2.199l8.702-8.711c2.928-2.931 2.926-7.68-.005-10.606-2.933-2.928-7.682-2.925-10.607.005z"/>
        <path d="m90.125 301.349h331.712c7.777 0 14.104-6.331 14.104-14.112v-246.073c0-7.797-6.327-14.14-14.103-14.14l-143.094-.028c-.001 0-.002 0-.002 0-4.142 0-7.499 3.356-7.5 7.498-.001 4.143 3.356 7.501 7.498 7.502l142.2.028v111.328h-178.184c-3.675-27.496-27.238-48.777-55.685-48.777s-52.01 21.281-55.685 48.777h-40.365v-111.328l153.084-.028c4.143-.001 7.5-3.359 7.499-7.501-.001-4.143-3.359-7.5-7.501-7.499l-153.978.028c-7.777 0-14.104 6.343-14.104 14.14v246.073c0 7.781 6.327 14.112 14.104 14.112zm96.946-181.774c20.162 0 36.987 14.585 40.518 33.777h-81.035c3.529-19.192 20.355-33.777 40.517-33.777zm-96.05 146.276h63.196c4.143 0 7.5-3.357 7.5-7.5s-3.357-7.5-7.5-7.5h-63.196v-82.499h47.351 97.398 185.172v24.017h-173.72c-17.319 0-26.381 11.513-26.381 22.885 0 10.774 8.36 21.683 24.34 21.683h8.731c2.573 0 10.97.417 10.97 5.788 0 3.407-3.172 8.127-9.128 8.127h-66.897c-4.143 0-7.5 3.357-7.5 7.5s3.357 7.5 7.5 7.5h66.897c6.65 0 12.831-2.559 17.402-7.204 4.274-4.345 6.726-10.148 6.726-15.923 0-10.348-8.03-20.788-25.97-20.788h-8.731c-6.887 0-9.34-3.452-9.34-6.683 0-1.874.814-3.658 2.295-5.022 2.032-1.872 5.174-2.862 9.086-2.862h173.72v78.98h-329.921z"/>
        <path d="m31.732 212.788c1.917 0 3.833-.73 5.298-2.19 2.932-2.926 2.937-7.675.012-10.607l-18.951-18.993 18.95-18.991c2.926-2.933 2.921-7.682-.011-10.606-2.934-2.927-7.681-2.922-10.606.011l-24.217 24.268c-.003.003-.006.006-.009.009s-.006.007-.009.01l-.001.001c-.113.113-.205.217-.287.318-2.622 2.942-2.533 7.452.286 10.278l24.236 24.29c1.465 1.468 3.387 2.202 5.309 2.202z"/>
        <path d="m509.801 175.698-24.265-24.289c-2.928-2.93-7.677-2.933-10.606-.005-2.931 2.927-2.933 7.676-.005 10.606l18.969 18.988-18.969 18.989c-2.928 2.931-2.926 7.68.005 10.606 1.465 1.463 3.383 2.194 5.301 2.194 1.921 0 3.842-.733 5.306-2.199l24.265-24.29c.856-.857 1.212-1.321 1.228-1.629 1.606-2.855 1.202-6.538-1.229-8.971z"/>
    </g>
</svg>