<svg enable-background="new 0 0 512 512" height="512" viewBox="0 0 512 512" width="512"
     xmlns="http://www.w3.org/2000/svg">
    <defs>
        <linearGradient id="grad1" x1="0%" y1="0%" x2="100%" y2="0%">
            <stop offset="0%" style="stop-color:#9B62FF;stop-opacity:1"/>
            <stop offset="100%" style="stop-color:#5B03FF;stop-opacity:1"/>
        </linearGradient>
    </defs>
    <g fill="url(#grad1)">
            <circle cx="110.407" cy="136.429" r="7.379"/>
            <path d="m138.844 143.929h38.654c4.142 0 7.5-3.357 7.5-7.5s-3.358-7.5-7.5-7.5h-38.654c-4.142 0-7.5 3.357-7.5 7.5s3.358 7.5 7.5 7.5z"/>
            <circle cx="110.407" cy="163.988" r="7.379"/>
            <path d="m138.844 171.488h38.654c4.142 0 7.5-3.357 7.5-7.5s-3.358-7.5-7.5-7.5h-38.654c-4.142 0-7.5 3.357-7.5 7.5s3.358 7.5 7.5 7.5z"/>
            <ellipse cx="301.837" cy="253.845" rx="7.379" ry="7.379"
                     transform="matrix(.383 -.924 .924 .383 -48.193 435.564)"/>
            <path d="m330.273 261.345h110.721c4.142 0 7.5-3.357 7.5-7.5s-3.358-7.5-7.5-7.5h-110.721c-4.142 0-7.5 3.357-7.5 7.5s3.358 7.5 7.5 7.5z"/>
            <path d="m485.025 194.633h-249.715v-75.745c0-16.922-13.768-30.689-30.69-30.689h-88.71c-5.67 0-10.939-2.818-14.095-7.539l-20.019-29.938c-3.481-5.211-9.85-7.489-15.844-5.672-5.995 1.818-10.022 7.246-10.022 13.508v8.641h-22.84c-9.975 0-18.09-8.115-18.09-18.09v-5.7c0-9.975 8.115-18.09 18.09-18.09h413.04c9.98 0 18.1 8.115 18.1 18.09v5.7c0 9.975-8.12 18.09-18.1 18.09h-322.702c-4.142 0-7.5 3.357-7.5 7.5s3.358 7.5 7.5 7.5h322.702c18.251 0 33.1-14.844 33.1-33.09v-5.7c0-18.246-14.849-33.09-33.1-33.09h-413.04c-18.246 0-33.09 14.844-33.09 33.09v5.7c0 18.246 14.844 33.09 33.09 33.09h22.84v202.729c0 16.068 13.077 29.141 29.15 29.141h106.261c4.142 0 7.5-3.357 7.5-7.5s-3.358-7.5-7.5-7.5h-106.261c-7.802 0-14.15-6.344-14.15-14.141v-223.471l18.415 27.541c5.946 8.893 15.876 14.201 26.565 14.201h88.71c8.651 0 15.69 7.038 15.69 15.689v75.75h-42.571c-6.488 0-11.991 3.982-14.02 10.146-2.028 6.163.034 12.636 5.253 16.489l51.342 37.904v215.529c0 14.874 12.101 26.976 26.976 26.976h237.735c14.874 0 26.975-12.102 26.975-26.976v-253.097c0-14.874-12.101-26.976-26.975-26.976zm11.975 280.073c0 6.604-5.372 11.976-11.975 11.976h-237.735c-6.604 0-11.976-5.372-11.976-11.976v-219.318c-.038-2.051-.894-4.471-3.049-6.034l-53.792-39.716h69.627c.033 0 .064-.004.097-.005h236.828c6.603 0 11.975 5.372 11.975 11.976z"/>
            <ellipse cx="301.837" cy="443.898" rx="7.379" ry="7.379"
                     transform="matrix(.987 -.16 .16 .987 -67.207 54.081)"/>
            <path d="m440.994 436.398h-110.721c-4.142 0-7.5 3.357-7.5 7.5s3.358 7.5 7.5 7.5h110.721c4.142 0 7.5-3.357 7.5-7.5s-3.358-7.5-7.5-7.5z"/>
            <ellipse cx="301.837" cy="282.492" rx="7.379" ry="7.379"
                     transform="matrix(.973 -.23 .23 .973 -56.829 76.905)"/>
            <path d="m330.273 289.992h110.721c4.142 0 7.5-3.357 7.5-7.5s-3.358-7.5-7.5-7.5h-110.721c-4.142 0-7.5 3.357-7.5 7.5s3.358 7.5 7.5 7.5z"/>
            <ellipse cx="301.837" cy="311.138" rx="7.379" ry="7.379"
                     transform="matrix(.707 -.707 .707 .707 -131.602 304.561)"/>
            <path d="m330.273 318.638h110.721c4.142 0 7.5-3.357 7.5-7.5s-3.358-7.5-7.5-7.5h-110.721c-4.142 0-7.5 3.357-7.5 7.5s3.358 7.5 7.5 7.5z"/>
            <path d="m207.159 54.251c4.142 0 7.5-3.357 7.5-7.5s-3.358-7.5-7.5-7.5h-39.409c-4.142 0-7.5 3.357-7.5 7.5s3.358 7.5 7.5 7.5z"/>
            <path d="m311.476 54.251c4.142 0 7.5-3.357 7.5-7.5s-3.358-7.5-7.5-7.5h-39.409c-4.142 0-7.5 3.357-7.5 7.5s3.358 7.5 7.5 7.5z"/>
            <path d="m415.793 54.251c4.142 0 7.5-3.357 7.5-7.5s-3.358-7.5-7.5-7.5h-39.409c-4.142 0-7.5 3.357-7.5 7.5s3.358 7.5 7.5 7.5z"/>
            <path d="m443.318 347h-9.969c-4.142 0-7.5 3.357-7.5 7.5s3.358 7.5 7.5 7.5h9.969c9.078 0 16.463 7.386 16.463 16.464v5.332c0 9.078-7.385 16.463-16.463 16.463h-155.156c-9.078 0-16.463-7.385-16.463-16.463v-5.332c0-9.078 7.385-16.464 16.463-16.464h109.843c4.142 0 7.5-3.357 7.5-7.5s-3.358-7.5-7.5-7.5h-109.843c-17.349 0-31.463 14.114-31.463 31.464v5.332c0 17.349 14.114 31.463 31.463 31.463h155.156c17.349 0 31.463-14.114 31.463-31.463v-5.332c0-17.35-14.114-31.464-31.463-31.464z"/>
            <path d="m350.998 373.629c-4.142 0-7.5 3.357-7.5 7.5s3.358 7.5 7.5 7.5h36.007c4.142 0 7.5-3.357 7.5-7.5s-3.358-7.5-7.5-7.5z"/>
            <path d="m101.725 248.058c2.345 2.163 6.713 3.401 10.606 0l18.399-18.399c2.929-2.93 2.929-7.678 0-10.607l-18.399-18.399c-2.929-2.928-7.678-2.928-10.606 0-2.929 2.93-2.929 7.678 0 10.607l13.096 13.096-13.096 13.096c-2.929 2.928-2.929 7.676 0 10.606z"/>
        </g>
</svg>