<svg height="512" viewBox="0 0 128 128" width="512"
     xmlns="http://www.w3.org/2000/svg">
    <defs>
        <linearGradient id="grad1" x1="0%" y1="0%" x2="100%" y2="0%">
            <stop offset="0%" style="stop-color:#9B62FF;stop-opacity:1"/>
            <stop offset="100%" style="stop-color:#5B03FF;stop-opacity:1"/>
        </linearGradient>
    </defs>
    <g fill="url(#grad1)">
        <path d="m122 8h-116a6 6 0 0 0 -6 6v84a6 6 0 0 0 6 6h56v12h-31a2 2 0 0 0 0 4h66a2 2 0 0 0 0-4h-31v-12h56a6 6 0 0 0 6-6v-84a6 6 0 0 0 -6-6zm-118 90v-84a2 2 0 0 1 2-2h40v88h-40a2 2 0 0 1 -2-2zm120 0a2 2 0 0 1 -2 2h-72v-88h72a2 2 0 0 1 2 2z"/>
        <path d="m14 64a6 6 0 1 0 6 6 6 6 0 0 0 -6-6zm0 8a2 2 0 1 1 2-2 2 2 0 0 1 -2 2z"/>
        <path d="m40 68h-14a2 2 0 0 0 0 4h14a2 2 0 0 0 0-4z"/>
        <path d="m14 80a6 6 0 1 0 6 6 6 6 0 0 0 -6-6zm0 8a2 2 0 1 1 2-2 2 2 0 0 1 -2 2z"/>
        <path d="m40 84h-14a2 2 0 0 0 0 4h14a2 2 0 0 0 0-4z"/>
        <path d="m14 48a6 6 0 1 0 6 6 6 6 0 0 0 -6-6zm0 8a2 2 0 1 1 2-2 2 2 0 0 1 -2 2z"/>
        <path d="m40 52h-14a2 2 0 0 0 0 4h14a2 2 0 0 0 0-4z"/>
        <path d="m10 42h30a2 2 0 0 0 0-4h-30a2 2 0 0 0 0 4z"/>
        <path d="m16 32a8 8 0 1 0 -8-8 8 8 0 0 0 8 8zm0-12a4 4 0 1 1 -4 4 4 4 0 0 1 4-4z"/>
    </g>
</svg>