<svg enable-background="new 0 0 511.552 511.552" height="512" viewBox="0 0 511.552 511.552" width="512"
     xmlns="http://www.w3.org/2000/svg">
    <defs>
        <linearGradient id="grad1" x1="0%" y1="0%" x2="100%" y2="0%">
            <stop offset="0%" style="stop-color:#9B62FF;stop-opacity:1"/>
            <stop offset="100%" style="stop-color:#5B03FF;stop-opacity:1"/>
        </linearGradient>
    </defs>
    <g fill="url(#grad1)">
            <path d="m83.308 43.357h39.804c4.143 0 7.5-3.357 7.5-7.5s-3.357-7.5-7.5-7.5h-39.804c-4.143 0-7.5 3.357-7.5 7.5s3.357 7.5 7.5 7.5z"/>
            <path d="m401.796 45.584c1.005-23.031-21.289-46.583-45.584-45.552h-282.752c-10.81-.371-22.951 4.305-31.803 13.012-8.876 8.811-13.895 20.681-13.771 32.488v272.979c0 4.143 3.357 7.5 7.5 7.5h351.409v138.361c0 17.744-14.432 32.18-32.17 32.18h-279.558c-17.744 0-32.18-14.436-32.18-32.18v-109.622c0-4.143-3.357-7.5-7.5-7.5s-7.5 3.357-7.5 7.5v109.623c0 26.015 21.165 47.18 47.18 47.18h279.56c26.01 0 47.17-21.165 47.17-47.18v-418.789zm-358.909 148.427v-123.528h343.909v123.528zm313.42-178.978c.066 0 .133-.001.199-.003 7.505-.181 16.256 3.482 22.421 10.145 1.889 1.911 6.213 8.301 7.055 13.044.346 6.91.55 12.882.667 17.264h-343.762v-10.028c-.081-7.743 3.409-15.88 9.338-21.765 5.766-5.723 13.266-8.784 21.038-8.658.045.001.089.001.134.001zm-313.42 295.978v-102h138.373l-41.157 102zm113.391 0 41.157-102h189.361v102z"/>
            <circle cx="349.279" cy="36.27" r="7.397"/>
            <path d="m291.135 239.021c4.152 0 7.518-3.366 7.518-7.518s-3.366-7.518-7.518-7.518-7.518 3.366-7.518 7.518c-.001 4.152 3.366 7.518 7.518 7.518z"/>
            <path d="m239.826 239.002h16.309c4.143 0 7.5-3.357 7.5-7.5s-3.357-7.5-7.5-7.5h-16.309c-4.143 0-7.5 3.357-7.5 7.5s3.358 7.5 7.5 7.5z"/>
            <path d="m348.973 224.002h-23.74c-4.143 0-7.5 3.357-7.5 7.5s3.357 7.5 7.5 7.5h23.74c4.143 0 7.5-3.357 7.5-7.5s-3.357-7.5-7.5-7.5z"/>
            <path d="m232.395 259.748c0 4.152 3.366 7.518 7.518 7.518s7.518-3.366 7.518-7.518-3.366-7.518-7.518-7.518c-4.152-.001-7.518 3.365-7.518 7.518z"/>
            <path d="m348.973 252.248h-74.06c-4.143 0-7.5 3.357-7.5 7.5s3.357 7.5 7.5 7.5h74.06c4.143 0 7.5-3.357 7.5-7.5s-3.357-7.5-7.5-7.5z"/>
            <path d="m348.973 280.493h-109.147c-4.143 0-7.5 3.357-7.5 7.5s3.357 7.5 7.5 7.5h109.146c4.143 0 7.5-3.357 7.5-7.5s-3.356-7.5-7.499-7.5z"/>
            <path d="m330.407 84.996h-231.5c-14.585 0-26.45 11.866-26.45 26.451v37.77c0 14.585 11.865 26.451 26.45 26.451h173.515c4.143 0 7.5-3.357 7.5-7.5s-3.357-7.5-7.5-7.5h-173.515c-6.313 0-11.45-5.137-11.45-11.451v-37.77c0-6.314 5.137-11.451 11.45-11.451h231.499c6.313 0 11.45 5.137 11.45 11.451v37.77c0 6.314-5.137 11.451-11.45 11.451h-21.464c-4.143 0-7.5 3.357-7.5 7.5s3.357 7.5 7.5 7.5h21.464c14.585 0 26.45-11.866 26.45-26.451v-37.77c.001-14.585-11.865-26.451-26.449-26.451z"/>
            <path d="m98.907 440.117h29.693c14.585 0 26.451-11.866 26.451-26.451v-42.51c0-14.585-11.866-26.45-26.451-26.45h-29.693c-14.585 0-26.45 11.865-26.45 26.45v42.51c0 14.584 11.866 26.451 26.45 26.451zm-11.45-68.961c0-6.313 5.137-11.45 11.45-11.45h29.693c6.314 0 11.451 5.137 11.451 11.45v42.51c0 6.314-5.137 11.451-11.451 11.451h-29.693c-6.313 0-11.45-5.137-11.45-11.451z"/>
            <path d="m256.115 413.666v-42.51c0-14.585-11.866-26.45-26.451-26.45h-29.692c-14.585 0-26.451 11.865-26.451 26.45v42.51c0 14.585 11.866 26.451 26.451 26.451h29.692c14.584 0 26.451-11.867 26.451-26.451zm-15 0c0 6.314-5.137 11.451-11.451 11.451h-29.692c-6.314 0-11.451-5.137-11.451-11.451v-42.51c0-6.313 5.137-11.45 11.451-11.45h29.692c6.314 0 11.451 5.137 11.451 11.45z"/>
            <path d="m329.327 440.117c14.585 0 26.451-11.866 26.451-26.451v-42.51c0-14.585-11.866-26.45-26.451-26.45h-29.692c-14.585 0-26.451 11.865-26.451 26.45v42.51c0 14.585 11.866 26.451 26.451 26.451zm-41.143-26.451v-42.51c0-6.313 5.137-11.45 11.451-11.45h29.692c6.314 0 11.451 5.137 11.451 11.45v42.51c0 6.314-5.137 11.451-11.451 11.451h-29.692c-6.314 0-11.451-5.137-11.451-11.451z"/>
            <path d="m444.861 31.762 5.259-5.259v209.785c-8.772 3.1-15.076 11.471-15.076 21.291 0 12.448 10.128 22.576 22.576 22.576 12.449 0 22.577-10.128 22.577-22.576 0-9.821-6.304-18.192-15.077-21.292v-210.27l5.744 5.745c2.345 2.163 6.713 3.402 10.606.001 2.93-2.929 2.93-7.678.001-10.606l-18.305-18.307c-2.749-2.601-8.153-3.433-11.841 1.233l-17.072 17.072c-2.929 2.93-2.929 7.678 0 10.607 2.93 2.928 7.678 2.928 10.608 0zm12.758 233.394c-4.178 0-7.576-3.398-7.576-7.576s3.398-7.577 7.576-7.577 7.577 3.399 7.577 7.577-3.399 7.576-7.577 7.576z"/>
            <path d="m481.471 480.444c-2.93-2.928-7.678-2.928-10.607 0l-5.744 5.745v-177.995c0-4.143-3.357-7.5-7.5-7.5s-7.5 3.357-7.5 7.5v177.509l-5.26-5.259c-2.928-2.928-7.677-2.929-10.606.001-2.929 2.929-2.929 7.678.001 10.606l17.07 17.069c1.825 2.747 7.403 5.233 11.843 1.236l18.305-18.305c2.927-2.929 2.927-7.677-.002-10.607z"/>
            <path d="m227.071 455.25-11.254 11.255-11.253-11.254c-2.929-2.929-7.678-2.93-10.606-.001-2.93 2.929-2.93 7.678-.001 10.606l16.557 16.558c2.237 2.13 6.825 3.395 10.607.001l16.558-16.558c2.929-2.93 2.929-7.678 0-10.607-2.931-2.927-7.679-2.927-10.608 0z"/>
    </g>
</svg>