<svg enable-background="new 0 0 511.84 511.84" height="512" viewBox="0 0 511.84 511.84" width="512"
     xmlns="http://www.w3.org/2000/svg">
    <defs>
        <linearGradient id="grad1" x1="0%" y1="0%" x2="100%" y2="0%">
            <stop offset="0%" style="stop-color:#9B62FF;stop-opacity:1"/>
            <stop offset="100%" style="stop-color:#5B03FF;stop-opacity:1"/>
        </linearGradient>
    </defs>
    <g fill="url(#grad1)">
        <path d="m492.34 45.13h-472.84c-10.752 0-19.5 8.748-19.5 19.5v67.7c0 4.143 3.357 7.5 7.5 7.5s7.5-3.357 7.5-7.5v-13.842h481.84v144.332c0 2.481-2.019 4.5-4.5 4.5h-34.22v-37.42c0-10.752-8.748-19.5-19.5-19.5h-138.852l-33.889-58.698c-2.047-3.546-5.863-5.75-9.959-5.75s-7.912 2.204-9.959 5.75l-33.889 58.698h-138.852c-10.752 0-19.5 8.748-19.5 19.5v37.42h-34.22c-2.481 0-4.5-2.019-4.5-4.5v-95.49c0-4.143-3.357-7.5-7.5-7.5s-7.5 3.357-7.5 7.5v95.49c0 10.752 8.748 19.5 19.5 19.5h34.22v100.45c0 10.752 8.748 19.5 19.5 19.5h138.856l33.885 58.689c2.047 3.546 5.863 5.75 9.959 5.75s7.912-2.204 9.959-5.75l33.885-58.689h83.977c4.143 0 7.5-3.357 7.5-7.5s-3.357-7.5-7.5-7.5h-75.54c1.153-3.163.893-6.727-.819-9.693-2.048-3.547-5.864-5.75-9.96-5.75h-83.004c-4.096 0-7.912 2.203-9.96 5.75-1.712 2.967-1.972 6.53-.819 9.693h-130.419c-2.481 0-4.5-2.019-4.5-4.5v-152.87c0-2.481 2.019-4.5 4.5-4.5h130.417c-1.15 3.161-.89 6.72.822 9.685 2.048 3.547 5.864 5.751 9.96 5.751h83.004c4.096 0 7.912-2.204 9.96-5.751 1.711-2.965 1.971-6.524.822-9.685h130.415c2.481 0 4.5 2.019 4.5 4.5v152.87c0 2.481-2.019 4.5-4.5 4.5h-19.88c-4.143 0-7.5 3.357-7.5 7.5s3.357 7.5 7.5 7.5h19.88c10.752 0 19.5-8.748 19.5-19.5v-100.45h34.22c10.752 0 19.5-8.748 19.5-19.5v-198.19c0-10.752-8.748-19.5-19.5-19.5zm-200.981 341.697-35.439 61.383-35.439-61.383zm-70.879-160.991 35.439-61.384 35.439 61.384zm-205.48-122.348v-38.858c0-2.481 2.019-4.5 4.5-4.5h472.84c2.481 0 4.5 2.019 4.5 4.5v38.858z"/>
        <path d="m313.36 74.31h-262.87c-4.143 0-7.5 3.357-7.5 7.5s3.357 7.5 7.5 7.5h262.87c4.143 0 7.5-3.357 7.5-7.5s-3.357-7.5-7.5-7.5z"/>
        <path d="m461.35 74.31h-3.392c-4.143 0-7.5 3.357-7.5 7.5s3.357 7.5 7.5 7.5h3.392c4.143 0 7.5-3.357 7.5-7.5s-3.358-7.5-7.5-7.5z"/>
        <path d="m432.958 74.31h-3.392c-4.143 0-7.5 3.357-7.5 7.5s3.357 7.5 7.5 7.5h3.392c4.143 0 7.5-3.357 7.5-7.5s-3.357-7.5-7.5-7.5z"/>
        <path d="m404.566 74.31h-3.391c-4.143 0-7.5 3.357-7.5 7.5s3.357 7.5 7.5 7.5h3.391c4.143 0 7.5-3.357 7.5-7.5s-3.357-7.5-7.5-7.5z"/>
        <path d="m194.095 250.396h-88.87c-6.341 0-11.5 5.159-11.5 11.5v88.869c0 6.341 5.159 11.5 11.5 11.5h88.87c6.341 0 11.5-5.159 11.5-11.5v-88.869c0-6.34-5.159-11.5-11.5-11.5zm-3.5 15v40.808l-9.667-7.146c-2.923-2.17-6.893-2.468-10.12-.757l-18.307 9.739-15.449-15.162c-2.838-2.742-7.137-3.45-10.733-1.745l-17.594 8.464v-34.202h81.87zm-81.87 81.87v-31.021l20.614-9.918 15.576 15.287c2.977 2.879 7.429 3.506 11.077 1.561l18.797-10 15.806 11.685v22.407h-81.87z"/>
        <path d="m314.398 265.396h96.222c4.143 0 7.5-3.357 7.5-7.5s-3.357-7.5-7.5-7.5h-96.222c-4.143 0-7.5 3.357-7.5 7.5s3.358 7.5 7.5 7.5z"/>
        <path d="m314.398 295.396h96.222c4.143 0 7.5-3.357 7.5-7.5s-3.357-7.5-7.5-7.5h-96.222c-4.143 0-7.5 3.357-7.5 7.5s3.358 7.5 7.5 7.5z"/>
        <path d="m418.12 317.896c0-4.143-3.357-7.5-7.5-7.5h-96.222c-4.143 0-7.5 3.357-7.5 7.5s3.357 7.5 7.5 7.5h96.222c4.143 0 7.5-3.357 7.5-7.5z"/>
        <path d="m314.398 340.396c-4.143 0-7.5 3.357-7.5 7.5s3.357 7.5 7.5 7.5h57.478c4.143 0 7.5-3.357 7.5-7.5s-3.357-7.5-7.5-7.5z"/>
    </g>
</svg>