<svg viewBox="0 0 100 100" xmlns="http://www.w3.org/2000/svg">
    <defs>
        <linearGradient id="grad1" x1="0%" y1="0%" x2="100%" y2="0%">
            <stop offset="0%" style="stop-color:#9B62FF;stop-opacity:1"/>
            <stop offset="100%" style="stop-color:#5B03FF;stop-opacity:1"/>
        </linearGradient>
    </defs>
    <g fill="url(#grad1)">
        <path d="m84.58 83.16-17.93-17.92a6.29 6.29 0 0 1 -1.41 1.41l18.12 18.12a6.34 6.34 0 0 1 1.22-1.61z"/>
        <path d="m45.46 87.28 12.45-20.28a5.92 5.92 0 0 1 -1.57-1.27l-12.66 20.63a5.89 5.89 0 0 1 1.78.92z"/>
        <path d="m88.73 43.74-22.09 12.83a6.83 6.83 0 0 1 .92 1.78l21.88-12.71a7 7 0 0 1 -.71-1.9z"/>
        <path d="m31.23 40.1-13.29-22.1a5.84 5.84 0 0 1 -1.75 1l13.26 22a3.88 3.88 0 0 1 1.78-.9z"/>
        <path d="m36.4 45.82a4.45 4.45 0 0 1 -1 1.76l19.47 11.33a7.38 7.38 0 0 1 .77-1.86z"/>
        <path d="m15.79 62.61a7.87 7.87 0 0 1 0 2l38.91-2.25a7.81 7.81 0 0 1 -.11-2z"/>
        <path d="m75.8 18.7-13.28 35.39a6.58 6.58 0 0 1 1.91.61l13.21-35.22a6.23 6.23 0 0 1 -1.84-.78z"/>
        <path d="m61 69a8 8 0 1 1 8-8 8 8 0 0 1 -8 8zm0-14a6 6 0 1 0 6 6 6 6 0 0 0 -6-6z"/>
        <path d="m79 21a8 8 0 1 1 8-8 8 8 0 0 1 -8 8zm0-14a6 6 0 1 0 6 6 6 6 0 0 0 -6-6z"/>
        <path d="m89 96a8 8 0 1 1 8-8 8 8 0 0 1 -8 8zm0-14a6 6 0 1 0 6 6 6 6 0 0 0 -6-6z"/>
        <path d="m9 72a8 8 0 1 1 8-8 8 8 0 0 1 -8 8zm0-14a6 6 0 1 0 6 6 6 6 0 0 0 -6-6z"/>
        <path d="m14.5 20a5.5 5.5 0 1 1 5.5-5.5 5.51 5.51 0 0 1 -5.5 5.5zm0-9a3.5 3.5 0 1 0 3.5 3.5 3.5 3.5 0 0 0 -3.5-3.5z"/>
        <path d="m92.5 48a5.5 5.5 0 1 1 5.5-5.5 5.51 5.51 0 0 1 -5.5 5.5zm0-9a3.5 3.5 0 1 0 3.5 3.5 3.5 3.5 0 0 0 -3.5-3.5z"/>
        <path d="m32.5 50a5.5 5.5 0 1 1 5.5-5.5 5.51 5.51 0 0 1 -5.5 5.5zm0-9a3.5 3.5 0 1 0 3.5 3.5 3.5 3.5 0 0 0 -3.5-3.5z"/>
        <path d="m42.5 96a5.5 5.5 0 1 1 5.5-5.5 5.51 5.51 0 0 1 -5.5 5.5zm0-9a3.5 3.5 0 1 0 3.5 3.5 3.5 3.5 0 0 0 -3.5-3.5z"/>
    </g>
</svg>