<svg enable-background="new 0 0 512 512" height="512" viewBox="0 0 512 512" width="512"
     xmlns="http://www.w3.org/2000/svg">
    <defs>
        <linearGradient id="grad1" x1="0%" y1="0%" x2="100%" y2="0%">
            <stop offset="0%" style="stop-color:#9B62FF;stop-opacity:1"/>
            <stop offset="100%" style="stop-color:#5B03FF;stop-opacity:1"/>
        </linearGradient>
    </defs>
    <g fill="url(#grad1)">
        <circle cx="256" cy="487.537" r="10.02"/>
        <path d="m486.951 110.904h-461.902c-13.812 0-25.049 11.154-25.049 24.864v336.819c0 13.768 11.237 24.97 25.049 24.97h186.038c5.534 0 10.02-4.486 10.02-10.02 0-5.533-4.486-10.02-10.02-10.02h-186.038c-2.716 0-5.01-2.258-5.01-4.931v-236.291h471.922v236.397c0 2.66-2.248 4.825-5.01 4.825h-186.038c-5.534 0-10.02 4.486-10.02 10.02 0 5.533 4.486 10.02 10.02 10.02h186.038c13.812 0 25.049-11.154 25.049-24.864v-336.925c0-13.71-11.237-24.864-25.049-24.864zm-466.912 105.352v-80.488c0-2.66 2.248-4.825 5.01-4.825h461.902c2.762 0 5.01 2.164 5.01 4.825v80.488z"/>
        <circle cx="71.336" cy="172.7" r="10.02"/>
        <circle cx="111.414" cy="172.7" r="10.02"/>
        <circle cx="151.492" cy="172.7" r="10.02"/>
        <path d="m256 67.148c5.534 0 10.02-4.486 10.02-10.02v-32.665c0-5.533-4.486-10.02-10.02-10.02s-10.02 4.486-10.02 10.02v32.665c0 5.533 4.486 10.02 10.02 10.02z"/>
        <path d="m127.389 84.28c1.856 3.214 5.224 5.012 8.686 5.012 1.7 0 3.423-.433 5-1.344 4.792-2.767 6.434-8.894 3.667-13.687l-16.333-28.29c-2.767-4.793-8.895-6.435-13.687-3.667-4.792 2.767-6.434 8.894-3.667 13.687z"/>
        <path d="m370.924 87.947c1.578.911 3.3 1.344 5 1.344 3.462 0 6.831-1.797 8.686-5.012l16.333-28.29c2.767-4.793 1.125-10.92-3.667-13.687-4.793-2.767-10.921-1.125-13.687 3.667l-16.333 28.29c-2.767 4.794-1.124 10.921 3.668 13.688z"/>
        <path d="m355.935 434.872c5.1-8.834 5.099-19.381 0-28.213l-75.501-130.773c-5.1-8.833-14.234-14.107-24.433-14.107s-19.334 5.274-24.433 14.107l-75.501 130.773c-5.1 8.833-5.1 19.38 0 28.213s14.234 14.107 24.434 14.107h151.003c10.197-.001 19.332-5.275 24.431-14.107zm-182.516-10.02c-.709-1.229-2.13-4.485 0-8.174l75.501-130.773c2.13-3.689 5.66-4.087 7.079-4.087s4.95.398 7.079 4.087l75.501 130.773c2.13 3.689.709 6.945 0 8.174s-2.819 4.087-7.079 4.087h-151.001c-4.26 0-6.37-2.858-7.08-4.087z"/>
        <path d="m256 393.774c-5.657 0-10.243 4.586-10.243 10.243s4.586 10.243 10.243 10.243 10.243-4.586 10.243-10.243-4.586-10.243-10.243-10.243z"/>
        <path d="m256 379.435c5.534 0 10.02-4.486 10.02-10.02v-41.175c0-5.533-4.486-10.02-10.02-10.02s-10.02 4.486-10.02 10.02v41.175c0 5.534 4.486 10.02 10.02 10.02z"/>
    </g>
</svg>