<svg enable-background="new 0 0 511.915 511.915" height="512" viewBox="0 0 511.915 511.915" width="512"
     xmlns="http://www.w3.org/2000/svg">
    <defs>
        <linearGradient id="grad1" x1="0%" y1="0%" x2="100%" y2="0%">
            <stop offset="0%" style="stop-color:#9B62FF;stop-opacity:1"/>
            <stop offset="100%" style="stop-color:#5B03FF;stop-opacity:1"/>
        </linearGradient>
    </defs>
    <g fill="url(#grad1)">
        <circle cx="387.82" cy="167.467" r="7.539"/>
        <path d="m369.249 313.798c0-4.143-3.357-7.5-7.5-7.5h-39.46c-4.143 0-7.5 3.357-7.5 7.5s3.357 7.5 7.5 7.5h39.46c4.143 0 7.5-3.357 7.5-7.5z"/>
        <path d="m334.038 334.348c-4.143 0-7.5 3.357-7.5 7.5s3.357 7.5 7.5 7.5h18.039c4.143 0 7.5-3.357 7.5-7.5s-3.357-7.5-7.5-7.5z"/>
        <path d="m388.92 131.635h-343.03c-25.095 0-45.511 20.416-45.511 45.511v232.907c0 26.02 21.168 47.188 47.188 47.188h28.215c4.143 0 7.5-3.357 7.5-7.5s-3.357-7.5-7.5-7.5h-28.215c-17.748 0-32.188-14.439-32.188-32.188v-207.954h404.052v207.954c0 17.748-14.439 32.188-32.188 32.188h-275.543c-4.143 0-7.5 3.357-7.5 7.5s3.357 7.5 7.5 7.5h275.544c26.02 0 47.188-21.168 47.188-47.188v-232.907c-.001-25.095-20.417-45.511-45.512-45.511zm-373.541 55.464v-9.953c0-16.823 13.688-30.511 30.511-30.511h343.03c16.823 0 30.511 13.688 30.511 30.511v9.953z"/>
        <path d="m84.689 159.967h-35.815c-4.143 0-7.5 3.357-7.5 7.5s3.357 7.5 7.5 7.5h35.814c4.143 0 7.5-3.357 7.5-7.5s-3.357-7.5-7.499-7.5z"/>
        <path d="m69.789 371.172h45.478c4.143 0 7.5-3.357 7.5-7.5s-3.357-7.5-7.5-7.5h-45.478c-4.143 0-7.5 3.357-7.5 7.5s3.358 7.5 7.5 7.5z"/>
        <path d="m111.089 391.722c0-4.143-3.357-7.5-7.5-7.5h-20.044c-4.143 0-7.5 3.357-7.5 7.5s3.357 7.5 7.5 7.5h20.044c4.143 0 7.5-3.358 7.5-7.5z"/>
        <path d="m119.377 334.368c14.585 0 26.451-11.866 26.451-26.451v-48.77c0-14.585-11.866-26.451-26.451-26.451h-53.698c-14.585 0-26.451 11.866-26.451 26.451v48.77c0 14.585 11.866 26.451 26.451 26.451zm-65.149-26.451v-48.77c0-6.314 5.137-11.451 11.451-11.451h53.698c6.314 0 11.451 5.137 11.451 11.451v48.77c0 6.314-5.137 11.451-11.451 11.451h-53.698c-6.314 0-11.451-5.136-11.451-11.451z"/>
        <path d="m162.858 344.884v48.771c0 14.585 11.865 26.451 26.45 26.451h53.699c14.585 0 26.451-11.866 26.451-26.451v-48.771c0-7.47-3.118-14.222-8.115-19.036 4.997-4.814 8.115-11.566 8.115-19.036v-48.771c0-14.585-11.866-26.451-26.451-26.451h-53.699c-14.585 0-26.45 11.866-26.45 26.451v48.771c0 7.47 3.118 14.222 8.114 19.036-4.997 4.814-8.114 11.566-8.114 19.036zm91.6 48.77c0 6.314-5.137 11.451-11.451 11.451h-53.699c-6.313 0-11.45-5.137-11.45-11.451v-48.771c0-6.313 5.137-11.45 11.45-11.45h53.699c6.314 0 11.451 5.137 11.451 11.45zm-76.6-135.613c0-6.314 5.137-11.451 11.45-11.451h53.699c6.314 0 11.451 5.137 11.451 11.451v48.771c0 6.313-5.137 11.45-11.451 11.45h-53.699c-6.313 0-11.45-5.137-11.45-11.45z"/>
        <path d="m387.82 359.617c4.143 0 7.5-3.357 7.5-7.5v-94.076c0-14.585-11.866-26.451-26.451-26.451h-53.699c-14.585 0-26.45 11.866-26.45 26.451v135.213c0 14.585 11.865 26.45 26.45 26.45h53.699c14.585 0 26.451-11.865 26.451-26.45v-6.025c0-4.143-3.357-7.5-7.5-7.5s-7.5 3.357-7.5 7.5v6.025c0 6.313-5.137 11.45-11.451 11.45h-53.699c-6.313 0-11.45-5.137-11.45-11.45v-135.213c0-6.314 5.137-11.451 11.45-11.451h53.699c6.314 0 11.451 5.137 11.451 11.451v94.076c0 4.143 3.357 7.5 7.5 7.5z"/>
        <path d="m265.479 88.222h138.24l-5.259 5.259c-2.929 2.93-2.929 7.678 0 10.607 2.346 2.163 6.712 3.401 10.607 0l17.072-17.072c2.755-1.796 5.216-7.484 1.233-11.841l-18.306-18.305c-2.928-2.928-7.677-2.929-10.606.001-2.929 2.929-2.929 7.678.001 10.606l5.745 5.744h-138.727c-4.143 0-7.5 3.357-7.5 7.5s3.357 7.501 7.5 7.501z"/>
        <path d="m3.347 87.018c6.67 4.637 17.908 24.825 27.675 17.071 2.93-2.929 2.93-7.678.001-10.606l-5.259-5.26h169.332c3.1 8.772 11.471 15.076 21.29 15.076 12.448 0 22.576-10.128 22.576-22.576 0-12.449-10.128-22.577-22.576-22.577-9.82 0-18.191 6.304-21.29 15.077h-169.818l5.745-5.744c2.929-2.93 2.929-7.678 0-10.607-2.93-2.928-7.678-2.928-10.607 0l-18.305 18.303c-2.612 2.796-3.423 8.151 1.236 11.843zm213.039-13.873c4.178 0 7.576 3.399 7.576 7.577s-3.398 7.576-7.576 7.576-7.576-3.398-7.576-7.576 3.398-7.577 7.576-7.577z"/>
        <path d="m499.111 426.132-5.744 5.745v-113.983c8.773-3.099 15.077-11.471 15.077-21.29 0-9.821-6.304-18.192-15.077-21.291v-118.314l5.744 5.745c2.93 2.928 7.678 2.928 10.607 0 2.929-2.93 2.929-7.678 0-10.607l-18.305-18.305c-2.798-2.612-8.151-3.423-11.843 1.236l-17.07 17.069c-2.93 2.929-2.93 7.678-.001 10.606 1.465 1.465 3.384 2.197 5.304 2.197 1.919 0 3.839-.732 5.303-2.196l5.26-5.259v117.828c-8.772 3.1-15.076 11.471-15.076 21.291s6.304 18.191 15.076 21.29v113.497l-5.26-5.259c-2.928-2.928-7.677-2.929-10.606.001-2.929 2.929-2.929 7.678.001 10.606l17.07 17.069c1.825 2.747 7.403 5.233 11.843 1.236l18.305-18.305c2.929-2.93 2.929-7.678 0-10.607-2.931-2.928-7.679-2.928-10.608 0zm-13.244-137.105c4.178 0 7.577 3.399 7.577 7.577s-3.399 7.576-7.577 7.576-7.576-3.398-7.576-7.576 3.398-7.577 7.576-7.577z"/>
    </g>
</svg>