<svg enable-background="new 0 0 512 512" height="512" viewBox="0 0 512 512" width="512"
     xmlns="http://www.w3.org/2000/svg">
    <defs>
        <linearGradient id="grad1" x1="0%" y1="0%" x2="100%" y2="0%">
            <stop offset="0%" style="stop-color:#9B62FF;stop-opacity:1"/>
            <stop offset="100%" style="stop-color:#5B03FF;stop-opacity:1"/>
        </linearGradient>
    </defs>
    <g fill="url(#grad1)">
        <path id="Path_395_" clip-rule="evenodd"
              d="m329.143 109.714h-146.286c-10.099 0-18.286 8.187-18.286 18.286v9.143h182.857v-9.143c.001-10.099-8.186-18.286-18.285-18.286z"
              fill-rule="evenodd"/>
        <path id="Shape_180_"
              d="m164.571 301.714h182.857v-146.285h-182.857zm82.286-117.175v-1.682c0-5.049 4.093-9.143 9.143-9.143 5.049 0 9.143 4.093 9.143 9.143v1.829c6.129 2.105 11.313 6.317 14.629 11.886 2.342 4.352.802 9.777-3.478 12.249s-9.749 1.096-12.349-3.107c-2.217-3.84-6.869-5.535-11.036-4.023s-6.65 5.797-5.889 10.164c.761 4.368 4.546 7.56 8.98 7.573 13.343-.025 24.76 9.577 27.021 22.728 2.261 13.15-5.292 26.014-17.878 30.447v1.682c0 5.049-4.093 9.143-9.143 9.143-5.049 0-9.143-4.093-9.143-9.143v-1.829c-6.129-2.105-11.313-6.317-14.629-11.886-2.342-4.352-.802-9.777 3.478-12.249 4.279-2.472 9.749-1.096 12.349 3.107 2.217 3.84 6.869 5.535 11.036 4.023 4.168-1.512 6.65-5.797 5.889-10.164-.761-4.368-4.546-7.56-8.98-7.573-13.343.025-24.76-9.577-27.021-22.728-2.261-13.15 5.293-26.014 17.878-30.447z"/>
        <path id="Shape_179_"
              d="m164.571 493.714c0 10.099 8.187 18.286 18.286 18.286h146.286c10.099 0 18.286-8.187 18.286-18.286v-173.714h-182.858zm91.429-146.285h64c5.049 0 9.143 4.093 9.143 9.143 0 5.049-4.093 9.143-9.143 9.143h-64c-5.049 0-9.143-4.093-9.143-9.143s4.094-9.143 9.143-9.143zm0 54.857h64c5.049 0 9.143 4.093 9.143 9.143s-4.093 9.143-9.143 9.143h-64c-5.049 0-9.143-4.093-9.143-9.143s4.094-9.143 9.143-9.143zm0 54.857h64c5.049 0 9.143 4.093 9.143 9.143s-4.093 9.143-9.143 9.143h-64c-5.049 0-9.143-4.093-9.143-9.143s4.094-9.143 9.143-9.143zm-70.464-107.036c3.57-3.569 9.358-3.569 12.928 0l2.679 2.679 11.822-11.822c3.587-3.465 9.29-3.415 12.817.111 3.527 3.527 3.576 9.229.111 12.817l-18.286 18.286c-3.57 3.569-9.358 3.569-12.928 0l-9.143-9.143c-3.569-3.57-3.569-9.357 0-12.928zm0 54.858c3.57-3.569 9.358-3.569 12.928 0l2.679 2.679 11.822-11.822c3.587-3.465 9.29-3.415 12.817.111 3.527 3.527 3.576 9.229.111 12.817l-18.286 18.286c-3.57 3.569-9.358 3.569-12.928 0l-9.143-9.143c-3.569-3.571-3.569-9.358 0-12.928zm0 54.857c3.57-3.569 9.358-3.569 12.928 0l2.679 2.679 11.822-11.822c3.587-3.465 9.29-3.415 12.817.111 3.527 3.527 3.576 9.229.111 12.817l-18.286 18.286c-3.57 3.569-9.358 3.569-12.928 0l-9.143-9.143c-3.569-3.571-3.569-9.358 0-12.928z"/>
        <path id="Shape_178_"
              d="m182.857 45.714h-182.857v146.286h146.286v-64c0-20.198 16.374-36.571 36.571-36.571zm-82.286 117.175v1.682c0 5.049-4.093 9.143-9.143 9.143s-9.143-4.093-9.143-9.143v-1.829c-6.129-2.105-11.313-6.317-14.629-11.886-2.342-4.352-.802-9.777 3.478-12.249s9.749-1.096 12.349 3.107c2.217 3.84 6.869 5.535 11.036 4.023 4.168-1.512 6.65-5.797 5.889-10.164-.761-4.368-4.546-7.56-8.98-7.573-13.343.025-24.76-9.577-27.021-22.728s5.293-26.014 17.879-30.447v-1.682c0-5.049 4.093-9.143 9.143-9.143s9.143 4.093 9.143 9.143v1.829c6.129 2.105 11.313 6.317 14.629 11.886 2.342 4.352.802 9.777-3.478 12.249-4.279 2.472-9.749 1.096-12.349-3.107-2.217-3.84-6.869-5.535-11.036-4.023-4.168 1.512-6.65 5.797-5.889 10.164.761 4.368 4.546 7.56 8.98 7.573 13.343-.025 24.76 9.577 27.021 22.728 2.26 13.15-5.293 26.014-17.879 30.447z"/>
        <path id="Shape_177_"
              d="m0 384c0 10.099 8.187 18.286 18.286 18.286h128v-36.571h-54.857c-5.049 0-9.143-4.093-9.143-9.143 0-5.049 4.093-9.143 9.143-9.143h54.857v-36.571h-54.857c-5.049 0-9.143-4.093-9.143-9.143 0-5.049 4.093-9.143 9.143-9.143h54.857v-36.572h-54.857c-5.049 0-9.143-4.093-9.143-9.143 0-5.049 4.093-9.143 9.143-9.143h54.857v-27.429h-146.286zm20.965-143.607c3.57-3.569 9.358-3.569 12.928 0l2.679 2.679 11.822-11.822c3.587-3.465 9.29-3.415 12.817.111 3.527 3.527 3.576 9.229.111 12.817l-18.286 18.286c-3.57 3.569-9.358 3.569-12.928 0l-9.143-9.143c-3.57-3.57-3.57-9.358 0-12.928zm0 54.857c3.57-3.569 9.358-3.569 12.928 0l2.679 2.679 11.822-11.822c3.587-3.465 9.29-3.415 12.817.111 3.527 3.527 3.576 9.229.111 12.817l-18.286 18.286c-3.57 3.569-9.358 3.569-12.928 0l-9.143-9.143c-3.57-3.57-3.57-9.357 0-12.928zm6.464 52.179h18.286c5.049 0 9.143 4.093 9.143 9.143 0 5.049-4.093 9.143-9.143 9.143h-18.286c-5.049 0-9.143-4.093-9.143-9.143s4.093-9.143 9.143-9.143z"/>
        <path id="Path_394_" clip-rule="evenodd"
              d="m493.714 0h-146.285c-10.099 0-18.286 8.187-18.286 18.286v9.143h182.857v-9.143c0-10.099-8.187-18.286-18.286-18.286z"
              fill-rule="evenodd"/>
        <path id="Shape_176_"
              d="m365.714 233.929 2.679-2.679c3.587-3.465 9.29-3.415 12.817.111 3.527 3.527 3.576 9.229.111 12.817l-15.607 15.607v32.786h9.143c5.049 0 9.143 4.093 9.143 9.143 0 5.049-4.093 9.143-9.143 9.143h-9.143v36.571h9.143c5.049 0 9.143 4.093 9.143 9.143 0 5.049-4.093 9.143-9.143 9.143h-9.143v36.571h128c10.099 0 18.286-8.187 18.286-18.286v-173.713h-146.286zm54.857 3.785h64c5.049 0 9.143 4.093 9.143 9.143 0 5.049-4.093 9.143-9.143 9.143h-64c-5.049 0-9.143-4.093-9.143-9.143.001-5.049 4.094-9.143 9.143-9.143zm0 54.857h64c5.049 0 9.143 4.093 9.143 9.143 0 5.049-4.093 9.143-9.143 9.143h-64c-5.049 0-9.143-4.093-9.143-9.143.001-5.049 4.094-9.143 9.143-9.143zm0 54.858h64c5.049 0 9.143 4.093 9.143 9.143 0 5.049-4.093 9.143-9.143 9.143h-64c-5.049 0-9.143-4.093-9.143-9.143.001-5.05 4.094-9.143 9.143-9.143z"/>
        <path id="Shape_175_"
              d="m329.143 91.429c20.198 0 36.571 16.374 36.571 36.571v64h146.286v-146.286h-182.857zm82.286-16.604v-1.682c0-5.049 4.093-9.143 9.143-9.143 5.049 0 9.143 4.093 9.143 9.143v1.829c6.13 2.105 11.314 6.316 14.629 11.886 2.342 4.352.802 9.777-3.478 12.249-4.279 2.472-9.749 1.096-12.349-3.107-2.217-3.84-6.869-5.535-11.036-4.023-4.168 1.512-6.65 5.797-5.889 10.164.761 4.368 4.546 7.56 8.98 7.573 13.343-.025 24.76 9.577 27.021 22.728s-5.292 26.014-17.878 30.447v1.682c0 5.049-4.093 9.143-9.143 9.143-5.049 0-9.143-4.093-9.143-9.143v-1.829c-6.129-2.105-11.313-6.317-14.629-11.886-2.342-4.352-.802-9.777 3.478-12.249 4.279-2.472 9.749-1.096 12.349 3.107 2.217 3.84 6.869 5.535 11.036 4.023 4.168-1.512 6.65-5.797 5.889-10.164-.761-4.368-4.546-7.56-8.98-7.573-13.343.025-24.76-9.577-27.021-22.728-2.261-13.15 5.292-26.014 17.878-30.447z"/>
        <path id="Path_393_" clip-rule="evenodd"
              d="m182.857 18.286c0-10.099-8.187-18.286-18.286-18.286h-146.285c-10.099 0-18.286 8.187-18.286 18.286v9.143h182.857z"
              fill-rule="evenodd"/>
    </g>
</svg>