<svg enable-background="new 0 0 511.738 511.738" height="512" viewBox="0 0 511.738 511.738" width="512"
     xmlns="http://www.w3.org/2000/svg">
    <defs>
        <linearGradient id="grad1" x1="0%" y1="0%" x2="100%" y2="0%">
            <stop offset="0%" style="stop-color:#9B62FF;stop-opacity:1"/>
            <stop offset="100%" style="stop-color:#5B03FF;stop-opacity:1"/>
        </linearGradient>
    </defs>
    <g fill="url(#grad1)">
        <path d="m397.228 315.36v-66.492c0-5.523-4.478-10-10-10s-10 4.477-10 10v66.489c-88.029 9.301-120.245 122.83-49.415 176.369h-281.079v-429.733h51.595v20.081c0 16.332 13.287 29.619 29.618 29.619h168.068c16.331 0 29.618-13.287 29.618-29.619v-20.081h51.595v98.909c.48 13.228 19.504 13.268 20 0v-108.909c0-5.523-4.478-10-10-10l-123.943-.003c-11.773-56.006-90.856-55.967-102.607 0l-123.944.003c-5.522 0-10 4.477-10 10v449.733c0 5.523 4.478 10 10 10 .019.04 350.465-.03 350.494.001 124.31-3.748 132.749-180.329 10-196.367zm-278.897-253.37h51.387c5.522 0 10-4.477 10-10 1.624-42.746 62.913-42.728 64.527 0 0 5.523 4.477 10 10 10h51.386v20.076c0 5.306-4.316 9.622-9.621 9.622h-168.057c-5.306 0-9.622-4.316-9.622-9.622zm268.91 429.736c-104.004-5.196-103.883-151.745.032-156.87 103.899 4.009 103.792 152.94-.032 156.87z"/>
        <path d="m323.635 151.559h-110.588c-13.254.492-13.244 19.513 0 20h110.588c13.254-.492 13.244-19.513 0-20z"/>
        <path d="m323.635 194.885h-110.588c-13.254.492-13.244 19.513 0 20h110.588c13.254-.492 13.244-19.513 0-20z"/>
        <path d="m333.635 277.357c0-5.523-4.478-10-10-10h-110.588c-13.254.492-13.244 19.513 0 20h110.588c5.522 0 10-4.477 10-10z"/>
        <path d="m303.989 320.682c0-5.523-4.478-10-10-10h-80.942c-13.254.492-13.244 19.513 0 20h80.942c5.523 0 10-4.477 10-10z"/>
        <path d="m172.3 152.982c0-5.523-4.478-10-10-10h-63.164c-5.522 0-10 4.477-10 10v61.165c0 5.523 4.478 10 10 10h63.164c5.522 0 10-4.477 10-10zm-20 51.164h-43.164v-41.165h43.164z"/>
        <path d="m172.3 268.438c0-5.523-4.478-10-10-10h-63.164c-5.522 0-10 4.477-10 10v61.164c0 5.523 4.478 10 10 10h63.164c5.522 0 10-4.477 10-10zm-20 51.164h-43.164v-41.164h43.164z"/>
        <path d="m162.3 374.393h-63.164c-5.522 0-10 4.477-10 10v60.164c0 5.523 4.478 10 10 10h63.164c5.522 0 10-4.477 10-10v-60.164c0-5.523-4.478-10-10-10zm-10 60.164h-43.164v-40.164h43.164z"/>
        <path d="m257.801 383.313h-44.754c-13.254.492-13.244 19.513 0 20h44.754c13.254-.492 13.244-19.513 0-20z"/>
        <path d="m257.801 426.638h-44.754c-13.254.492-13.244 19.513 0 20h44.754c13.254-.492 13.244-19.512 0-20z"/>
        <path d="m202.749 57.406c2.095 5.029 8.017 7.498 13.06 5.41 11.989-5.655 4.823-22.946-7.65-18.47-5.03 2.077-7.506 8.032-5.41 13.06z"/>
        <path d="m396.459 200.176c-2.097-5.03-8.017-7.497-13.06-5.41-11.988 5.656-4.823 22.946 7.65 18.47 5.053-2.086 7.475-8.018 5.41-13.06z"/>
        <path d="m398.63 403.543c-1.139-.403-2.253-.791-3.34-1.169-6.251-2.177-12.715-4.428-14.72-6.619-3.817-4.172-1.254-10.309 3.51-12.253 6.001-2.449 10.251 1.245 11.246 2.237 9.178 9.441 23.285-3.274 14.831-13.381l.022-.02c-2.655-2.953-7.368-6.504-13.446-8.384v-4.56c-.491-13.251-19.512-13.246-20 0v5.51c-.071.028-.14.052-.211.081-8.86 3.616-15.111 10.894-17.15 19.965-1.95 8.679.458 17.766 6.443 24.306 5.413 5.916 13.515 8.737 22.896 12.004 5.412 1.887 10.585 4.489 9.471 11.112-.787 4.682-4.727 9.741-11.516 9.786-7.52.048-9.479-.258-15.07-3.917-11.331-6.866-21.773 9.113-10.949 16.736 6.307 4.127 11.053 5.959 16.581 6.712v5.866c.491 13.251 19.512 13.246 20 0v-7.173c11.566-4.054 18.953-14.441 20.678-24.695 2.404-14.3-5.343-27.219-19.276-32.144z"/>
    </g>
</svg>