<svg enable-background="new 0 0 512 512" height="512" viewBox="0 0 512 512" width="512"
     xmlns="http://www.w3.org/2000/svg">
    <defs>
        <linearGradient id="grad1" x1="0%" y1="0%" x2="100%" y2="0%">
            <stop offset="0%" style="stop-color:#9B62FF;stop-opacity:1"/>
            <stop offset="100%" style="stop-color:#5B03FF;stop-opacity:1"/>
        </linearGradient>
    </defs>
    <g fill="url(#grad1)">
        <path d="m428.608 306.212c-17.772 0-32.235 14.39-32.235 32.079v87.653c0 17.772 14.463 32.235 32.235 32.235 17.689 0 32.085-14.463 32.085-32.235v-87.653c0-17.689-14.395-32.079-32.085-32.079zm21.461 119.732c0 11.916-9.628 21.611-21.461 21.611-11.916 0-21.611-9.695-21.611-21.611v-87.653c0-11.833 9.695-21.455 21.611-21.455 11.833 0 21.461 9.623 21.461 21.455z"/>
        <path d="m173.057 194.759h258.876c15.858 0 28.759-12.901 28.759-28.759v-83.399c0-15.858-12.901-28.759-28.759-28.759h-258.876c-15.858 0-28.759 12.901-28.759 28.759v83.399c0 15.858 12.901 28.759 28.759 28.759zm-18.135-112.158c0-10.001 8.134-18.135 18.135-18.135h258.876c10.001 0 18.135 8.134 18.135 18.135v83.399c0 10.001-8.134 18.135-18.135 18.135h-258.876c-10.001 0-18.135-8.134-18.135-18.135z"/>
        <path d="m176.533 282.884c17.689 0 32.085-14.463 32.085-32.24 0-17.689-14.395-32.079-32.085-32.079-17.772 0-32.235 14.39-32.235 32.079 0 17.777 14.463 32.24 32.235 32.24zm0-53.695c11.833 0 21.461 9.623 21.461 21.455 0 11.921-9.628 21.616-21.461 21.616-11.916 0-21.611-9.695-21.611-21.616 0-11.833 9.695-21.455 21.611-21.455z"/>
        <path d="m260.56 218.565c-17.777 0-32.24 14.39-32.24 32.079 0 17.777 14.463 32.24 32.24 32.24 17.689 0 32.085-14.463 32.085-32.24-.001-17.689-14.396-32.079-32.085-32.079zm0 53.695c-11.921 0-21.616-9.695-21.616-21.616 0-11.833 9.695-21.455 21.616-21.455 11.833 0 21.461 9.623 21.461 21.455-.001 11.921-9.629 21.616-21.461 21.616z"/>
        <path d="m260.56 306.212c-17.777 0-32.24 14.39-32.24 32.079 0 17.777 14.463 32.24 32.24 32.24 17.689 0 32.085-14.463 32.085-32.24-.001-17.689-14.396-32.079-32.085-32.079zm0 53.696c-11.921 0-21.616-9.695-21.616-21.616 0-11.833 9.695-21.455 21.616-21.455 11.833 0 21.461 9.623 21.461 21.455-.001 11.92-9.629 21.616-21.461 21.616z"/>
        <path d="m260.56 393.86c-17.777 0-32.24 14.395-32.24 32.085 0 17.772 14.463 32.235 32.24 32.235 17.689 0 32.085-14.463 32.085-32.235-.001-17.69-14.396-32.085-32.085-32.085zm0 53.696c-11.921 0-21.616-9.695-21.616-21.611 0-11.833 9.695-21.461 21.616-21.461 11.833 0 21.461 9.628 21.461 21.461-.001 11.915-9.629 21.611-21.461 21.611z"/>
        <path d="m344.587 218.565c-17.777 0-32.24 14.39-32.24 32.079 0 17.777 14.463 32.24 32.24 32.24 17.689 0 32.079-14.463 32.079-32.24 0-17.689-14.39-32.079-32.079-32.079zm0 53.695c-11.921 0-21.616-9.695-21.616-21.616 0-11.833 9.695-21.455 21.616-21.455 11.833 0 21.455 9.623 21.455 21.455 0 11.921-9.623 21.616-21.455 21.616z"/>
        <path d="m344.587 306.212c-17.777 0-32.24 14.39-32.24 32.079 0 17.777 14.463 32.24 32.24 32.24 17.689 0 32.079-14.463 32.079-32.24 0-17.689-14.39-32.079-32.079-32.079zm0 53.696c-11.921 0-21.616-9.695-21.616-21.616 0-11.833 9.695-21.455 21.616-21.455 11.833 0 21.455 9.623 21.455 21.455 0 11.92-9.623 21.616-21.455 21.616z"/>
        <path d="m344.587 393.86c-17.777 0-32.24 14.395-32.24 32.085 0 17.772 14.463 32.235 32.24 32.235 17.689 0 32.079-14.463 32.079-32.235 0-17.69-14.39-32.085-32.079-32.085zm0 53.696c-11.921 0-21.616-9.695-21.616-21.611 0-11.833 9.695-21.461 21.616-21.461 11.833 0 21.455 9.628 21.455 21.461 0 11.915-9.623 21.611-21.455 21.611z"/>
        <path d="m428.608 218.565c-17.772 0-32.235 14.39-32.235 32.079 0 17.777 14.463 32.24 32.235 32.24 17.689 0 32.085-14.463 32.085-32.24 0-17.689-14.395-32.079-32.085-32.079zm0 53.695c-11.916 0-21.611-9.695-21.611-21.616 0-11.833 9.695-21.455 21.611-21.455 11.833 0 21.461 9.623 21.461 21.455 0 11.921-9.628 21.616-21.461 21.616z"/>
        <path d="m114.133 418.858h-22.623c-2.936 0-5.312 2.376-5.312 5.312s2.376 5.312 5.312 5.312h12.803v6.012c0 2.936 2.376 5.312 5.312 5.312s5.312-2.376 5.312-5.312v-6.094c10.057-.432 18.125-8.685 18.125-18.847 0-10.442-8.492-18.934-18.929-18.934h-9.005c-4.581 0-8.305-3.73-8.305-8.31s3.725-8.31 8.305-8.31h22.623c2.936 0 5.312-2.376 5.312-5.312s-2.376-5.312-5.312-5.312h-12.813v-6.007c0-2.936-2.376-5.312-5.312-5.312s-5.312 2.376-5.312 5.312v6.09c-10.053.436-18.115 8.688-18.115 18.851 0 10.442 8.492 18.934 18.929 18.934h9.005c4.581 0 8.305 3.73 8.305 8.31 0 4.581-3.725 8.305-8.305 8.305z"/>
        <path d="m109.651 505.505c270.508 0 192.724-.484 342.68 0 32.339 0 58.644-26.306 58.644-58.644v-381.721c0-32.339-26.306-58.644-58.644-58.644h-299.65c-32.365 0-58.696 26.306-58.696 58.644v224.467c-53.304 7.632-92.96 52.875-92.96 107.319 0 59.868 48.731 108.579 108.626 108.579zm-5.042-440.365c0-26.477 21.564-48.021 48.072-48.021h299.65c26.477 0 48.021 21.544 48.021 48.021v381.72c0 26.477-21.544 48.021-48.021 48.021h-295.708c37.127-17.731 61.607-55.444 61.607-97.955 0-59.869-48.71-108.579-108.579-108.579-1.738 0-3.413.036-5.042.114zm5.042 233.83c54.012 0 97.955 43.943 97.955 97.955 0 45.053-30.476 84.133-74.112 95.035-.005 0-.008-.001-.012 0-7.703 1.94-15.718 2.921-23.831 2.921-54.038 0-98.002-43.943-98.002-97.955 0-54.604 43.876-97.956 98.002-97.956z"/>
        <path d="m109.64 474.463c42.745 0 77.522-34.787 77.522-77.542 0-42.75-34.777-77.527-77.522-77.527-42.76 0-77.548 34.777-77.548 77.527.001 42.755 34.788 77.542 77.548 77.542zm0-144.445c36.888 0 66.898 30.015 66.898 66.903 0 36.899-30.01 66.919-66.898 66.919-36.904 0-66.924-30.02-66.924-66.919.001-36.889 30.021-66.903 66.924-66.903z"/>
    </g>
</svg>