<svg enable-background="new 0 0 512 512" height="512" viewBox="0 0 512 512" width="512"
     xmlns="http://www.w3.org/2000/svg">
    <defs>
        <linearGradient id="grad1" x1="0%" y1="0%" x2="100%" y2="0%">
            <stop offset="0%" style="stop-color:#9B62FF;stop-opacity:1"/>
            <stop offset="100%" style="stop-color:#5B03FF;stop-opacity:1"/>
        </linearGradient>
    </defs>
    <g fill="url(#grad1)">
        <path d="m469.5 326.156h-427c-23.435 0-42.5 19.065-42.5 42.5v54.25c0 23.435 19.065 42.5 42.5 42.5h14.041c4.142 0 7.5-3.357 7.5-7.5s-3.358-7.5-7.5-7.5h-14.041c-15.164 0-27.5-12.336-27.5-27.5v-54.25c0-15.164 12.336-27.5 27.5-27.5h427c15.164 0 27.5 12.336 27.5 27.5v54.25c0 15.164-12.336 27.5-27.5 27.5h-377.959c-4.142 0-7.5 3.357-7.5 7.5s3.358 7.5 7.5 7.5h377.959c23.435 0 42.5-19.065 42.5-42.5v-54.25c0-23.434-19.065-42.5-42.5-42.5z"/>
        <path d="m186.109 154.781c29.827 0 54.094-24.267 54.094-54.094s-24.267-54.094-54.094-54.094-54.094 24.267-54.094 54.094 24.267 54.094 54.094 54.094zm0-93.187c21.556 0 39.094 17.537 39.094 39.094s-17.538 39.094-39.094 39.094-39.094-17.537-39.094-39.094 17.538-39.094 39.094-39.094z"/>
        <path d="m186.109 123.719c12.7 0 23.031-10.332 23.031-23.031s-10.332-23.031-23.031-23.031-23.031 10.332-23.031 23.031 10.332 23.031 23.031 23.031zm0-31.063c4.428 0 8.031 3.603 8.031 8.031s-3.603 8.031-8.031 8.031-8.031-3.603-8.031-8.031 3.603-8.031 8.031-8.031z"/>
        <path d="m302.859 240.469c0 12.699 10.332 23.031 23.031 23.031s23.031-10.332 23.031-23.031-10.332-23.031-23.031-23.031-23.031 10.332-23.031 23.031zm31.063 0c0 4.429-3.603 8.031-8.031 8.031s-8.031-3.603-8.031-8.031 3.603-8.031 8.031-8.031 8.031 3.602 8.031 8.031z"/>
        <path d="m367.376 262.992c3.909 1.371 8.189-.683 9.562-4.59 2.021-5.754 3.046-11.787 3.046-17.934 0-29.827-24.267-54.094-54.094-54.094s-54.094 24.267-54.094 54.094 24.267 54.094 54.094 54.094c8.553 0 16.737-1.94 24.326-5.768 3.698-1.864 5.185-6.375 3.319-10.073-1.864-3.698-6.376-5.187-10.073-3.319-5.475 2.761-11.387 4.16-17.572 4.16-21.557 0-39.094-17.537-39.094-39.094s17.537-39.094 39.094-39.094 39.094 17.537 39.094 39.094c0 4.449-.739 8.81-2.198 12.961-1.373 3.909.683 8.19 4.59 9.563z"/>
        <path d="m205.436 199.179c2.929 2.928 7.678 2.928 10.606 0l124.25-124.25c3.131-3.133 8.227-3.133 11.357 0 3.132 3.131 3.132 8.227 0 11.357l-171.947 171.948c-1.517 1.517-3.533 2.352-5.678 2.352-2.146 0-4.162-.835-5.679-2.353-3.131-3.131-3.131-8.227 0-11.357l22.019-22.019c2.929-2.93 2.929-7.678 0-10.607-2.929-2.928-7.678-2.928-10.606 0l-22.019 22.019c-8.98 8.98-8.98 23.592 0 32.572 4.35 4.35 10.134 6.745 16.286 6.745s11.936-2.396 16.285-6.745l171.947-171.947c8.979-8.98 8.979-23.592 0-32.572-8.98-8.979-23.592-8.979-32.572 0l-124.249 124.25c-2.93 2.929-2.93 7.677 0 10.607z"/>
        <path d="m69.625 357.219h-31.063c-4.142 0-7.5 3.357-7.5 7.5v62.125c0 4.143 3.358 7.5 7.5 7.5h31.063c4.142 0 7.5-3.357 7.5-7.5v-62.125c0-4.143-3.358-7.5-7.5-7.5zm-7.5 62.125h-16.063v-47.125h16.063z"/>
        <path d="m131.75 434.344c4.142 0 7.5-3.357 7.5-7.5v-62.125c0-4.143-3.358-7.5-7.5-7.5h-31.063c-4.142 0-7.5 3.357-7.5 7.5v62.125c0 4.143 3.358 7.5 7.5 7.5zm-23.563-62.125h16.063v47.125h-16.063z"/>
        <path d="m193.875 434.344c4.142 0 7.5-3.357 7.5-7.5v-62.125c0-4.143-3.358-7.5-7.5-7.5h-31.063c-4.142 0-7.5 3.357-7.5 7.5v62.125c0 4.143 3.358 7.5 7.5 7.5zm-23.563-62.125h16.063v47.125h-16.063z"/>
        <path d="m256 434.344c4.142 0 7.5-3.357 7.5-7.5v-62.125c0-4.143-3.358-7.5-7.5-7.5h-31.063c-4.142 0-7.5 3.357-7.5 7.5v62.125c0 4.143 3.358 7.5 7.5 7.5zm-23.563-62.125h16.063v47.125h-16.063z"/>
        <path d="m318.125 434.344c4.143 0 7.5-3.357 7.5-7.5v-62.125c0-4.143-3.357-7.5-7.5-7.5h-31.063c-4.142 0-7.5 3.357-7.5 7.5v62.125c0 4.143 3.358 7.5 7.5 7.5zm-23.563-62.125h16.063v47.125h-16.063z"/>
    </g>
</svg>