<svg enable-background="new 0 0 512.001 512.001" viewBox="0 0 512.001 512.001"
     xmlns="http://www.w3.org/2000/svg">
    <defs>
        <linearGradient id="grad1" x1="0%" y1="0%" x2="100%" y2="0%">
            <stop offset="0%" style="stop-color:rgb(87, 79, 247);stop-opacity:1"/>
            <stop offset="100%" style="stop-color:rgb(165, 51, 255);stop-opacity:1"/>
        </linearGradient>
    </defs>
    <g fill="url(#grad1)">
        <path d="m450.535 282.631h-11.203v-33.153c0-24.328-19.792-44.12-44.12-44.12h-245.497v-48.656c0-54.865 44.107-99.757 98.322-100.07 52.166-.286 95.781 40.221 99.255 92.243.533 7.938 7.154 14.157 15.073 14.157h26.47c4.131 0 8.13-1.719 10.973-4.716 2.833-2.988 4.334-7.056 4.116-11.165-2.125-39.783-19.29-76.868-48.333-104.424-29.052-27.564-67.025-42.727-106.978-42.727-.145 0-.294.001-.438.001-27.141.076-53.844 7.337-77.223 20.997-22.597 13.203-41.723 32.105-55.311 54.663-2.137 3.549-.994 8.157 2.554 10.295 3.549 2.137 8.157.992 10.294-2.555 12.296-20.412 29.596-37.513 50.029-49.452 21.097-12.327 45.198-18.88 69.697-18.948.132 0 .263-.001.396-.001 36.092 0 70.405 13.703 96.655 38.608 26.247 24.902 41.759 58.407 43.679 94.354 0 .001-.027.068-.111.068h-26.47c-.055 0-.101-.07-.106-.16-4.001-59.913-54.21-106.57-114.307-106.24-62.438.361-113.236 51.981-113.236 115.07v48.656h-26.63v-48.396c0-14.718 2.244-29.246 6.668-43.181 1.253-3.947-.931-8.164-4.878-9.418-3.949-1.252-8.165.93-9.418 4.879-4.892 15.404-7.372 31.459-7.372 47.72v49.306c-20.06 4.141-35.188 21.942-35.188 43.21v33.153h-11.202c-9.986 0-18.11 8.232-18.11 18.351v105.39c0 10.124 8.124 18.36 18.11 18.36h11.2v43.149c0 24.328 19.792 44.12 44.12 44.12h220.26c4.142 0 7.5-3.357 7.5-7.5s-3.358-7.5-7.5-7.5h-220.26c-16.057 0-29.12-13.063-29.12-29.12v-43.149h21.003v43.77c0 4.143 3.358 7.5 7.5 7.5h294.435c4.142 0 7.5-3.357 7.5-7.5v-43.77h21.003v43.149c0 16.057-13.063 29.12-29.12 29.12h-37.94c-4.142 0-7.5 3.357-7.5 7.5s3.358 7.5 7.5 7.5h37.94c24.328 0 44.12-19.792 44.12-44.12v-43.149h11.2c9.986 0 18.11-8.236 18.11-18.36v-105.39c-.001-10.117-8.125-18.349-18.111-18.349zm-377.637-33.153c0-16.057 13.063-29.12 29.12-29.12h293.194c16.057 0 29.12 13.063 29.12 29.12v33.153h-20.997v-33.77c0-4.143-3.358-7.5-7.5-7.5h-69.05c-4.142 0-7.5 3.357-7.5 7.5s3.358 7.5 7.5 7.5h61.55v26.27h-279.44v-26.27h182.89c4.142 0 7.5-3.357 7.5-7.5s-3.358-7.5-7.5-7.5h-190.39c-4.142 0-7.5 3.357-7.5 7.5v33.77h-20.997zm380.747 156.893c0 1.853-1.395 3.36-3.11 3.36h-258.54c-4.142 0-7.5 3.357-7.5 7.5s3.358 7.5 7.5 7.5h196.337v36.27h-279.434v-36.27h48.097c4.142 0 7.5-3.357 7.5-7.5s-3.358-7.5-7.5-7.5h-110.3c-1.715 0-3.11-1.508-3.11-3.36v-105.39c0-1.848 1.395-3.351 3.11-3.351h403.84c1.715 0 3.11 1.503 3.11 3.351z"/>
        <path d="m154.878 336.175c-2.072-3.587-6.659-4.815-10.245-2.745l-12.572 7.259v-14.518c0-4.143-3.358-7.5-7.5-7.5s-7.5 3.357-7.5 7.5v14.517l-12.572-7.259c-3.587-2.071-8.174-.844-10.245 2.745-2.071 3.587-.842 8.174 2.745 10.245l12.572 7.259-12.572 7.259c-3.587 2.071-4.816 6.658-2.745 10.245 1.389 2.406 3.91 3.751 6.502 3.751 1.272 0 2.562-.324 3.743-1.006l12.572-7.259v14.516c0 4.143 3.358 7.5 7.5 7.5s7.5-3.357 7.5-7.5v-14.517l12.572 7.259c1.181.682 2.471 1.006 3.743 1.006 2.592 0 5.113-1.345 6.502-3.751 2.071-3.587.842-8.174-2.745-10.245l-12.572-7.259 12.572-7.259c3.587-2.069 4.816-6.656 2.745-10.243z"/>
        <path d="m237.632 336.175c-2.071-3.587-6.658-4.815-10.245-2.745l-12.572 7.259v-14.517c0-4.143-3.358-7.5-7.5-7.5s-7.5 3.357-7.5 7.5v14.518l-12.572-7.259c-3.588-2.071-8.175-.844-10.245 2.745-2.071 3.587-.842 8.174 2.745 10.245l12.572 7.259-12.572 7.259c-3.587 2.071-4.816 6.658-2.745 10.245 1.389 2.406 3.91 3.751 6.502 3.751 1.272 0 2.562-.324 3.743-1.006l12.572-7.259v14.517c0 4.143 3.358 7.5 7.5 7.5s7.5-3.357 7.5-7.5v-14.516l12.572 7.259c1.181.682 2.471 1.006 3.743 1.006 2.592 0 5.113-1.345 6.502-3.751 2.071-3.587.842-8.174-2.745-10.245l-12.572-7.259 12.572-7.259c3.588-2.073 4.817-6.66 2.745-10.247z"/>
        <path d="m320.387 336.175c-2.072-3.587-6.659-4.815-10.245-2.745l-12.572 7.259v-14.518c0-4.143-3.358-7.5-7.5-7.5s-7.5 3.357-7.5 7.5v14.517l-12.572-7.259c-3.587-2.071-8.174-.844-10.245 2.745-2.071 3.587-.842 8.174 2.745 10.245l12.572 7.259-12.572 7.259c-3.587 2.071-4.816 6.658-2.745 10.245 1.389 2.406 3.91 3.751 6.502 3.751 1.272 0 2.562-.324 3.743-1.006l12.572-7.259v14.516c0 4.143 3.358 7.5 7.5 7.5s7.5-3.357 7.5-7.5v-14.517l12.572 7.259c1.181.682 2.471 1.006 3.743 1.006 2.592 0 5.113-1.345 6.502-3.751 2.071-3.587.842-8.174-2.745-10.245l-12.572-7.259 12.572-7.259c3.587-2.069 4.816-6.656 2.745-10.243z"/>
        <path d="m403.142 336.175c-2.071-3.587-6.658-4.815-10.245-2.745l-12.572 7.259v-14.517c0-4.143-3.358-7.5-7.5-7.5s-7.5 3.357-7.5 7.5v14.518l-12.572-7.259c-3.588-2.071-8.175-.844-10.245 2.745-2.071 3.587-.842 8.174 2.745 10.245l12.572 7.259-12.572 7.259c-3.587 2.071-4.816 6.658-2.745 10.245 1.389 2.406 3.91 3.751 6.502 3.751 1.272 0 2.562-.324 3.743-1.006l12.572-7.259v14.517c0 4.143 3.358 7.5 7.5 7.5s7.5-3.357 7.5-7.5v-14.516l12.572 7.259c1.181.682 2.471 1.006 3.743 1.006 2.592 0 5.113-1.345 6.502-3.751 2.071-3.587.842-8.174-2.745-10.245l-12.572-7.259 12.572-7.259c3.587-2.073 4.816-6.66 2.745-10.247z"/>
        <path d="m475.916 192.325h-40.514c-4.142 0-7.5 3.357-7.5 7.5s3.358 7.5 7.5 7.5h40.514c4.142 0 7.5-3.357 7.5-7.5s-3.358-7.5-7.5-7.5z"/>
        <path d="m428.615 175.674c1.878 0 3.758-.701 5.214-2.11l29.115-28.172c2.977-2.88 3.055-7.628.175-10.604-2.881-2.977-7.629-3.055-10.605-.175l-29.115 28.172c-2.977 2.88-3.055 7.628-.175 10.604 1.472 1.52 3.43 2.285 5.391 2.285z"/>
    </g>
</svg>