<svg viewBox="0 0 512 512.00173" width="512" height="512" xmlns="http://www.w3.org/2000/svg">
    <defs>
        <linearGradient id="grad1" x1="0%" y1="0%" x2="100%" y2="0%">
            <stop offset="0%" style="stop-color:#9B62FF;stop-opacity:1"/>
            <stop offset="100%" style="stop-color:#5B03FF;stop-opacity:1"/>
        </linearGradient>
    </defs>
    <g fill="url(#grad1)">
        <path d="m279.984375 71.074219c2.628906 0 5.207031-1.070313 7.066406-2.929688 1.863281-1.871093 2.933594-4.449219 2.933594-7.078125 0-2.632812-1.070313-5.199218-2.933594-7.070312-1.859375-1.859375-4.4375-2.921875-7.066406-2.921875-2.632813 0-5.210937 1.0625-7.070313 2.921875-1.859374 1.871094-2.929687 4.4375-2.929687 7.070312 0 2.636719 1.070313 5.207032 2.929687 7.078125 1.859376 1.859375 4.4375 2.929688 7.070313 2.929688zm0 0"/>
        <path d="m416.585938 463.691406c0 5.523438 4.476562 10 10 10 5.523437 0 10-4.476562 10-10v-146.847656c0-20.398438-16.597657-36.996094-36.996094-36.996094-6.753906 0-13.082032 1.824219-18.535156 4.996094-4.546876-15.285156-18.71875-26.46875-35.460938-26.46875-10.644531 0-20.242188 4.519531-27 11.738281-6.753906-7.21875-16.355469-11.738281-26.996094-11.738281-6.128906 0-11.90625 1.503906-17 4.152344v-43.363282c.019532-.011718.039063-.019531.0625-.035156l75.632813-48.476562c13.078125-8.382813 20.886719-22.664063 20.886719-38.195313 0-15.535156-7.808594-29.8125-20.886719-38.195312l-35.210938-22.574219c-4.648437-2.976562-10.835937-1.625-13.816406 3.023438-2.980469 4.648437-1.625 10.835937 3.023437 13.8125l35.210938 22.574218c7.425781 4.757813 11.683594 12.542969 11.683594 21.359375 0 8.8125-4.257813 16.601563-11.683594 21.355469l-64.902344 41.601562v-29.246093c0-20.398438-16.597656-36.996094-36.996094-36.996094-20.402343 0-37 16.597656-37 36.996094v76.375c-7.242187 3.34375-15.488281 3.089843-22.679687-.839844-8.261719-4.519531-13.199219-12.839844-13.199219-22.261719v-173.976562c0-9.417969 4.9375-17.738282 13.199219-22.257813 8.265625-4.519531 17.933594-4.183593 25.863281.898438l39.273438 25.175781c4.648437 2.976562 10.832031 1.625 13.8125-3.023438 2.980468-4.648437 1.628906-10.832031-3.019532-13.8125l-39.273437-25.175781c-14.183594-9.089843-31.472656-9.691406-46.25-1.609375-14.777344 8.082032-23.601563 22.960938-23.601563 39.808594v173.976562c0 16.84375 8.824219 31.726563 23.601563 39.808594 6.914063 3.777344 14.375 5.660156 21.8125 5.660156 3.515625 0 7.023437-.425781 10.460937-1.265624v110.863281l-14.035156-23.03125c-10.925781-17.925781-33.726562-23.746094-51.90625-13.25-17.292968 9.984375-24.039062 31.890625-15.332031 49.921875l57.894531 118.246094c1.734375 3.542968 5.289063 5.605468 8.988282 5.601562 1.476562 0 2.972656-.328125 4.390624-1.019531 4.957032-2.429688 7.011719-8.417969 4.582032-13.378907l-57.871094-118.195312c-4.152344-8.601562-.925781-19.082031 7.347656-23.855469 8.695313-5.023437 19.601563-2.238281 24.828125 6.335938l32.574219 53.449219c2.335938 3.828124 6.929688 5.640624 11.242188 4.425781 4.316406-1.210938 7.296874-5.144531 7.296874-9.628907v-243.960937c0-9.375 7.625-17 17-17 9.371094 0 16.996094 7.625 16.996094 17v194.625c0 5.523437 4.476563 10 10 10 5.523438 0 10-4.476563 10-10v-65.425781c0-9.371094 7.625-17 17-17 9.371094 0 16.996094 7.628906 16.996094 17v65.425781c0 5.519531 4.476562 10 10 10s10-4.480469 10-10v-65.425781c0-9.371094 7.625-17 17-17 9.371094 0 16.996094 7.628906 16.996094 17v65.425781c0 5.523437 4.476562 10 10 10 5.523437 0 10-4.476563 10-10v-43.953125c0-9.371094 7.625-16.996094 17-16.996094 9.371094 0 16.996094 7.625 16.996094 16.996094zm0 0"/>
        <path d="m426.582031 492c-2.628906 0-5.199219 1.070312-7.070312 2.929688-1.859375 1.859374-2.929688 4.441406-2.929688 7.070312s1.070313 5.210938 2.929688 7.070312c1.871093 1.859376 4.441406 2.929688 7.070312 2.929688 2.640625 0 5.210938-1.070312 7.070313-2.929688 1.867187-1.859374 2.9375-4.441406 2.9375-7.070312s-1.070313-5.210938-2.9375-7.070312c-1.851563-1.859376-4.429688-2.929688-7.070313-2.929688zm0 0"/>
        <path d="m443.535156 132.457031c0 19.726563-7.679687 38.273438-21.632812 52.222657-3.902344 3.90625-3.902344 10.238281 0 14.144531 1.953125 1.949219 4.511718 2.925781 7.070312 2.925781 2.5625 0 5.121094-.976562 7.074219-2.925781 17.726563-17.730469 27.488281-41.296875 27.488281-66.367188 0-25.070312-9.761718-48.640625-27.488281-66.367187-3.90625-3.90625-10.238281-3.90625-14.144531 0-3.902344 3.902344-3.902344 10.234375 0 14.140625 13.953125 13.949219 21.632812 32.496093 21.632812 52.226562zm0 0"/>
        <path d="m470.242188 31.890625c-3.90625-3.902344-10.238282-3.902344-14.144532 0-3.902344 3.90625-3.902344 10.238281 0 14.144531 47.652344 47.652344 47.652344 125.1875 0 172.84375-3.902344 3.902344-3.902344 10.234375 0 14.140625 1.953125 1.953125 4.511719 2.929688 7.070313 2.929688 2.558593 0 5.121093-.976563 7.070312-2.929688 55.453125-55.453125 55.453125-145.675781.003907-201.128906zm0 0"/>
        <path d="m390.699219 167.617188c1.953125 1.953124 4.511719 2.929687 7.070312 2.929687 2.558594 0 5.117188-.976563 7.070313-2.929687 9.390625-9.390626 14.566406-21.878907 14.566406-35.160157 0-13.285156-5.175781-25.773437-14.566406-35.164062-3.90625-3.902344-10.238282-3.902344-14.140625 0-3.90625 3.90625-3.90625 10.238281 0 14.140625 5.613281 5.617187 8.707031 13.082031 8.707031 21.023437 0 7.9375-3.09375 15.40625-8.707031 21.019531-3.90625 3.90625-3.90625 10.238282 0 14.140626zm0 0"/>
        <path d="m68.292969 132.457031c0-19.730469 7.683593-38.277343 21.632812-52.226562 3.90625-3.90625 3.90625-10.234375 0-14.140625-3.90625-3.902344-10.234375-3.90625-14.140625 0-17.726562 17.726562-27.492187 41.296875-27.492187 66.367187 0 25.070313 9.765625 48.640625 27.492187 66.367188 1.953125 1.949219 4.511719 2.925781 7.070313 2.925781 2.558593 0 5.117187-.976562 7.070312-2.925781 3.90625-3.90625 3.90625-10.238281 0-14.144531-13.949219-13.949219-21.632812-32.496094-21.632812-52.222657zm0 0"/>
        <path d="m55.730469 46.03125c3.90625-3.902344 3.90625-10.234375 0-14.140625-3.90625-3.902344-10.234375-3.902344-14.140625 0-55.453125 55.453125-55.453125 145.675781 0 201.128906 1.953125 1.949219 4.511718 2.929688 7.070312 2.929688s5.117188-.980469 7.070313-2.929688c3.902343-3.90625 3.902343-10.238281 0-14.144531-47.652344-47.652344-47.652344-125.1875 0-172.84375zm0 0"/>
        <path d="m121.132812 153.476562c-5.617187-5.613281-8.707031-13.078124-8.707031-21.019531 0-7.941406 3.09375-15.40625 8.707031-21.019531 3.90625-3.90625 3.90625-10.238281 0-14.144531-3.90625-3.902344-10.238281-3.902344-14.140624 0-9.394532 9.394531-14.566407 21.882812-14.566407 35.164062s5.171875 25.769531 14.566407 35.164063c1.953124 1.949218 4.511718 2.925781 7.070312 2.925781s5.117188-.976563 7.070312-2.925781c3.90625-3.90625 3.90625-10.238282 0-14.144532zm0 0"/>
    </g>
</svg>