<svg enable-background="new 0 0 512 512" height="512" viewBox="0 0 512 512" width="512"
     xmlns="http://www.w3.org/2000/svg">
    <defs>
        <linearGradient id="grad1" x1="0%" y1="0%" x2="100%" y2="0%">
            <stop offset="0%" style="stop-color:#9B62FF;stop-opacity:1"/>
            <stop offset="100%" style="stop-color:#5B03FF;stop-opacity:1"/>
        </linearGradient>
    </defs>
    <g fill="url(#grad1)">
        <path d="m407 240.623h-302c-57.897 0-105 47.103-105 105s47.103 105 105 105h302c57.897 0 105-47.103 105-105s-47.103-105-105-105zm0 180h-302c-41.355 0-75-33.645-75-75s33.645-75 75-75h302c41.355 0 75 33.645 75 75s-33.645 75-75 75z"/>
        <path d="m60 345.623c0 24.813 20.187 45 45 45h226v-90h-226c-24.813 0-45 20.187-45 45zm241 15h-196c-8.271 0-15-6.729-15-15s6.729-15 15-15h196z"/>
        <path d="m354.254 188.656 21.213 21.213 74.246-74.246-74.246-74.246-21.213 21.213 38.033 38.033h-128.787v30h128.787z"/>
        <path d="m203.5 120.623h30v30h-30z"/>
        <path d="m143.5 120.623h30v30h-30z"/>
        <path d="m83.5 120.623h30v30h-30z"/>
    </g>
</svg>