<svg fill="none" height="512" viewBox="0 0 24 24" width="512" xmlns="http://www.w3.org/2000/svg">
    <path clip-rule="evenodd"
          d="m21.0035 10c.5523 0 1-.44772 1-1v-6c0-.55228-.4477-1-1-1h-6.0036c-.5523 0-1 .44771-1 1 0 .55228.4477 1 1 1h3.5896l-8.60667 8.6066c-.39052.3905-.39052 1.0237 0 1.4142.39057.3906 1.02367.3906 1.41417 0l8.6065-8.60643v3.58563c0 .55228.4477 1 1 1zm-16.0035-5c-1.65685 0-3 1.34315-3 3v11c0 1.6569 1.34315 3 3 3h11c1.6569 0 3-1.3431 3-3v-6c0-.5523-.4477-1-1-1s-1 .4477-1 1v6c0 .5523-.4477 1-1 1h-11c-.55228 0-1-.4477-1-1v-11c0-.55228.44772-1 1-1h6c.5523 0 1-.44772 1-1s-.4477-1-1-1z"
          fill="rgb(0,0,0)" fill-rule="evenodd"/>
</svg>