<svg enable-background="new 0 0 286.767 286.767" height="512" viewBox="0 0 286.767 286.767" width="512"
     xmlns="http://www.w3.org/2000/svg">
    <defs>
        <linearGradient id="grad1" x1="0%" y1="0%" x2="100%" y2="0%">
            <stop offset="0%" style="stop-color:#9B62FF;stop-opacity:1"/>
            <stop offset="100%" style="stop-color:#5B03FF;stop-opacity:1"/>
        </linearGradient>
    </defs>
    <g fill="url(#grad1)">
        <g>
            <g>
                <g>
                    <path d="m186.671 275.433c-8.588 0-15.569-6.982-15.569-15.569s6.982-15.569 15.569-15.569c8.588 0 15.569 6.982 15.569 15.569.012 8.587-6.982 15.569-15.569 15.569zm0-21.632c-3.351 0-6.074 2.723-6.074 6.074s2.723 6.063 6.074 6.063 6.063-2.723 6.063-6.063c.011-3.351-2.712-6.074-6.063-6.074z"/>
                </g>
            </g>
            <g>
                <g>
                    <path d="m143.407 275.433c-8.588 0-15.569-6.982-15.569-15.569s6.982-15.569 15.569-15.569c8.588 0 15.569 6.982 15.569 15.569s-6.982 15.569-15.569 15.569zm0-21.632c-3.351 0-6.063 2.723-6.063 6.074s2.723 6.063 6.063 6.063c3.351 0 6.074-2.723 6.074-6.063 0-3.351-2.723-6.074-6.074-6.074z"/>
                </g>
            </g>
            <g>
                <g>
                    <path d="m100.143 275.433c-8.588 0-15.569-6.982-15.569-15.569s6.982-15.569 15.569-15.569c8.588 0 15.569 6.982 15.569 15.569s-6.993 15.569-15.569 15.569zm0-21.632c-3.351 0-6.074 2.723-6.074 6.074s2.723 6.063 6.074 6.063 6.063-2.723 6.063-6.063c-.001-3.351-2.724-6.074-6.063-6.074z"/>
                </g>
            </g>
            <g>
                <g>
                    <path d="m235.555 277.935c-1.536 0-3.037-.745-3.956-2.106-1.455-2.176-.873-5.132 1.303-6.598l13.987-9.367-13.987-9.367c-2.176-1.455-2.769-4.41-1.303-6.586 1.455-2.176 4.41-2.769 6.586-1.303l19.887 13.312c1.315.884 2.106 2.362 2.106 3.945s-.791 3.072-2.106 3.945l-19.887 13.312c-.803.545-1.722.813-2.63.813z"/>
                </g>
            </g>
            <g>
                <g>
                    <path d="m51.258 277.935c-.908 0-1.827-.256-2.641-.803l-19.887-13.312c-1.315-.884-2.106-2.362-2.106-3.945s.791-3.072 2.106-3.945l19.887-13.312c2.176-1.455 5.132-.873 6.598 1.303 1.455 2.176.873 5.132-1.303 6.598l-13.987 9.367 13.987 9.367c2.176 1.455 2.769 4.41 1.303 6.586-.92 1.351-2.432 2.096-3.957 2.096z"/>
                </g>
            </g>
            <g>
                <g>
                    <path d="m212.736 193.792h-126.476c-9.344 0-16.931-7.599-16.931-16.931v-15.744c0-9.344 7.599-16.931 16.931-16.931h126.476c2.63 0 4.748 2.129 4.748 4.748v40.111c0 2.618-2.13 4.747-4.748 4.747zm-126.476-40.111c-4.096 0-7.436 3.328-7.436 7.436v15.744c0 4.096 3.328 7.436 7.436 7.436h121.728v-30.615h-121.728z"/>
                </g>
            </g>
            <g>
                <g>
                    <path d="m74.077 165.865c-2.63 0-4.748-2.129-4.748-4.748v-135.354c0-9.344 7.599-16.931 16.931-16.931h126.476c2.63 0 4.748 2.129 4.748 4.748s-2.129 4.748-4.748 4.748h-126.476c-4.096 0-7.436 3.328-7.436 7.436v135.343c.001 2.628-2.129 4.758-4.747 4.758z"/>
                </g>
            </g>
            <g>
                <g>
                    <path d="m212.736 153.681c-2.63 0-4.748-2.129-4.748-4.748v-135.353c0-2.63 2.129-4.748 4.748-4.748 2.618 0 4.748 2.129 4.748 4.748v135.343c0 2.629-2.13 4.758-4.748 4.758z"/>
                </g>
            </g>
            <g>
                <g>
                    <path d="m212.736 169.914h-38.551c-2.63 0-4.748-2.129-4.748-4.748s2.129-4.748 4.748-4.748h38.551c2.63 0 4.748 2.129 4.748 4.748s-2.13 4.748-4.748 4.748z"/>
                </g>
            </g>
            <g>
                <g>
                    <path d="m160.943 169.914h-8.692c-2.63 0-4.748-2.129-4.748-4.748s2.129-4.748 4.748-4.748h8.692c2.63 0 4.748 2.129 4.748 4.748-.001 2.619-2.119 4.748-4.748 4.748z"/>
                </g>
            </g>
            <g>
                <g>
                    <g>
                        <g>
                            <path d="m120.948 213.807h-105.984c-8.25 0-14.964-6.715-14.964-14.965v-13.196c0-8.25 6.714-14.964 14.964-14.964h59.124c2.63 0 4.748 2.129 4.748 4.748 0 2.618-2.129 4.748-4.748 4.748h-59.124c-3.014 0-5.457 2.444-5.457 5.457v13.196c0 3.014 2.444 5.457 5.457 5.457h101.236v-15.267c0-2.63 2.129-4.748 4.748-4.748 2.618 0 4.748 2.129 4.748 4.748v20.015c0 2.641-2.129 4.771-4.748 4.771z"/>
                        </g>
                    </g>
                    <g>
                        <g>
                            <path d="m4.748 190.394c-2.63 0-4.748-2.129-4.748-4.748v-113.419c0-8.25 6.714-14.964 14.964-14.964h59.124c2.63 0 4.748 2.129 4.748 4.748s-2.129 4.748-4.748 4.748h-59.124c-3.014 0-5.457 2.444-5.457 5.457v113.42c-.012 2.64-2.141 4.758-4.759 4.758z"/>
                        </g>
                    </g>
                </g>
                <g>
                    <g>
                        <path d=""
                              style="fill:none;stroke:rgb(0,0,0);stroke-width:9.503;stroke-linecap:round;stroke-linejoin:round;stroke-miterlimit:116.364"/>
                    </g>
                </g>
            </g>
            <g>
                <g>
                    <g>
                        <g>
                            <path d="m282.019 213.807h-105.984c-8.25 0-14.964-6.714-14.964-14.964v-9.798c0-2.63 2.129-4.748 4.748-4.748s4.748 2.129 4.748 4.748v9.798c0 3.014 2.444 5.457 5.457 5.457h101.236v-24.111h-64.524c-2.63 0-4.748-2.129-4.748-4.748 0-2.618 2.129-4.748 4.748-4.748h69.283c2.63 0 4.748 2.129 4.748 4.748v33.617c0 2.619-2.13 4.749-4.748 4.749z"/>
                        </g>
                    </g>
                    <g>
                        <g>
                            <path d="m282.019 66.769h-69.283c-2.63 0-4.748-2.129-4.748-4.748 0-2.618 2.129-4.748 4.748-4.748h69.283c2.63 0 4.748 2.129 4.748 4.748s-2.13 4.748-4.748 4.748z"/>
                        </g>
                    </g>
                </g>
                <g>
                    <g>
                        <path d="m282.019 180.189c-2.63 0-4.748-2.129-4.748-4.748v-113.419c0-2.63 2.129-4.748 4.748-4.748 2.618 0 4.748 2.129 4.748 4.748v113.42c0 2.618-2.13 4.747-4.748 4.747z"/>
                    </g>
                </g>
            </g>
        </g>
    </g>
</svg>