<svg enable-background="new 0 0 512 512" height="512" viewBox="0 0 512 512" width="512"
     xmlns="http://www.w3.org/2000/svg">
    <defs>
        <linearGradient id="grad1" x1="0%" y1="0%" x2="100%" y2="0%">
            <stop offset="0%" style="stop-color:#9B62FF;stop-opacity:1"/>
            <stop offset="100%" style="stop-color:#5B03FF;stop-opacity:1"/>
        </linearGradient>
    </defs>
    <g fill="url(#grad1)">
        <path d="m7.5 286.422c4.143 0 7.5-3.357 7.5-7.5v-116.8c0-39.601 32.218-71.819 71.819-71.819h257.034c4.143 0 7.5-3.358 7.5-7.5s-3.357-7.5-7.5-7.5h-257.034c-47.872 0-86.819 38.947-86.819 86.819v116.8c0 4.142 3.357 7.5 7.5 7.5z"/>
        <path d="m425.181 75.303h-46.186c-4.143 0-7.5 3.358-7.5 7.5s3.357 7.5 7.5 7.5h46.186c39.602 0 71.819 32.218 71.819 71.819v187.756c0 39.602-32.218 71.819-71.819 71.819h-338.362c-39.601 0-71.819-32.218-71.819-71.819v-35.814c0-4.143-3.357-7.5-7.5-7.5s-7.5 3.357-7.5 7.5v35.814c0 47.872 38.947 86.819 86.819 86.819h338.361c47.872 0 86.819-38.947 86.819-86.819v-187.756c.001-47.872-38.946-86.819-86.818-86.819z"/>
        <path d="m86.146 120.485c-22.588 0-40.965 18.377-40.965 40.965v189.101c0 22.588 18.377 40.965 40.965 40.965 7.882 0 342.223 0 339.707 0 22.588 0 40.965-18.377 40.965-40.965v-189.102c0-22.588-18.377-40.965-40.965-40.965-11.314.001-326.358.001-339.707.001zm-25.964 230.066v-189.102c0-14.317 11.647-25.965 25.965-25.965h94.581v241.031h-94.582c-14.317 0-25.964-11.647-25.964-25.964zm135.546-215.066h120.545v241.031h-120.545zm256.09 25.964v189.101c0 12.48-8.85 22.928-20.604 25.405-2.693-9.107-8.395-16.823-15.917-22.088 10.653-7.495 17.634-19.874 17.634-33.861 0-22.82-18.565-41.387-41.386-41.387s-41.387 18.566-41.387 41.387c0 4.143 3.357 7.5 7.5 7.5s7.5-3.357 7.5-7.5c0-14.55 11.837-26.387 26.387-26.387 14.549 0 26.386 11.837 26.386 26.387 0 14.549-11.837 26.386-26.386 26.386-4.143 0-7.5 3.357-7.5 7.5s3.357 7.5 7.5 7.5c10.491 0 19.645 6.11 23.88 15.122h-84.154v-241.029h74.38c-3.585 12.922-16.21 18.237-24.226 20.337-16.193 4.253-27.503 18.862-27.503 35.527v11.938c0 4.142 3.357 7.5 7.5 7.5h52.713c4.143 0 7.5-3.358 7.5-7.5s-3.357-7.5-7.5-7.5h-45.213v-4.438c0-9.853 6.708-18.497 16.31-21.019 19.935-5.224 32.843-17.987 35.769-34.846h4.852c14.318.001 25.965 11.649 25.965 25.965z"/>
        <path d="m120.454 188.258c-20.744 0-37.621 16.877-37.621 37.621v60.242c0 20.744 16.877 37.621 37.621 37.621 20.745 0 37.622-16.877 37.622-37.621v-60.242c0-20.744-16.877-37.621-37.622-37.621zm22.622 97.863c0 12.474-10.148 22.621-22.622 22.621s-22.621-10.147-22.621-22.621v-60.242c0-12.473 10.147-22.621 22.621-22.621s22.622 10.148 22.622 22.621z"/>
        <path d="m263.53 188.258c-4.143 0-7.5 3.358-7.5 7.5 0 8.321-6.77 15.091-15.091 15.091-4.143 0-7.5 3.358-7.5 7.5s3.357 7.5 7.5 7.5c5.496 0 10.651-1.48 15.091-4.064v94.458c0 4.143 3.357 7.5 7.5 7.5s7.5-3.357 7.5-7.5v-120.485c0-4.143-3.357-7.5-7.5-7.5z"/>
    </g>
</svg>