<svg height="512" viewBox="0 -54 512 512" width="512" xmlns="http://www.w3.org/2000/svg">
    <defs>
        <linearGradient id="grad1" x1="0%" y1="0%" x2="100%" y2="0%">
            <stop offset="0%" style="stop-color:#9B62FF;stop-opacity:1"/>
            <stop offset="100%" style="stop-color:#5B03FF;stop-opacity:1"/>
        </linearGradient>
    </defs>
    <g fill="url(#grad1)">
        <path d="m175.21875 65.984375h28.648438c4.175781 0 7.558593-3.382813 7.558593-7.554687 0-4.175782-3.382812-7.558594-7.558593-7.558594h-28.648438c-4.175781 0-7.558594 3.382812-7.558594 7.558594 0 4.171874 3.382813 7.554687 7.558594 7.554687zm0 0"/>
        <path d="m303.765625 65.984375h28.652344c4.175781 0 7.558593-3.382813 7.558593-7.554687 0-4.175782-3.382812-7.558594-7.558593-7.558594h-28.652344c-4.171875 0-7.554687 3.382812-7.554687 7.558594 0 4.171874 3.382812 7.554687 7.554687 7.554687zm0 0"/>
        <path d="m456.660156 50.871094h-28.648437c-4.175781 0-7.558594 3.382812-7.558594 7.554687 0 4.175781 3.382813 7.558594 7.558594 7.558594h28.648437c4.175782 0 7.558594-3.382813 7.558594-7.558594 0-4.171875-3.382812-7.554687-7.558594-7.554687zm0 0"/>
        <path d="m440.421875 161.03125h-156.578125c-4.171875 0-7.558594 3.382812-7.558594 7.554688 0 4.175781 3.386719 7.554687 7.558594 7.554687h156.578125c4.175781 0 7.558594-3.382813 7.558594-7.554687 0-4.171876-3.382813-7.554688-7.558594-7.554688zm0 0"/>
        <path d="m440.421875 209.859375h-59.398437c-4.175782 0-7.558594 3.382813-7.558594 7.558594 0 4.171875 3.382812 7.554687 7.558594 7.554687h59.398437c4.175781 0 7.558594-3.382812 7.558594-7.554687 0-4.175781-3.382813-7.558594-7.558594-7.558594zm0 0"/>
        <path d="m283.84375 273.777344h156.578125c4.175781 0 7.558594-3.382813 7.558594-7.558594 0-4.171875-3.382813-7.554688-7.558594-7.554688h-156.578125c-4.171875 0-7.558594 3.382813-7.558594 7.554688 0 4.175781 3.386719 7.558594 7.558594 7.558594zm0 0"/>
        <path d="m440.421875 322.578125c4.175781 0 7.558594-3.382813 7.558594-7.554687 0-4.175782-3.382813-7.558594-7.558594-7.558594h-156.578125c-4.171875 0-7.558594 3.382812-7.558594 7.558594 0 4.171874 3.386719 7.554687 7.558594 7.554687zm0 0"/>
        <path d="m49.640625 272.675781c13.703125 41.828125 53.097656 72.121094 99.445313 72.121094 25.808593 0 49.457031-9.398437 67.722656-24.941406.203125-.140625.414062-.261719.605468-.421875.308594-.257813.582032-.539063.839844-.832032 13.9375-12.308593 24.578125-28.261718 30.421875-46.355468.1875-.441406.332031-.898438.433594-1.363282 2.988281-9.714843 4.601563-20.027343 4.601563-30.707031 0-57.6875-46.933594-104.621093-104.625-104.621093-11.472657 0-22.777344 1.859374-33.601563 5.53125-3.953125 1.335937-6.070313 5.628906-4.726563 9.582031 1.339844 3.949219 5.632813 6.070312 9.582032 4.726562 9.253906-3.136719 18.925781-4.726562 28.746094-4.726562 49.355468 0 89.507812 40.152343 89.507812 89.507812 0 4.339844-.316406 8.605469-.917969 12.785157l-35.601562-41.464844c-5.128907-7.058594-11.917969-10.988282-19.148438-11.082032-.082031 0-.167969 0-.253906 0-7.300781 0-14.320313 3.996094-19.800781 11.292969l-12.074219 16.167969-8.445313-10.117188-9.234374-11.484374c-5.269532-7.3125-12.257813-11.386719-19.699219-11.484376-.085938 0-.175781 0-.261719 0-7.472656 0-14.667969 4.101563-20.300781 11.609376l-13.179688 17.769531c-.03125.046875-.066406.09375-.101562.140625l-19.269531 27.269531c-.480469-3.734375-.726563-7.539063-.726563-11.402344 0-27.058593 12.0625-52.386719 33.09375-69.496093 3.238281-2.632813 3.726563-7.390626 1.09375-10.628907-2.636719-3.234375-7.394531-3.726562-10.632813-1.09375-24.574218 19.988281-38.667968 49.59375-38.667968 81.21875 0 10.976563 1.703125 21.5625 4.851562 31.511719.085938.332031.195313.664062.324219.988281zm125.328125-51.910156c2.539062-3.382813 5.273438-5.238281 7.703125-5.238281h.0625c2.382813.027344 4.953125 1.816406 7.242187 5.027344.132813.183593.273438.363281.421876.539062l42.761718 49.804688c-4.382812 11.960937-11.253906 22.726562-19.976562 31.683593l-52.425782-62.785156zm-83.101562 12.335937 13.101562-17.667968c2.707031-3.601563 5.632812-5.570313 8.253906-5.535156 2.558594.035156 5.296875 1.921874 7.714844 5.324218.085938.121094.175781.238282.265625.351563l9.410156 11.707031c.027344.035156.058594.070312.089844.109375l71.066406 85.097656c-14.792969 10.804688-33.003906 17.195313-52.683593 17.195313-38.515626 0-71.429688-24.457032-84.027344-58.65625zm0 0"/>
        <path d="m85.738281 58.425781c0-4.171875-3.382812-7.554687-7.558593-7.554687h-28.652344c-4.171875 0-7.554688 3.382812-7.554688 7.554687 0 4.175781 3.382813 7.558594 7.554688 7.558594h28.652344c4.175781 0 7.558593-3.382813 7.558593-7.558594zm0 0"/>
        <path d="m283.84375 224.972656h62.320312c4.175782 0 7.558594-3.382812 7.558594-7.554687 0-4.175781-3.382812-7.554688-7.558594-7.554688h-62.320312c-4.171875 0-7.558594 3.382813-7.558594 7.554688s3.386719 7.554687 7.558594 7.554687zm0 0"/>
        <path d="m484.492188 15.046875h-346.46875c-3.113282-8.757813-11.484376-15.046875-21.300782-15.046875h-94.117187c-12.464844 0-22.605469 10.140625-22.605469 22.605469v340.847656c0 22.359375 18.1875 40.546875 40.546875 40.546875h215.4375c4.175781 0 7.558594-3.382812 7.558594-7.554688 0-4.175781-3.382813-7.558593-7.558594-7.558593h-215.4375c-14.023437 0-25.433594-11.40625-25.433594-25.429688v-340.851562c0-4.132813 3.363281-7.492188 7.492188-7.492188h94.117187c4.128906 0 7.492188 3.359375 7.492188 7.492188v71.671875c0 4.175781 3.382812 7.558594 7.554687 7.558594h365.117188v261.617187c0 14.023437-11.410157 25.433594-25.433594 25.433594h-180.835937c-4.175782 0-7.558594 3.382812-7.558594 7.554687 0 4.175782 3.386718 7.554688 7.558594 7.554688h180.835937c22.359375.003906 40.546875-18.183594 40.546875-40.542969v-320.894531c0-15.167969-12.339844-27.511719-27.507812-27.511719zm-236.0625 71.675781h-109.101563v-56.5625h109.101563zm124.214843 0h-109.101562v-56.5625h109.097656v56.5625zm124.242188 0h-109.128907v-56.5625h96.734376c6.832031 0 12.394531 5.5625 12.394531 12.398438zm0 0"/>
    </g>
</svg>