<svg enable-background="new 0 0 512 512" height="512" viewBox="0 0 512 512" width="512"
     xmlns="http://www.w3.org/2000/svg">
    <defs>
        <linearGradient id="grad1" x1="0%" y1="0%" x2="100%" y2="0%">
            <stop offset="0%" style="stop-color:#9B62FF;stop-opacity:1"/>
            <stop offset="100%" style="stop-color:#5B03FF;stop-opacity:1"/>
        </linearGradient>
    </defs>
    <g fill="url(#grad1)">
        <g>
            <g>
                <g>
                    <g>
                        <path d="m49.36 209.969c-4.18 0-8.007-2.708-9.415-6.636-1.388-3.869-.2-8.334 2.944-10.987 3.285-2.772 8.087-3.148 11.747-.873 3.491 2.169 5.335 6.416 4.523 10.446-.929 4.613-5.081 8.05-9.799 8.05z"/>
                    </g>
                </g>
                <g>
                    <g>
                        <g>
                            <path d="m462.64 209.969c-4.24 0-8.095-2.785-9.459-6.789-1.352-3.968-.005-8.52 3.31-11.094 3.179-2.468 7.659-2.791 11.147-.78 3.647 2.104 5.619 6.403 4.823 10.538-.896 4.649-5.078 8.125-9.821 8.125z"/>
                        </g>
                    </g>
                    <path d="m417.654 189.967h-323.308c-5.523 0-10 4.477-10 10s4.477 10 10 10h323.309c5.522 0 10-4.477 10-10-.001-5.523-4.478-10-10.001-10z"/>
                </g>
            </g>
            <g>
                <g>
                    <g>
                        <g>
                            <path d="m256 366.356c-34.791 0-63.096-28.305-63.096-63.096s28.305-63.095 63.096-63.095 63.096 28.304 63.096 63.095-28.305 63.096-63.096 63.096zm0-106.192c-23.763 0-43.096 19.332-43.096 43.095s19.332 43.096 43.096 43.096c23.763 0 43.096-19.333 43.096-43.096 0-23.762-19.333-43.095-43.096-43.095z"/>
                        </g>
                    </g>
                    <g>
                        <g>
                            <g>
                                <path d="m320.752 480.374h-129.504c-5.523 0-10-4.477-10-10v-65.948c0-15.274 12.427-27.701 27.702-27.701h94.102c15.274 0 27.701 12.427 27.701 27.701v65.948c-.001 5.523-4.479 10-10.001 10zm-119.504-20h109.504v-55.948c0-4.247-3.455-7.701-7.701-7.701h-94.102c-4.247 0-7.702 3.455-7.702 7.701v55.948z"/>
                            </g>
                        </g>
                    </g>
                </g>
                <g>
                    <g>
                        <g>
                            <path d="m74.752 366.356c-34.791 0-63.096-28.305-63.096-63.096s28.305-63.095 63.096-63.095 63.096 28.304 63.096 63.095-28.305 63.096-63.096 63.096zm0-106.192c-23.763 0-43.096 19.332-43.096 43.095s19.333 43.096 43.096 43.096 43.096-19.333 43.096-43.096c0-23.762-19.332-43.095-43.096-43.095z"/>
                        </g>
                    </g>
                    <g>
                        <g>
                            <g>
                                <path d="m139.505 480.374h-129.505c-5.523 0-10-4.477-10-10v-65.948c0-15.274 12.427-27.701 27.701-27.701h94.103c15.274 0 27.701 12.427 27.701 27.701v65.948c0 5.523-4.477 10-10 10zm-119.505-20h109.505v-55.948c0-4.247-3.455-7.701-7.701-7.701h-94.103c-4.247 0-7.701 3.455-7.701 7.701z"/>
                            </g>
                        </g>
                    </g>
                </g>
                <g>
                    <g>
                        <g>
                            <path d="m437.248 366.356c-34.792 0-63.097-28.305-63.097-63.096s28.305-63.095 63.097-63.095c34.791 0 63.096 28.304 63.096 63.095s-28.305 63.096-63.096 63.096zm0-106.192c-23.764 0-43.097 19.332-43.097 43.095s19.333 43.096 43.097 43.096c23.763 0 43.096-19.333 43.096-43.096 0-23.762-19.333-43.095-43.096-43.095z"/>
                        </g>
                    </g>
                    <g>
                        <g>
                            <g>
                                <path d="m502 480.374h-129.505c-5.522 0-10-4.477-10-10v-65.948c0-15.274 12.427-27.701 27.701-27.701h94.103c15.274 0 27.701 12.427 27.701 27.701v65.948c0 5.523-4.478 10-10 10zm-119.505-20h109.505v-55.948c0-4.247-3.455-7.701-7.701-7.701h-94.103c-4.246 0-7.701 3.455-7.701 7.701z"/>
                            </g>
                        </g>
                    </g>
                </g>
            </g>
        </g>
        <g>
            <g>
                <g>
                    <path d="m70.926 149.727c-3.624 0-7.204-1.139-10.259-3.359-4.966-3.608-7.642-9.416-7.159-15.535l1.728-21.898-14.273-16.7c-3.989-4.667-5.238-10.939-3.341-16.778 1.896-5.839 6.594-10.18 12.564-11.612l21.371-5.125 11.481-18.737c3.206-5.233 8.785-8.357 14.922-8.357 6.138 0 11.716 3.124 14.923 8.357l11.482 18.737 21.371 5.125c5.97 1.431 10.667 5.772 12.564 11.611s.648 12.111-3.34 16.779l-14.273 16.699 1.728 21.898c.482 6.12-2.194 11.927-7.16 15.536-4.966 3.608-11.317 4.359-16.986 2.011l-20.308-8.414-20.309 8.414c-2.18.903-4.462 1.348-6.726 1.348zm27.035-30.586c1.301 0 2.602.254 3.828.761l20.367 8.439-1.734-21.966c-.208-2.647.643-5.267 2.368-7.285l14.316-16.748-21.434-5.14c-2.58-.619-4.808-2.237-6.194-4.499l-11.517-18.794-11.516 18.794c-1.386 2.262-3.615 3.881-6.194 4.5l-21.434 5.14 14.315 16.749c1.725 2.018 2.576 4.638 2.368 7.284l-1.733 21.966 20.368-8.438c1.224-.509 2.526-.763 3.826-.763zm43.112-35.848h.01zm-45.242-32.861c0 .001.001.002.002.004z"/>
                </g>
            </g>
            <g>
                <g>
                    <g>
                        <path d="m283.036 149.727c-2.265 0-4.546-.444-6.728-1.348l-20.308-8.413-20.308 8.414c-5.671 2.349-12.022 1.597-16.988-2.011-4.965-3.608-7.642-9.416-7.158-15.535l1.728-21.898-14.273-16.699c-3.989-4.668-5.238-10.94-3.341-16.78 1.897-5.839 6.594-10.18 12.564-11.611l21.371-5.125 11.482-18.737c3.206-5.232 8.784-8.357 14.922-8.357s11.716 3.124 14.923 8.357l11.481 18.737 21.371 5.125c5.971 1.432 10.668 5.772 12.564 11.612 1.896 5.839.647 12.112-3.343 16.779l-14.272 16.698 1.728 21.898c.483 6.118-2.191 11.926-7.157 15.535-3.054 2.22-6.635 3.359-10.258 3.359zm-66.181-67.385 14.316 16.748c1.725 2.018 2.576 4.638 2.367 7.285l-1.733 21.966 20.367-8.439c2.451-1.014 5.205-1.015 7.655 0l20.367 8.438-1.733-21.965c-.209-2.647.643-5.267 2.367-7.285l14.316-16.748-21.433-5.14c-2.58-.619-4.809-2.237-6.194-4.5l-11.517-18.793-11.517 18.794c-1.386 2.262-3.615 3.88-6.195 4.499z"/>
                    </g>
                </g>
            </g>
            <g>
                <g>
                    <path d="m441.074 149.727c-2.265 0-4.546-.445-6.727-1.348l-20.308-8.414-20.309 8.414c-5.67 2.349-12.021 1.597-16.986-2.011-4.966-3.608-7.642-9.416-7.159-15.535l1.729-21.899-14.274-16.698c-3.989-4.668-5.238-10.94-3.341-16.78 1.897-5.839 6.594-10.18 12.564-11.611l21.372-5.125 11.481-18.737c3.206-5.233 8.785-8.357 14.922-8.357 6.138 0 11.717 3.124 14.923 8.357l11.482 18.737 21.371 5.125c5.97 1.431 10.667 5.772 12.563 11.611 1.897 5.839.648 12.112-3.341 16.779l-14.273 16.699 1.728 21.898c.482 6.12-2.193 11.927-7.159 15.536-3.055 2.221-6.635 3.359-10.258 3.359zm-66.179-67.385 14.315 16.748c1.725 2.018 2.576 4.638 2.367 7.285l-1.733 21.966 20.368-8.439c2.449-1.015 5.203-1.015 7.654.001l20.367 8.438-1.733-21.966c-.209-2.647.643-5.267 2.367-7.285l14.315-16.748-21.433-5.14c-2.58-.619-4.809-2.237-6.194-4.499l-11.517-18.794-11.517 18.793c-1.386 2.262-3.614 3.881-6.194 4.5zm82.255.951h.011z"/>
                </g>
            </g>
        </g>
    </g>
</svg>