<svg enable-background="new 0 0 605.627 605.627" height="512" viewBox="0 0 605.627 605.627" width="512"
     xmlns="http://www.w3.org/2000/svg">
    <defs>
        <linearGradient id="grad1" x1="0%" y1="0%" x2="100%" y2="0%">
            <stop offset="0%" style="stop-color:#9B62FF;stop-opacity:1"/>
            <stop offset="100%" style="stop-color:#5B03FF;stop-opacity:1"/>
        </linearGradient>
    </defs>
    <g fill="url(#grad1)">
        <g clip-rule="evenodd" fill-rule="evenodd">
            <path d="m116.257 276.556 9.562-9.562v-194.914c0-2.78 1.105-5.44 3.068-7.404 1.964-1.963 4.624-3.068 7.403-3.068h439.74c2.78 0 5.44 1.105 7.404 3.068s3.068 4.624 3.068 7.404v468.146c0 1.658-1.088 3.128-2.669 3.621-1.589.493-3.315-.111-4.25-1.479-24.531-35.794-60.707-88.578-74.842-109.2-5.516-8.049-14.646-12.861-24.412-12.861h-243.509c-5.278 0-9.562 4.284-9.562 9.562 0 5.279 4.284 9.562 9.562 9.562h243.508c3.46 0 6.689 1.7 8.636 4.548 14.135 20.621 50.312 73.406 74.843 109.199 5.678 8.288 16.09 11.909 25.687 8.934 9.588-2.975 16.133-11.849 16.133-21.888v-468.144c0-7.854-3.119-15.377-8.67-20.927s-13.073-8.67-20.927-8.67h-439.739c-7.854 0-15.377 3.119-20.927 8.67s-8.67 13.073-8.67 20.927v194.913c0 5.279 4.284 9.563 9.563 9.563z"/>
            <path d="m94.463 311.432-16.039 49.359c-.502 1.564-1.964 2.618-3.604 2.618h-51.902c-9.928 0-18.726 6.392-21.794 15.835s.289 19.788 8.321 25.619l41.99 30.515c1.334.96 1.887 2.669 1.377 4.233l-16.04 49.368c-3.069 9.435.297 19.78 8.33 25.619 8.033 5.831 18.904 5.831 26.937 0l41.99-30.507c1.326-.969 3.128-.969 4.454 0l41.99 30.507c8.033 5.831 18.913 5.831 26.945 0 8.033-5.84 11.39-16.184 8.322-25.619l-16.039-49.368c-.51-1.564.051-3.272 1.377-4.233l41.99-30.515c8.033-5.831 11.398-16.175 8.33-25.619-3.069-9.444-11.866-15.835-21.794-15.835h-51.91c-1.641 0-3.094-1.054-3.604-2.618l-16.039-49.359c-3.069-9.444-11.866-15.836-21.794-15.836s-18.726 6.392-21.794 15.836zm18.19 5.907c.51-1.564 1.964-2.618 3.604-2.618s3.102 1.054 3.604 2.618l16.039 49.359c3.068 9.444 11.866 15.836 21.794 15.836h51.91c1.641 0 3.094 1.062 3.604 2.618.501 1.564-.051 3.272-1.377 4.242l-41.991 30.506c-8.033 5.84-11.398 16.184-8.33 25.619l16.039 49.368c.51 1.564-.051 3.272-1.377 4.233-1.326.969-3.128.969-4.454.008 0-.008-41.99-30.515-41.99-30.515-8.032-5.831-18.912-5.831-26.936 0l-41.998 30.507c-1.326.969-3.128.969-4.454 0-1.326-.961-1.887-2.669-1.377-4.233l16.04-49.368c3.068-9.435-.289-19.779-8.322-25.619l-41.99-30.507c-1.335-.969-1.887-2.677-1.377-4.242.501-1.555 1.963-2.618 3.604-2.618h51.901c9.928 0 18.726-6.392 21.794-15.836z"/>
            <path d="m246.732 125.562c-25.262 0-45.773 20.511-45.773 45.764 0 25.262 20.511 45.773 45.773 45.773s45.764-20.51 45.764-45.773c-.001-25.253-20.503-45.764-45.764-45.764zm0 19.125c14.705 0 26.639 11.934 26.639 26.639s-11.934 26.648-26.639 26.648-26.648-11.943-26.648-26.648 11.942-26.639 26.648-26.639z"/>
            <path d="m206.875 312.953c21.624 0 58.14 0 79.764-.119 7.905 0 15.292-4.156 19.422-10.957 4.123-6.783 4.42-15.223.79-22.279-11.084-21.964-33.855-37.043-60.12-37.043-26.257 0-49.028 15.071-60.223 36.975-3.663 7.047-3.374 15.564.782 22.406 4.157 6.842 11.586 11.016 19.593 11.016h-.008zm0-19.125c-1.326 0-2.55-.688-3.239-1.819-.688-1.139-.74-2.542-.127-3.715.008-.025.017-.042.025-.059 8.033-15.716 24.361-26.554 43.197-26.554 18.819 0 35.122 10.82 43.052 26.562.025.034.043.068.06.102.586 1.139.544 2.499-.119 3.596-.671 1.096-1.862 1.768-3.136 1.768-.026 0-.043 0-.06 0-21.589.119-58.063.119-79.653.119z"/>
            <path d="m355.574 178.143h159.655c5.279 0 9.562-4.284 9.562-9.562s-4.284-9.562-9.562-9.562h-159.655c-5.278 0-9.562 4.284-9.562 9.562s4.284 9.562 9.562 9.562z"/>
            <path d="m355.574 268.014h159.655c5.279 0 9.562-4.284 9.562-9.562 0-5.279-4.284-9.563-9.562-9.563h-159.655c-5.278 0-9.562 4.284-9.562 9.563 0 5.278 4.284 9.562 9.562 9.562z"/>
            <path d="m355.574 223.074h114.742c5.278 0 9.562-4.284 9.562-9.562 0-5.27-4.284-9.562-9.562-9.562h-114.742c-5.278 0-9.562 4.292-9.562 9.562 0 5.278 4.284 9.562 9.562 9.562z"/>
            <path d="m355.574 312.953h114.742c5.278 0 9.562-4.284 9.562-9.562s-4.284-9.562-9.562-9.562h-114.742c-5.278 0-9.562 4.284-9.562 9.562s4.284 9.562 9.562 9.562z"/>
        </g>
    </g>
</svg>