<svg xmlns="http://www.w3.org/2000/svg" viewBox="0 0 64 64" width="512" height="512">
    <defs>
        <linearGradient id="grad1" x1="0%" y1="0%" x2="100%" y2="0%">
            <stop offset="0%" style="stop-color:#9B62FF;stop-opacity:1"/>
            <stop offset="100%" style="stop-color:#5B03FF;stop-opacity:1"/>
        </linearGradient>
    </defs>
    <g fill="url(#grad1)">
        <path d="M42,46H60a1,1,0,0,0,1-1V35a1,1,0,0,0-1-1H42a1,1,0,0,0-1,1v4H34.82A3,3,0,0,0,33,37.18V26.82a3,3,0,0,0,0-5.64V10.82A3,3,0,0,0,34.82,9H40v4a1,1,0,0,0,1,1H59a1,1,0,0,0,1-1V3a1,1,0,0,0-1-1H41a1,1,0,0,0-1,1V7H34.82A3,3,0,0,0,33,5.18V2H31V5.18a3,3,0,0,0,0,5.64V21.18A3,3,0,0,0,29.18,23H24V19a1,1,0,0,0-1-1H5a1,1,0,0,0-1,1V29a1,1,0,0,0,1,1H23a1,1,0,0,0,1-1V25h5.18A3,3,0,0,0,31,26.82V37.18a3,3,0,0,0,0,5.64V53.18A3,3,0,0,0,29.18,55H24V51a1,1,0,0,0-1-1H5a1,1,0,0,0-1,1V61a1,1,0,0,0,1,1H23a1,1,0,0,0,1-1V57h5.18A3,3,0,0,0,31,58.82V62h2V58.82a3,3,0,0,0,0-5.64V42.82A3,3,0,0,0,34.82,41H41v4A1,1,0,0,0,42,46Zm1-10H59v8H43ZM42,4H58v8H42ZM22,28H6V20H22Zm0,32H6V52H22ZM32,7a1,1,0,1,1-1,1A1,1,0,0,1,32,7Zm0,16a1,1,0,1,1-1,1A1,1,0,0,1,32,23Zm0,34a1,1,0,1,1,1-1A1,1,0,0,1,32,57Zm0-16a1,1,0,1,1,1-1A1,1,0,0,1,32,41Z"/>
    </g>
</svg>
