<svg xmlns="http://www.w3.org/2000/svg" version="1.1" width="14"
     height="14" x="0" y="0" viewBox="0 0 512.171 512.171" style="enable-background:new 0 0 512 512"
     xml:space="preserve">
    <g>
        <path d="M476.723 216.64 263.305 3.115A10.652 10.652 0 0 0 255.753 0a10.675 10.675 0 0 0-7.552 3.136L35.422 216.64c-3.051 3.051-3.947 7.637-2.304 11.627a10.67 10.67 0 0 0 9.856 6.571h117.333v266.667c0 5.888 4.779 10.667 10.667 10.667h170.667c5.888 0 10.667-4.779 10.667-10.667V234.837h116.885c4.309 0 8.192-2.603 9.856-6.592 1.664-3.989.725-8.554-2.326-11.605z"
              fill="#ffffff" opacity="1"/>
    </g>
</svg>