<svg xmlns="http://www.w3.org/2000/svg" viewBox="0 0 276 479">
    <defs>
        <linearGradient id="grad1" x1="0%" y1="0%" x2="100%" y2="0%">
            <stop offset="0%" style="stop-color:#9B62FF;stop-opacity:1"/>
            <stop offset="100%" style="stop-color:#5B03FF;stop-opacity:1"/>
        </linearGradient>
    </defs>
    <g fill="url(#grad1)">
        <path class="cls-1"
              d="M18,371.5h240c9.93,0,18-8.07,18-18V125.5c0-9.93-8.07-18-18-18H18c-9.93,0-18,8.07-18,18v228c0,9.93,8.07,18,18,18h0ZM12,125.5c0-3.3,2.69-6,6-6h240c3.3,0,6,2.7,6,6v228c0,3.3-2.7,6-6,6H18c-3.31,0-6-2.7-6-6V125.5Z"/>
        <path class="cls-1"
              d="M60,311.5h156c9.93,0,18-8.07,18-18v-132c0-9.93-8.07-18-18-18H60c-9.93,0-18,8.07-18,18v132c0,9.93,8.07,18,18,18h0ZM216,299.5H60c-3.31,0-6-2.7-6-6v-15.12l52.8-42.24,26.32,36.84c1.12,1.57,2.93,2.5,4.86,2.52,1.73.11,3.74-.91,4.88-2.47l42.82-58.87,36.33,57.1v22.25c0,3.3-2.7,6-6,6h0ZM60,155.5h156c3.3,0,6,2.7,6,6v87.39l-30.94-48.62c-1.07-1.67-2.89-2.71-4.87-2.77-2.02-.12-3.87.87-5.04,2.47l-43.1,59.26-25.16-35.22c-.96-1.34-2.43-2.24-4.06-2.46-1.63-.23-3.29.23-4.57,1.26l-50.26,40.21v-101.52c0-3.3,2.69-6,6-6h0Z"/>
        <path class="cls-1"
              d="M138,203.5c9.93,0,18-8.07,18-18s-8.07-18-18-18-18,8.07-18,18,8.07,18,18,18h0ZM138,179.5c3.3,0,6,2.69,6,6s-2.7,6-6,6-6-2.7-6-6,2.7-6,6-6h0Z"/>
        <rect class="cls-1" x="78" y="329.5" width="114" height="12"/>
        <path class="cls-1"
              d="M96,54h24v30c0,3.31,2.69,6,6,6h24c3.31,0,6-2.69,6-6v-30h24c2.43,0,4.61-1.46,5.54-3.7.93-2.24.41-4.82-1.3-6.54L142.24,1.76c-2.35-2.35-6.14-2.35-8.48,0l-42,42c-1.71,1.71-2.23,4.3-1.3,6.54.93,2.24,3.12,3.7,5.54,3.7h0ZM138,14.49l27.52,27.52h-15.52c-3.31,0-6,2.69-6,6v30h-12v-30c0-3.31-2.69-6-6-6h-15.52l27.52-27.52Z"/>
        <path class="cls-1"
              d="M180,425h-24v-30c0-3.31-2.69-6-6-6h-24c-3.31,0-6,2.69-6,6v30h-24c-2.43,0-4.61,1.46-5.54,3.7-.93,2.24-.41,4.82,1.3,6.54l42,42c2.35,2.35,6.14,2.35,8.48,0l42-42c1.71-1.71,2.23-4.3,1.3-6.54-.93-2.24-3.12-3.7-5.54-3.7h0ZM138,464.52l-27.52-27.52h15.52c3.31,0,6-2.69,6-6v-30h12v30c0,3.31,2.69,6,6,6h15.52s-27.52,27.52-27.52,27.52Z"/>
    </g>
</svg>