<svg height="512pt" viewBox="0 -20 512 511" width="512pt" xmlns="http://www.w3.org/2000/svg">
    <defs>
        <linearGradient id="grad1" x1="0%" y1="0%" x2="100%" y2="0%">
            <stop offset="0%" style="stop-color:#9B62FF;stop-opacity:1"/>
            <stop offset="100%" style="stop-color:#5B03FF;stop-opacity:1"/>
        </linearGradient>
    </defs>
    <g fill="url(#grad1)">
        <path d="m204.824219 56.5h200.175781c5.523438 0 10-4.476562 10-10s-4.476562-10-10-10h-200.175781c-5.523438 0-10 4.476562-10 10s4.476562 10 10 10zm0 0"/>
        <path d="m96.359375 56.5c2.628906 0 5.210937-1.070312 7.070313-2.933594 1.859374-1.855468 2.929687-4.4375 2.929687-7.066406 0-2.632812-1.070313-5.210938-2.929687-7.070312-1.871094-1.859376-4.441407-2.929688-7.070313-2.929688s-5.210937 1.066406-7.070313 2.929688c-1.859374 1.859374-2.929687 4.4375-2.929687 7.070312 0 2.640625 1.070313 5.210938 2.929687 7.066406 1.859376 1.863282 4.429688 2.933594 7.070313 2.933594zm0 0"/>
        <path d="m59.609375 56.5c2.628906 0 5.210937-1.070312 7.070313-2.933594 1.859374-1.855468 2.929687-4.4375 2.929687-7.066406 0-2.632812-1.070313-5.210938-2.929687-7.070312-1.859376-1.859376-4.441407-2.929688-7.070313-2.929688s-5.210937 1.066406-7.070313 2.929688c-1.859374 1.859374-2.929687 4.4375-2.929687 7.070312 0 2.628906 1.070313 5.210938 2.929687 7.066406 1.859376 1.863282 4.441407 2.933594 7.070313 2.933594zm0 0"/>
        <path d="m133.109375 56.5c2.628906 0 5.210937-1.070312 7.070313-2.933594 1.859374-1.855468 2.929687-4.4375 2.929687-7.066406 0-2.632812-1.070313-5.210938-2.929687-7.070312-1.859376-1.859376-4.441407-2.929688-7.070313-2.929688-2.640625 0-5.210937 1.066406-7.082031 2.929688-1.855469 1.859374-2.917969 4.4375-2.917969 7.070312 0 2.628906 1.0625 5.210938 2.917969 7.066406 1.871094 1.863282 4.441406 2.933594 7.082031 2.933594zm0 0"/>
        <path d="m482 246.628906h-10v-57.160156c0-5.523438-4.476562-10-10-10s-10 4.476562-10 10v57.160156h-175.871094c-16.542968 0-30 13.457032-30 30v98.652344h-204.128906c-12.132812 0-22-9.871094-22-22v-260.785156c.035156 0 .070312.003906.109375.003906h431.890625v18.96875c0 5.523438 4.476562 10 10 10s10-4.476562 10-10v-68.96875c0-23.160156-18.839844-42-42-42h-388c-23.160156 0-42 18.839844-42 42v310.78125c0 23.15625 18.839844 42 42 42h204.128906v47.15625c0 16.542969 13.457032 30 30 30h205.871094c16.542969 0 30-13.457031 30-30v-165.808594c0-16.542968-13.457031-30-30-30zm-440-226.128906h388c12.132812 0 22 9.867188 22 22v30h-431.890625c-.039063 0-.074219.003906-.109375.007812v-30.007812c0-12.132812 9.867188-22 22-22zm450 421.9375c0 5.515625-4.484375 10-10 10h-205.871094c-5.515625 0-10-4.484375-10-10v-165.808594c0-5.515625 4.484375-10 10-10h205.871094c5.515625 0 10 4.484375 10 10zm0 0"/>
        <path d="m43.617188 330.839844 30.410156 30.410156c1.875 1.875 4.421875 2.929688 7.074218 2.929688 2.652344 0 5.195313-1.054688 7.070313-2.929688l40.820313-40.820312 8.339843 8.34375c2.527344 2.523437 6.207031 3.515624 9.660157 2.585937 3.449218-.925781 6.144531-3.621094 7.070312-7.070313l15.449219-57.660156h38.488281c5.523438 0 10-4.480468 10-10v-128c0-5.523437-4.476562-10-10-10h-144c-5.523438 0-10 4.476563-10 10v128c0 5.519532 4.476562 10 10 10h11.304688c.246093.3125.503906.617188.792968.90625l8.339844 8.34375-40.820312 40.816406c-3.902344 3.90625-3.902344 10.238282 0 14.144532zm30.382812-192.210938h124v108h-23.125l1.605469-5.992187c.921875-3.449219-.0625-7.132813-2.589844-9.660157-2.527344-2.523437-6.207031-3.511718-9.660156-2.585937l-68.246094 18.285156c-.320313-.03125-.644531-.046875-.972656-.046875h-21.011719zm31.652344 144.320313c3.90625-3.90625 3.90625-10.238281 0-14.144531l-3.167969-3.164063 50.191406-13.449219-13.449219 50.191406-3.164062-3.167968c-1.875-1.875-4.417969-2.929688-7.070312-2.929688-2.652344 0-5.195313 1.054688-7.070313 2.929688l-40.820313 40.820312-16.269531-16.269531zm0 0"/>
        <path d="m408.496094 344.433594-41.429688-23.917969c-5.457031-3.152344-11.976562-3.152344-17.433594 0-5.460937 3.148437-8.722656 8.792969-8.722656 15.097656v47.839844c0 6.304687 3.261719 11.945313 8.722656 15.097656 2.726563 1.578125 5.722657 2.363281 8.714844 2.363281 2.996094 0 5.988282-.785156 8.71875-2.363281l41.429688-23.917969c5.457031-3.152343 8.71875-8.796874 8.71875-15.101562 0-6.300781-3.261719-11.945312-8.71875-15.097656zm-47.582032 34.578125v-38.957031l33.734376 19.476562zm0 0"/>
        <path d="m407.214844 118.628906h-151.214844c-5.523438 0-10 4.476563-10 10 0 5.519532 4.476562 10 10 10h151.214844c5.519531 0 10-4.480468 10-10 0-5.523437-4.480469-10-10-10zm0 0"/>
        <path d="m417.214844 172.75c0-5.523438-4.480469-10-10-10h-151.214844c-5.523438 0-10 4.476562-10 10s4.476562 10 10 10h151.214844c5.519531 0 10-4.476562 10-10zm0 0"/>
        <path d="m256 206.871094c-5.523438 0-10 4.480468-10 10 0 5.523437 4.476562 10 10 10h62c5.523438 0 10-4.476563 10-10 0-5.519532-4.476562-10-10-10zm0 0"/>
        <path d="m462 140.46875c-2.628906 0-5.210938 1.070312-7.070312 2.929688-1.859376 1.863281-2.929688 4.441406-2.929688 7.070312s1.070312 5.210938 2.929688 7.070312c1.859374 1.859376 4.441406 2.929688 7.070312 2.929688s5.210938-1.070312 7.070312-2.929688c1.859376-1.859374 2.929688-4.441406 2.929688-7.070312s-1.070312-5.210938-2.929688-7.070312c-1.859374-1.859376-4.441406-2.929688-7.070312-2.929688zm0 0"/>
    </g>
</svg>