<svg height="512" viewBox="0 0 64 64" width="512" xmlns="http://www.w3.org/2000/svg">
    <defs>
        <linearGradient id="grad1" x1="0%" y1="0%" x2="100%" y2="0%">
            <stop offset="0%" style="stop-color:#9B62FF;stop-opacity:1"/>
            <stop offset="100%" style="stop-color:#5B03FF;stop-opacity:1"/>
        </linearGradient>
    </defs>
    <g fill="url(#grad1)">
        <path d="m10.75 6.84a1.13 1.13 0 0 1 0-2.25 1.13 1.13 0 0 1 0 2.25zm9.89 0a1.13 1.13 0 0 0 0-2.25 1.13 1.13 0 0 0 0 2.25zm-4.94 0a1.13 1.13 0 0 0 0-2.25 1.13 1.13 0 0 0 0 2.25zm43.08 51.91s0-49.3 0-49.31v-4.19a4 4 0 0 0 -4-4h-46a4 4 0 0 0 -4 4v4.19s0 49.29 0 49.31a4 4 0 0 0 4 4h46a4 4 0 0 0 4-4zm-1.5-48.53v48.53a2.5 2.5 0 0 1 -2.5 2.5h-46a2.5 2.5 0 0 1 -2.5-2.5v-48.53zm-51-5a2.5 2.5 0 0 1 2.5-2.5h46a2.5 2.5 0 0 1 2.5 2.5v3.47h-51zm30.45 52.57a.74.74 0 0 0 -.73-.79h-8.45a.75.75 0 0 0 0 1.5h8.45a.75.75 0 0 0 .73-.71zm3.66-3a.75.75 0 0 0 -.75-.75h-15.75a.75.75 0 0 0 0 1.5h15.75a.74.74 0 0 0 .75-.71zm5.46-5.66a2.68 2.68 0 0 0 -2.58-3.12h-7.27c-3.48 0-3.48 5.67 0 5.7h7.25a2.59 2.59 0 0 0 2.6-2.54zm-2.58-1.62a1.09 1.09 0 0 1 1.08 1.09v.53a1.08 1.08 0 0 1 -1.08 1.08h-7.27a1.08 1.08 0 0 1 -1.09-1.08v-.53a1.09 1.09 0 0 1 1.09-1.05zm-13.17 1.66a2.69 2.69 0 0 0 -2.59-3.12h-7.25c-3.47 0-3.47 5.67 0 5.7h7.25a2.59 2.59 0 0 0 2.59-2.58zm-2.59-1.62a1.09 1.09 0 0 1 1.09 1.09v.53a1.08 1.08 0 0 1 -1.09 1.08h-7.25a1.08 1.08 0 0 1 -1.08-1.08v-.53a1.09 1.09 0 0 1 1.08-1.09zm17.1-7.15a4.2 4.2 0 0 0 1-3.27l-1.33-10.43a1.8 1.8 0 0 0 -1.79-1.58h-3.65l-.65-4.91a2.25 2.25 0 0 0 -2.24-2h-2.28a4.56 4.56 0 1 0 -9 0h-2.53a2.25 2.25 0 0 0 -2.24 2l-2 15.19a5.76 5.76 0 0 0 5.73 6.41h17.85a4.18 4.18 0 0 0 3.13-1.41zm-13.26-3.08 1.38-10.46a.28.28 0 0 1 .29-.24h9.47a.3.3 0 0 1 .3.27l1.37 10.42a2.69 2.69 0 0 1 -2.68 3h-7.48a2.71 2.71 0 0 1 -2.65-2.99zm-6.7-17.61v2.19a.75.75 0 0 0 1.5 0v-2.19h6v2.19a.75.75 0 0 0 1.5 0v-2.19h2.35a.76.76 0 0 1 .75.69l.63 4.72h-4.38a1.77 1.77 0 0 0 -1.78 1.57l-1.36 10.44a4.2 4.2 0 0 0 .95 3.17h-7.19a4.26 4.26 0 0 1 -4.24-4.73l2-15.19a.76.76 0 0 1 .75-.67zm1.5-2.26c.34-4.46 6.56-3.75 6 .76h-6zm14.85 11.39a.75.75 0 0 0 -1.5 0 1.73 1.73 0 1 1 -3.44 0 .75.75 0 0 0 -1.5 0 3.22 3.22 0 1 0 6.44 0zm9.26 1.85 3.33-2.39a.75.75 0 0 0 .31-.61.74.74 0 0 0 -.31-.61l-3.33-2.4a.75.75 0 0 0 -1.18.61v4.8a.74.74 0 0 0 1.17.6zm1.61-3-1.29.93v-1.87zm-37.82 3.06a.73.73 0 0 0 .41-.66v-4.8a.76.76 0 0 0 -1.19-.61l-3.27 2.4a.76.76 0 0 0 0 1.22l3.32 2.39a.74.74 0 0 0 .73.06zm-1.09-4v1.87l-1.29-.93z"/>
    </g>
</svg>